<?xml version="1.0" encoding="UTF-8"?>
<svg id="Animation" xmlns="http://www.w3.org/2000/svg" viewBox="0 0 1273.33 1043.25">
  <defs>
    <style>
      .cls-1 {
        fill: #42e430;
      }

      .cls-2 {
        fill: #fff;
      }

      .cls-3 {
        fill: #ff3c63;
      }

      .cls-4 {
        fill: #0b3cff;
      }

      .cls-5 {
        fill: #fc3;
      }

      .cls-6 {
        fill: #1de2e2;
      }
    </style>
  </defs>
  <g id="Keyframe_1" data-name="Keyframe 1">
    <g id="Arrows">
      <g>
        <path d="M282.61,648.75l-.6,3.6c1.93,2.77,6.37,10.92,13.3,24.45,2.23,4.03,4.3,7.43,6.2,10.2-6.5,2.07-14.37,5.57-23.6,10.5-7.07,3.77-12.98,7.45-17.75,11.05-5.03,3.8-7.55,6.55-7.55,8.25,0,1.47,.07,2.57,.2,3.3-.13,1-.2,2.15-.2,3.45,0-.07,6.17,9.82,18.5,29.65,12.77,20.57,20.07,30.97,21.9,31.2,2.43,.27,3.98,.13,4.65-.4,.67-.57,1.07-.83,1.2-.8,.2-1.37,.3-3.95,.3-7.75,5.57-2.9,15.28-9.42,29.15-19.55,9.7-7.13,17.05-12.83,22.05-17.1,1.77,3.5,4.07,7.28,6.9,11.35,7.27,10.43,13.72,15.95,19.35,16.55,.87,.1,1.63,.13,2.3,.1,.07,.07,.12,.13,.15,.2,.93-.13,2.08-.48,3.45-1.05,1.23-.53,1.93-.8,2.1-.8,.07-1.27,.12-2.63,.15-4.1,.17-.27,.32-.5,.45-.7-.13-.13-.27-.27-.4-.4,.27-9.33,.4-21.77,.4-37.3s-.63-26.83-1.9-35.8c-1.17-8.03-2.57-12.17-4.2-12.4-.23-.03-.45,.03-.65,.2l-.05-.1c-1.8-.5-3.22-1-4.25-1.5-16.57-3.17-34.17-7.42-52.8-12.75-10.83-3.13-19.07-5.3-24.7-6.5-4.1-3.5-8.78-5.18-14.05-5.05m30.5,36c-.7-1.77-1.47-3.77-2.3-6-1.83-4.87-3.47-8.85-4.9-11.95,15.1,3.77,30.5,9.12,46.2,16.05l22.05,2.45c.3-.03,.57-.07,.8-.1-.03,.23-.07,.47-.1,.7-1.27,8.7-1.9,20.6-1.9,35.7,0,11.37,.13,18.83,.4,22.4,.03,.57,.08,1.13,.15,1.7-3.33-4.93-5.88-8.55-7.65-10.85-2.97-3.93-5.67-6.77-8.1-8.5-.33-.9-.8-1.58-1.4-2.05-1.8-.8-3.22-1.45-4.25-1.95-.97,.47-2.08,1.08-3.35,1.85-.93,.2-1.85,.57-2.75,1.1,0,.17,.02,.35,.05,.55-7.03,4.37-17.63,11.83-31.8,22.4-9.43,7-16.42,12.28-20.95,15.85-5.8-10.4-11.6-19.88-17.4-28.45-3.67-5.4-6.9-9.73-9.7-13,4.87-2.47,13-7.3,24.4-14.5,8.6-5.43,15.07-9.62,19.4-12.55,.17,.03,.32,.05,.45,.05,2.47,.3,4.1-.02,4.9-.95l1.25-1.4c-.23-.53-.52-1.15-.85-1.85,.57-.5,.85-.82,.85-.95,0-2.4-.2-3.87-.6-4.4-.43-.57-.65-.98-.65-1.25-.7-.07-1.45-.1-2.25-.1m29.3-445.05c-.75-.84-1.41-1.45-2-1.85-2.65-1.83-4.05,.45-4.2,6.85-9.39,7.85-18.27,15.57-26.65,23.15-20,18.1-30,29.33-30,33.7v.85c0,.21,0,.41,0,.6,0-.06,.02-.11,.05-.15,.16,1.94,.71,3.24,1.65,3.9,.1,.07,1.57,.57,4.4,1.5,.65-.57,1.3-1.14,1.95-1.7,.93,.59,1.95,1.24,3.05,1.95,4.53,2.9,13.18,8.67,25.95,17.3,18.32,12.09,32.27,20.09,41.85,24-1.53,2.07-3.16,4.47-4.9,7.2-6.67,10.4-10,17.53-10,21.4,0,2.6,.48,4.53,1.45,5.8-.97,1.11-1.45,2.24-1.45,3.4,0,2.53,.18,3.98,.55,4.35,.23,.27,.87,.65,1.9,1.15l.15,.6c.6,.4,2.18,.6,4.75,.6,.47,0,13.7-3.88,39.7-11.65,26-7.8,39-11.77,39-11.9,0-.35-.02-.69-.05-1,1.83-.11,3.05-.49,3.65-1.15,.37-.43,.6-.85,.7-1.25,.4-.2,.6-2.33,.6-6.4,0-7.3-1.53-17.83-4.6-31.6-3.73-16.7-5.88-27.4-6.45-32.1-.54,.02-1.07,.06-1.6,.1,.07-.15,.1-.28,.1-.4,0-2.4-.15-3.7-.45-3.9-.33-.2-.5-.43-.5-.7-6.43,0-14.53,4.17-24.3,12.5-3.47,2.98-6.44,5.93-8.9,8.85-.16-.33-.33-.66-.5-1-2.87-5.97-5.1-10.35-6.7-13.15-3.37-5.98-7.29-10.41-11.75-13.3-1.1-2.06-2.25-4.24-3.45-6.55-7.1-13.63-11.85-22.57-14.25-26.8-1.08-1.89-2.1-3.63-3.05-5.2,.23-.51,.35-.95,.35-1.3,0-2.6-.63-4.33-1.9-5.2-1.74-.58-3.12-1.08-4.15-1.5m-17,74.65c-12.76-7.11-22.86-11.91-30.3-14.4,22.71-20.03,38.16-34.54,46.35-43.55,2.62,5.42,6.19,12.92,10.7,22.5,8.73,17.74,14.86,28.59,18.4,32.55,8.29,12.77,14.39,19.15,18.3,19.15,2.6,0,4.32-.73,5.15-2.2,.26-.44,.47-1.01,.65-1.7,3.48-2.84,7.98-7.1,13.5-12.8,1.33-1.38,2.56-2.68,3.7-3.9,.07,.93,.17,1.98,.3,3.15,0,.57,.45,3.65,1.35,9.25,1.17,6.97,2.38,13.45,3.65,19.45,2.62,12.21,5.12,20.41,7.5,24.6-26.8,2.44-47.2,5.57-61.2,9.4-2.28,.61-4.36,1.23-6.25,1.85,2.15-3.08,4.65-6.9,7.5-11.45,4.27-6.76,7.25-11.76,8.95-15,.31-.27,.56-.58,.75-.95,.08-.33,.17-.65,.25-.95,.5-1.08,.75-1.82,.75-2.2,0-.21,0-.41,0-.6-.1-2.27-.74-3.8-1.9-4.6-1.8-.6-3.22-1.12-4.25-1.55-.47,.04-.97,.16-1.5,.35-2.59-1.78-5.81-3.93-9.65-6.45-11.3-7.43-22.2-14.08-32.7-19.95m613.8,454.5c-.89,.07-1.81,.2-2.75,.4-2-2.25-4.75-5.15-8.25-8.7-8-8.17-16.13-15.77-24.4-22.8-9.85-8.42-17.61-14.15-23.3-17.2,.16-.11,.31-.23,.45-.35,2.83-2.5,5.65-5.23,8.45-8.2,7.85-8.45,11.78-14.92,11.8-19.4h0c0-2.4-.2-3.7-.6-3.9-.4-.2-.6-.43-.6-.7-3.8-.7-10-.98-18.6-.85-9.07,.17-18.3,.78-27.7,1.85-19.75,2.19-33.55,5.48-41.4,9.85-.88-2.41-1.65-2.96-2.3-1.65-.34,.71-.64,1.96-.9,3.75-.47,.39-.9,.77-1.3,1.15l.65,3.7s.08,.08,.1,.1c-.5,6.71-.75,16.98-.75,30.8,0,17.77,.22,30.93,.65,39.5l6.7,1.25,.75-.15c.17,.05,.34,.1,.5,.15,.11-.09,.24-.21,.4-.35l4.5-.9,.8-3.25c.74-.58,1.56-1.21,2.45-1.9,3.27-2.57,5.77-4.67,7.5-6.3,1.31-1.26,2.44-2.52,3.4-3.8,1.37,2.45,2.86,5.13,4.45,8.05,3.2,5.9,8.27,15.23,15.2,28,12.7,23.1,20.62,34.65,23.75,34.65,1.18,0,2.18-.08,3-.25,.23,.09,.46,.17,.7,.25,.4-.3,.8-.6,1.2-.9,.12-.08,.24-.17,.35-.25,13.8-10.45,30.73-27.33,50.8-50.65,2.23-.08,3.73-.74,4.5-2,.47-.77,.8-1.92,1-3.45-.07-.17-.17-.37-.3-.6,.1-.11,.2-.23,.3-.35,0-2.4-.2-3.7-.6-3.9-.4-.2-.6-.43-.6-.7m-124.25-58.8c-.09-.5-.19-.98-.3-1.45,1.23,.17,2.63,.25,4.2,.25,9.27,0,25.02-2.02,47.25-6.05,4.74-.86,8.99-1.7,12.75-2.5-.09,.14-.19,.27-.3,.4-2.67,3.13-4.97,6.42-6.9,9.85-1.73,3.07-2.6,5.15-2.6,6.25,0,1.87,.05,3.27,.15,4.2-.1,.57-.15,1.2-.15,1.9,.04-1.02,2.47,1.18,7.3,6.6,3.03,3.4,8.92,10.02,17.65,19.85,11.56,12.55,21.09,21.23,28.6,26.05-6.96,4.45-14.81,11.15-23.55,20.1-6.02,6.18-11.32,12.3-15.9,18.35-.49-1.44-1.04-3.01-1.65-4.7-3.73-10.37-7.95-20.08-12.65-29.15-10.07-19.3-19.96-30.97-29.65-35-.65-3.14-2.04-4.67-4.15-4.6-1.71,.05-3.82,1.11-6.35,3.2-.21,.06-.43,.11-.65,.15l-.1,.55c-.94,.85-1.94,1.83-3,2.95-1.41,1.5-2.81,3.12-4.2,4.85-.23-2.26-.49-4.67-.8-7.25-1.7-14.4-3.37-26-5-34.8m140.15-428.7c-.2,0-.38,.03-.55,.1-4.1-3.37-8.52-4.83-13.25-4.4-.4,.67-.85,1.12-1.35,1.35-.1,.03-.4,1.23-.9,3.6-.07,.27,.85,2.43,2.75,6.5-.77,.53-1.57,1.1-2.4,1.7-7.5,5.43-15.58,12-24.25,19.7-9.07,8.2-16.65,15.75-22.75,22.65-5.07,5.77-8.48,10.5-10.25,14.2-1.6-1.9-3.62-3.8-6.05-5.7-4.9-3.93-9.37-6.25-13.4-6.95-.57-2.1-1.22-3.23-1.95-3.4-.87-.23-1.87,1.1-3,4-.33,.37-.65,.58-.95,.65-.1,.07-.38,1.25-.85,3.55-.07,.4-.07,.83,0,1.3-.8,3.03-1.67,6.78-2.6,11.25l-1.05,7.5c-.8,6.63-1.37,12.68-1.7,18.15-.53,9.2-.3,15.98,.7,20.35-.2,.83-.38,1.73-.55,2.7-.6,2.8-.47,4.8,.4,6,.63,.9,1.97,1.65,4,2.25,6.7,.27,11.97,.62,15.8,1.05,1.93,.23,3.18,.43,3.75,.6l61.8-2.55c2.43-.1,4.03-.47,4.8-1.1,.37-.3,.73-.62,1.1-.95,.07,.1,.2-.05,.4-.45,.3-.63,.65-1.8,1.05-3.5l.05-.2c.03-.13,.07-.28,.1-.45v-.2c.07-.27,.12-.52,.15-.75,.03-.03,.03-.08,0-.15,.23-1.93-.15-3.13-1.15-3.6-.13,0-.27,0-.4,0-.6-1.3-1.4-2.93-2.4-4.9-3.2-6.27-6.32-11.57-9.35-15.9-1.13-1.6-2.2-3-3.2-4.2,6.4-5.57,14.5-12.97,24.3-22.2,10.27-9.67,17.43-16.77,21.5-21.3,.83-.4,1.52-.97,2.05-1.7,.43-.9,.78-1.65,1.05-2.25,.3-.6,.55-1.05,.75-1.35,.53-2.6,.23-4.32-.9-5.15-.67-.2-1.28-.4-1.85-.6-1.1-2.37-2.38-5.32-3.85-8.85-2.9-6.67-5.33-11.73-7.3-15.2-2.4-4.17-4.93-7.5-7.6-10-.03-.3-.12-.47-.25-.5-.37-.2-.52-.43-.45-.7m-8.5,16.8c1.33,2.57,2.7,5.08,4.1,7.55,4.5,7.93,8.4,13.8,11.7,17.6-6.47,5.23-14.63,12.5-24.5,21.8-9.33,8.87-16.02,15.58-20.05,20.15-1.77,.53-3.17,2.33-4.2,5.4-.23,.4-.38,.75-.45,1.05-.1,.4-.17,.78-.2,1.15-.13,.5-.27,1.03-.4,1.6,.03-.07,.13,0,.3,.2,0,1.2,.28,2.1,.85,2.7,.23,.23,.65,.5,1.25,.8,1.47,2.63,3.68,6.77,6.65,12.4,1,1.67,1.95,3.22,2.85,4.65-22.27-.13-40.4-.7-54.4-1.7-2-.17-3.8-.3-5.4-.4,.07-.27,.13-.55,.2-.85,.4-1.9,.58-7.83,.55-17.8-.03-8.1-.22-15.33-.55-21.7,5.6,5.83,10.48,8.67,14.65,8.5,2.57-.1,4.38-.75,5.45-1.95,.27-.3,.55-.67,.85-1.1,10.67-7.97,24.92-21.38,42.75-40.25,7.63-8.1,13.63-14.7,18-19.8Z"/>
        <path class="cls-2" d="M310.81,678.75c.83,2.23,1.6,4.23,2.3,6,.8,0,1.55,.03,2.25,.1,0,.27,.22,.68,.65,1.25,.4,.53,.6,2,.6,4.4,0,.13-.28,.45-.85,.95,.33,.7,.62,1.32,.85,1.85l-1.25,1.4c-.8,.93-2.43,1.25-4.9,.95-.13,0-.28-.02-.45-.05-4.33,2.93-10.8,7.12-19.4,12.55-11.4,7.2-19.53,12.03-24.4,14.5,2.8,3.27,6.03,7.6,9.7,13,5.8,8.57,11.6,18.05,17.4,28.45,4.53-3.57,11.52-8.85,20.95-15.85,14.17-10.57,24.77-18.03,31.8-22.4-.03-.2-.05-.38-.05-.55,.9-.53,1.82-.9,2.75-1.1,1.27-.77,2.38-1.38,3.35-1.85,1.03,.5,2.45,1.15,4.25,1.95,.6,.47,1.07,1.15,1.4,2.05,2.43,1.73,5.13,4.57,8.1,8.5,1.77,2.3,4.32,5.92,7.65,10.85-.07-.57-.12-1.13-.15-1.7-.27-3.57-.4-11.03-.4-22.4,0-15.1,.63-27,1.9-35.7,.03-.23,.07-.47,.1-.7-.23,.03-.5,.07-.8,.1l-22.05-2.45c-15.7-6.93-31.1-12.28-46.2-16.05,1.43,3.1,3.07,7.08,4.9,11.95m-15.7-378.8c7.44,2.49,17.54,7.29,30.3,14.4,10.5,5.87,21.4,12.52,32.7,19.95,3.84,2.52,7.06,4.67,9.65,6.45,.53-.19,1.03-.31,1.5-.35,1.03,.43,2.45,.95,4.25,1.55,1.16,.8,1.8,2.33,1.9,4.6,0,.19,0,.39,0,.6,0,.38-.25,1.12-.75,2.2-.08,.3-.17,.62-.25,.95-.19,.37-.44,.68-.75,.95-1.7,3.24-4.68,8.24-8.95,15-2.85,4.55-5.35,8.37-7.5,11.45,1.89-.62,3.97-1.24,6.25-1.85,14-3.83,34.4-6.96,61.2-9.4-2.38-4.19-4.88-12.39-7.5-24.6-1.27-6-2.48-12.48-3.65-19.45-.9-5.6-1.35-8.68-1.35-9.25-.13-1.17-.23-2.22-.3-3.15-1.14,1.22-2.37,2.52-3.7,3.9-5.52,5.7-10.02,9.96-13.5,12.8-.18,.69-.39,1.26-.65,1.7-.83,1.47-2.55,2.2-5.15,2.2-3.91,0-10.01-6.38-18.3-19.15-3.54-3.96-9.67-14.81-18.4-32.55-4.51-9.58-8.08-17.08-10.7-22.5-8.19,9.01-23.64,23.52-46.35,43.55m519.55,408.65c.11,.47,.21,.95,.3,1.45,1.63,8.8,3.3,20.4,5,34.8,.31,2.58,.57,4.99,.8,7.25,1.39-1.73,2.79-3.35,4.2-4.85,1.06-1.12,2.06-2.1,3-2.95l.1-.55c.22-.04,.44-.09,.65-.15,2.53-2.09,4.65-3.15,6.35-3.2,2.11-.07,3.5,1.46,4.15,4.6,9.69,4.03,19.58,15.7,29.65,35,4.7,9.07,8.92,18.78,12.65,29.15,.61,1.69,1.16,3.26,1.65,4.7,4.58-6.05,9.89-12.17,15.9-18.35,8.74-8.95,16.59-15.65,23.55-20.1-7.51-4.82-17.04-13.5-28.6-26.05-8.73-9.83-14.62-16.45-17.65-19.85-4.83-5.42-7.26-7.62-7.3-6.6,0-.7,.05-1.33,.15-1.9-.1-.93-.15-2.33-.15-4.2,0-1.1,.87-3.18,2.6-6.25,1.93-3.43,4.23-6.72,6.9-9.85,.11-.13,.21-.26,.3-.4-3.76,.8-8.01,1.64-12.75,2.5-22.23,4.03-37.98,6.05-47.25,6.05-1.57,0-2.97-.08-4.2-.25m136.05-402.9c-1.4-2.47-2.77-4.98-4.1-7.55-4.37,5.1-10.37,11.7-18,19.8-17.83,18.87-32.08,32.28-42.75,40.25-.3,.43-.58,.8-.85,1.1-1.07,1.2-2.88,1.85-5.45,1.95-4.17,.17-9.05-2.67-14.65-8.5,.33,6.37,.52,13.6,.55,21.7,.03,9.97-.15,15.9-.55,17.8-.07,.3-.13,.58-.2,.85,1.6,.1,3.4,.23,5.4,.4,14,1,32.13,1.57,54.4,1.7-.9-1.43-1.85-2.98-2.85-4.65-2.97-5.63-5.18-9.77-6.65-12.4-.6-.3-1.02-.57-1.25-.8-.57-.6-.85-1.5-.85-2.7-.17-.2-.27-.27-.3-.2,.13-.57,.27-1.1,.4-1.6,.03-.37,.1-.75,.2-1.15,.07-.3,.22-.65,.45-1.05,1.03-3.07,2.43-4.87,4.2-5.4,4.03-4.57,10.72-11.28,20.05-20.15,9.87-9.3,18.03-16.57,24.5-21.8-3.3-3.8-7.2-9.67-11.7-17.6Z"/>
      </g>
    </g>
    <g id="Yellow">
      <g>
        <path d="M403.26,115.6c0-2.4-.2-3.72-.6-3.95-.4-.23-.6-.48-.6-.75-3.1,.97-6.65,2.72-10.65,5.25-19.2-14.63-39.9-28.78-62.1-42.45-21.3-13.07-42.05-24.48-62.25-34.25-18.87-9.13-34.23-15.42-46.1-18.85-2.33-.7-4.43-1.23-6.3-1.6-.33-.7-.78-1.2-1.35-1.5-1.77-.47-3.17-.93-4.2-1.4L12.66,.6C7.93-.93,4.81,1.32,3.31,7.35c-.6,2.33-.9,7.37-.9,15.1,0,6.3-.2,20.5-.6,42.6-.33,17.67-.37,31.93-.1,42.8,.7,29.63,3.93,55.22,9.7,76.75-2.73-3.23-4.1-2.02-4.1,3.65,0-.4,3.83,10.27,11.5,32,9.8,27.27,19.03,51.63,27.7,73.1,28.93,71.47,50.05,107.73,63.35,108.8,1.63,.13,2.88,.13,3.75,0,.87,.27,2.07,.45,3.6,.55,.3,.03,15.33-14.35,45.1-43.15,33.53-32.4,66.3-64.37,98.3-95.9,95.1-93.63,142.65-142.98,142.65-148.05m-22.2,8.05c-2.53,2-5.2,4.23-8,6.7-9,7.97-21.35,20.17-37.05,36.6-18.07,19.17-31.73,33.47-41,42.9-16,16.37-29.63,29.22-40.9,38.55-30.5,25.37-57.25,49.42-80.25,72.15-26.37,26.07-46.35,49-59.95,68.8-7.77-16.6-16.18-33.58-25.25-50.95-8.97-17.17-19.25-35.98-30.85-56.45-3.33-6.3-8.33-17.02-15-32.15-10.07-22.77-15.58-35.22-16.55-37.35-4.37-9.53-7.93-16.73-10.7-21.6,.4-.17,.83-.35,1.3-.55,1.23-.57,1.92-.85,2.05-.85,.43-12.23,.65-28.77,.65-49.6,0-2.03-.82-21.32-2.45-57.85-1.63-36.57-2.45-55.88-2.45-57.95,0-1.43,.28-4.93,.85-10.5,0-.17,.02-.32,.05-.45l193.55,15.25c.23-.03,.45-.07,.65-.1,7.63,4.1,19.03,10.5,34.2,19.2,11.77,6.77,31.18,17.98,58.25,33.65,40.63,23.33,66.92,37.52,78.85,42.55Z"/>
        <path class="cls-5" d="M373.06,130.35c2.8-2.47,5.47-4.7,8-6.7-11.93-5.03-38.22-19.22-78.85-42.55-27.07-15.67-46.48-26.88-58.25-33.65-15.17-8.7-26.57-15.1-34.2-19.2-.2,.03-.42,.07-.65,.1L15.56,13.1c-.03,.13-.05,.28-.05,.45-.57,5.57-.85,9.07-.85,10.5,0,2.07,.82,21.38,2.45,57.95,1.63,36.53,2.45,55.82,2.45,57.85,0,20.83-.22,37.37-.65,49.6-.13,0-.82,.28-2.05,.85-.47,.2-.9,.38-1.3,.55,2.77,4.87,6.33,12.07,10.7,21.6,.97,2.13,6.48,14.58,16.55,37.35,6.67,15.13,11.67,25.85,15,32.15,11.6,20.47,21.88,39.28,30.85,56.45,9.07,17.37,17.48,34.35,25.25,50.95,13.6-19.8,33.58-42.73,59.95-68.8,23-22.73,49.75-46.78,80.25-72.15,11.27-9.33,24.9-22.18,40.9-38.55,9.27-9.43,22.93-23.73,41-42.9,15.7-16.43,28.05-28.63,37.05-36.6Z"/>
      </g>
    </g>
    <g id="Red">
      <g>
        <path d="M1264.41,53.4c-1.8-.3-3.22-.65-4.25-1.05-46.4-2.2-70.78-3.83-73.15-4.9h-117.6c0,.17-.8,.63-2.4,1.4-1.83,.83-3.08,1.58-3.75,2.25,0,.9,.13,1.78,.4,2.65-29.47,12.6-62.32,29.18-98.55,49.75-20.47,11.8-35.8,20.63-46,26.5-15.07,8.67-28.35,16.08-39.85,22.25-.43-.23-.87-.47-1.3-.7l-.3,.45c-.07,.3-.12,.7-.15,1.2-1.73,.9-3.42,1.78-5.05,2.65l.6,3.7c1.13,1.1,2.13,1.83,3,2.2,1.13,.47,2.77,.75,4.9,.85,7.03,8.7,24.53,27.18,52.5,55.45,37.6,38.07,64.63,63.98,81.1,77.75,7.37,6.13,18.8,17.72,34.3,34.75,8.97,9.87,23.28,25.8,42.95,47.8,17.23,18.97,30.9,33.07,41,42.3,13.3,12.13,22.78,18.2,28.45,18.2,.23,0,.47-.02,.7-.05,.53,.03,1.12,.05,1.75,.05,1.9,0,3.92-1.02,6.05-3.05,2.5-2.37,3.75-5.13,3.75-8.3v-1.3c12.07-38.23,30.87-78.55,56.4-120.95,7.67-12.73,16.23-26.08,25.7-40.05,3.07-4.5,5.48-8.07,7.25-10.7,.17-.1,.35-.18,.55-.25,1.1-.47,1.87-.7,2.3-.7l.05-3.55c.37-.63,.55-.98,.55-1.05,0-2.3-.18-3.58-.55-3.85l.55-91.7c0-5.87,.75-14.67,2.25-26.4,1.83-14.2,2.93-23.78,3.3-28.75,1.2-17-.7-29.75-5.7-38.25,.1-.57,.15-1.18,.15-1.85,0-2.57-.63-4.15-1.9-4.75m-33.65,11.2h27.25c-1.7,10.8-2.83,23.57-3.4,38.3-.37,9.17-.55,25.9-.55,50.2,0,6.67-.73,15.9-2.2,27.7-1.8,14.47-2.85,23.88-3.15,28.25-.7,10.37-.35,19,1.05,25.9,1.1,5.33,2.88,10.02,5.35,14.05-12.6,7.13-23.25,18.5-31.95,34.1-2.73,4.93-6.8,13.32-12.2,25.15-4.87,10.67-8.88,18.57-12.05,23.7-5.8,9.5-12.8,23.18-21,41.05-11.1,24.23-16.65,41.07-16.65,50.5,0,.77,.02,1.45,.05,2.05-.07,.03-.13,.07-.2,.1-.13,.07-.27,.15-.4,.25-20.7-15.23-43.25-36.47-67.65-63.7-14.9-16.97-26.07-29.65-33.5-38.05-13.1-14.77-24.52-26.87-34.25-36.3-12.3-8.67-25.6-20.13-39.9-34.4-7.27-7.2-19.52-20.2-36.75-39-15-16.37-26.75-28.5-35.25-36.4-7.57-7.03-14.78-13-21.65-17.9,8.67-3.47,21.53-10.62,38.6-21.45,12.7-8.03,25.67-16.6,38.9-25.7,3.7-2.07,24.28-12.32,61.75-30.75,23.47-11.53,37.12-19.03,40.95-22.5l115.95,1.15c1.23,.43,8.38,1.05,21.45,1.85,13.07,.83,20.2,1.45,21.4,1.85Z"/>
        <path class="cls-3" d="M1258.01,64.6h-27.25c-1.2-.4-8.33-1.02-21.4-1.85-13.07-.8-20.22-1.42-21.45-1.85l-115.95-1.15c-3.83,3.47-17.48,10.97-40.95,22.5-37.47,18.43-58.05,28.68-61.75,30.75-13.23,9.1-26.2,17.67-38.9,25.7-17.07,10.83-29.93,17.98-38.6,21.45,6.87,4.9,14.08,10.87,21.65,17.9,8.5,7.9,20.25,20.03,35.25,36.4,17.23,18.8,29.48,31.8,36.75,39,14.3,14.27,27.6,25.73,39.9,34.4,9.73,9.43,21.15,21.53,34.25,36.3,7.43,8.4,18.6,21.08,33.5,38.05,24.4,27.23,46.95,48.47,67.65,63.7,.13-.1,.27-.18,.4-.25,.07-.03,.13-.07,.2-.1-.03-.6-.05-1.28-.05-2.05,0-9.43,5.55-26.27,16.65-50.5,8.2-17.87,15.2-31.55,21-41.05,3.17-5.13,7.18-13.03,12.05-23.7,5.4-11.83,9.47-20.22,12.2-25.15,8.7-15.6,19.35-26.97,31.95-34.1-2.47-4.03-4.25-8.72-5.35-14.05-1.4-6.9-1.75-15.53-1.05-25.9,.3-4.37,1.35-13.78,3.15-28.25,1.47-11.8,2.2-21.03,2.2-27.7,0-24.3,.18-41.03,.55-50.2,.57-14.73,1.7-27.5,3.4-38.3Z"/>
      </g>
    </g>
    <g id="Blue">
      <g>
        <path d="M1104.31,658.65c-.1,0-.2-.02-.3-.05-6.77-11-10.15-9.57-10.15,4.3l.7,1.55c-11.63,9.57-30.45,27.03-56.45,52.4-1.4,1.37-29.88,29.63-85.45,84.8-25.6,21.47-49.82,42.4-72.65,62.8-45.07,40.27-67.6,64.65-67.6,73.15,0,2.73,.57,4.63,1.7,5.7,.37,.37,1.15,.78,2.35,1.25-1.43,.13-2.78,.37-4.05,.7,30.9,19.53,65.95,39.52,105.15,59.95,45.43,23.73,73.58,35.6,84.45,35.6l111.45,1.25,3.7,1.2h70.7c2.37-.57,3.7-.95,4-1.15,.23-.13,.43-.28,.6-.45,.4-.13,.72-.2,.95-.2l.6-3.7v-168.75c1.1-2.43,1.82-5.42,2.15-8.95,.2-2.1,.3-5.23,.3-9.4,0-2.47-.03-4.65-.1-6.55,.07-.97,.1-2.27,.1-3.9,0-.73-.28-1.87-.85-3.4-.3-.77-.65-1.62-1.05-2.55-3.33-7.53-10.97-21.18-22.9-40.95-18.57-30.07-29.9-48.62-34-55.65-11.53-30.67-20.4-52.55-26.6-65.65-1.8-3.77-3.45-7.02-4.95-9.75-.03-2.23-.32-3.42-.85-3.55-.37-.03-.68-.05-.95-.05m1.15,32.6c9.7,23.57,18.82,44.75,27.35,63.55,26.03,57.4,44.42,88.17,55.15,92.3-1.4,4.83-2.7,10.37-3.9,16.6-1.53,7.83-2.3,13.48-2.3,16.95v70.45c0,5.47-.7,13.4-2.1,23.8-1.67,12.53-2.67,20.97-3,25.3-.87,12.37,.25,22.6,3.35,30.7l-64.4-1.1c-1.4-.53-20.75-.9-58.05-1.1l-55.55-.15c0,.17-.63,.57-1.9,1.2-21.73-13.47-37.12-22.92-46.15-28.35-21.17-12.67-39.52-22.98-55.05-30.95-35.57-18.23-62-26.95-79.3-26.15,12.77-12.13,38.47-35.98,77.1-71.55,41.9-38.6,73.62-68.05,95.15-88.35,57.2-53.93,92.93-90.25,107.2-108.95,1.7,4.2,3.83,9.47,6.4,15.8Z"/>
        <path class="cls-6" d="M1132.81,754.8c-8.53-18.8-17.65-39.98-27.35-63.55-2.57-6.33-4.7-11.6-6.4-15.8-14.27,18.7-50,55.02-107.2,108.95-21.53,20.3-53.25,49.75-95.15,88.35-38.63,35.57-64.33,59.42-77.1,71.55,17.3-.8,43.73,7.92,79.3,26.15,15.53,7.97,33.88,18.28,55.05,30.95,9.03,5.43,24.42,14.88,46.15,28.35,1.27-.63,1.9-1.03,1.9-1.2l55.55,.15c37.3,.2,56.65,.57,58.05,1.1l64.4,1.1c-3.1-8.1-4.22-18.33-3.35-30.7,.33-4.33,1.33-12.77,3-25.3,1.4-10.4,2.1-18.33,2.1-23.8v-70.45c0-3.47,.77-9.12,2.3-16.95,1.2-6.23,2.5-11.77,3.9-16.6-10.73-4.13-29.12-34.9-55.15-92.3Z"/>
      </g>
    </g>
    <g id="Dark_Blue" data-name="Dark Blue">
      <g>
        <path d="M114.81,614.4c-1.47-.1-2.28,.65-2.45,2.25-18.17,16.97-39.47,50.98-63.9,102.05-9.73,20.37-18.4,40.2-26,59.5-6.83,17.43-10.25,27.7-10.25,30.8,0,1.8,.27,3.17,.8,4.1-.53,10.37-.8,23.8-.8,40.3,0,3.9,.25,13.53,.75,28.9,.57,17.4,1.13,31.03,1.7,40.9,.5,7.87,.28,19.78-.65,35.75-.07,9.5,.92,17.9,2.95,25.2-1.07,.57-1.83,1.08-2.3,1.55,0,1.87,.57,3.6,1.7,5.2,1.13,1.63,2.6,2.75,4.4,3.35,80,.53,136.57,1.1,169.7,1.7,13.23,.23,21.37,.45,24.4,.65,.53,.03,.92,.07,1.15,.1h1.35c4.1,0,16.15-4.47,36.15-13.4,19.17-8.57,40.2-18.77,63.1-30.6,24.5-12.7,44.48-23.87,59.95-33.5,10.47-6.53,17.87-11.75,22.2-15.65,1.57-.2,2.67-.68,3.3-1.45,.4-.53,.8-1.05,1.2-1.55-.3-.33-.58-.67-.85-1,.57-.93,.85-1.72,.85-2.35,0-2.4-.2-3.7-.6-3.9-.4-.2-.6-.43-.6-.7-1.33,.63-2.67,1.28-4,1.95-20.07-23.07-43.65-47.58-70.75-73.55-16.67-15.8-29.33-27.82-38-36.05-15.57-14.83-29.13-28.05-40.7-39.65-4-4-14.88-15.57-32.65-34.7-19.43-20.9-34.63-36.98-45.6-48.25-24.97-25.67-41.87-41.03-50.7-46.1v-.2c0-2.4-.2-3.7-.6-3.9-.4-.2-.6-.43-.6-.7-1.2,.9-2.42,1.88-3.65,2.95m-57.6,127.3c4.43-11.23,7.7-19.23,9.8-24,4.77-10.63,15.27-30.82,31.5-60.55,8.27-15.17,14.12-26.13,17.55-32.9,6.97,9.73,23.73,28.57,50.3,56.5,15.33,16.13,39.68,41.12,73.05,74.95,1.8,1.83,13.98,14.48,36.55,37.95,19.2,19.97,35.27,36.37,48.2,49.2,30.13,30,51.3,48.9,63.5,56.7-33.47,16.13-70.32,34.45-110.55,54.95-28.67,14.6-48.1,24.72-58.3,30.35-.83-.9-1.72-1.85-2.65-2.85H26.56c.23-10,.35-22.65,.35-37.95-.4-13.07-.8-26.23-1.2-39.5-.83-26.47-1.25-46.28-1.25-59.45-.73-2.63-.88-6.65-.45-12.05,.67-6.17,1.03-10.67,1.1-13.5,.13-4.53-.42-7.88-1.65-10.05,7.77-10.23,15.43-24.03,23-41.4,2.6-6,6.18-14.8,10.75-26.4Z"/>
        <path class="cls-4" d="M67.01,717.7c-2.1,4.77-5.37,12.77-9.8,24-4.57,11.6-8.15,20.4-10.75,26.4-7.57,17.37-15.23,31.17-23,41.4,1.23,2.17,1.78,5.52,1.65,10.05-.07,2.83-.43,7.33-1.1,13.5-.43,5.4-.28,9.42,.45,12.05,0,13.17,.42,32.98,1.25,59.45,.4,13.27,.8,26.43,1.2,39.5,0,15.3-.12,27.95-.35,37.95H216.16c.93,1,1.82,1.95,2.65,2.85,10.2-5.63,29.63-15.75,58.3-30.35,40.23-20.5,77.08-38.82,110.55-54.95-12.2-7.8-33.37-26.7-63.5-56.7-12.93-12.83-29-29.23-48.2-49.2-22.57-23.47-34.75-36.12-36.55-37.95-33.37-33.83-57.72-58.82-73.05-74.95-26.57-27.93-43.33-46.77-50.3-56.5-3.43,6.77-9.28,17.73-17.55,32.9-16.23,29.73-26.73,49.92-31.5,60.55Z"/>
      </g>
    </g>
    <g id="Green">
      <g>
        <path d="M608.96,252.05c-.06-1.13-.23-1.77-.5-1.9-.4-.2-.6-.43-.6-.7-1.16,.51-2.58,1.28-4.25,2.3-1.42,0-2.87,.04-4.35,.15,.54,.54,1.07,1.07,1.6,1.6-11.42,7.66-31.7,24.38-60.85,50.15-27.63,24.47-56.98,51.42-88.05,80.85-46.13,43.93-73.97,70.6-83.5,80-30.64,30.31-48.54,49.94-53.7,58.9-.1-.04-.2-.09-.3-.15-.27,.63-.63,1.07-1.1,1.3-.09,.06-.14,1.03-.15,2.9v.75c.09,2.3,.66,3.82,1.7,4.55,.06,.06,1.16,.44,3.3,1.15,14.68,15.72,61.59,63.32,140.75,142.8,83.87,84.22,131.72,132,143.55,143.35-.53,.58-.8,.88-.8,.9,0,2.53,.18,3.98,.55,4.35,.23,.27,.87,.65,1.9,1.15l.15,.6c.63,.4,2.22,.6,4.75,.6,14.53,0,39.72-20.27,75.55-60.8,8.23-9.3,21.88-25.42,40.95-48.35,15.13-18.2,25.5-30.1,31.1-35.7,2.8-2.8,12.65-12.4,29.55-28.8,18.73-18.3,34.93-34.42,48.6-48.35,43.67-44.43,65.5-70.37,65.5-77.8,0-2.57-.63-4.15-1.9-4.75-1.29-.22-2.39-.47-3.3-.75-2.48-7.53-21.38-28.42-56.7-62.65-12.53-12.13-28.12-26.88-46.75-44.25-18.77-17.43-31.13-28.97-37.1-34.6-5.6-5.27-18.85-17.25-39.75-35.95-16.73-14.97-30.13-27.48-40.2-37.55-5.23-4.7-11.3-11.2-18.2-19.5-8.13-9.83-13.43-16.02-15.9-18.55-6-6.17-11.9-10.63-17.7-13.4-4.31-2.01-8.93-3.3-13.85-3.85m-142.9,406.85c-8.8-8.3-20.88-20.35-36.25-36.15-18-18.53-30.42-31.15-37.25-37.85-25.41-24.93-48-43.5-67.75-55.7,47.43-44.34,104.73-98.87,171.9-163.6,61.91-59.71,98.23-95.48,108.95-107.3,81.78,81.75,144.64,144,188.6,186.75,51.24,49.86,81.84,78.22,91.8,85.1-17.54,17.71-38.51,39.27-62.9,64.7-32.87,34.47-57.37,60.12-73.5,76.95-20.1,20.9-51.35,52.48-93.75,94.75-21.39,21.35-36.45,36.41-45.2,45.2-4.36-12.1-27.35-38.95-68.95-80.55-15.03-15.07-31.57-31.1-49.6-48.1-12.73-12-21.43-20.07-26.1-24.2Z"/>
        <path class="cls-1" d="M429.81,622.75c15.37,15.8,27.45,27.85,36.25,36.15,4.67,4.13,13.37,12.2,26.1,24.2,18.03,17,34.57,33.03,49.6,48.1,41.6,41.6,64.59,68.46,68.95,80.55,8.75-8.79,23.81-23.85,45.2-45.2,42.4-42.27,73.65-73.85,93.75-94.75,16.13-16.83,40.63-42.48,73.5-76.95,24.39-25.43,45.36-46.99,62.9-64.7-9.96-6.88-40.56-35.24-91.8-85.1-43.96-42.75-106.82-105-188.6-186.75-10.72,11.82-47.04,47.59-108.95,107.3-67.17,64.73-124.47,119.26-171.9,163.6,19.75,12.2,42.34,30.77,67.75,55.7,6.83,6.7,19.25,19.32,37.25,37.85Z"/>
      </g>
    </g>
  </g>
  <g id="Keyframe_2" data-name="Keyframe 2">
    <g id="Arrows-2" data-name="Arrows">
      <g>
        <path d="M282.61,648.75l-.6,3.6,19.5,34.65c-18.8,5.93-35.05,15.65-48.75,29.15l-.05,7.55c12,20.4,25.08,40.13,39.25,59.2,1.13,1.57,2.82,2.05,5.05,1.45l2.15-8.9,50.3-35.8c4.87,7,11.02,14.38,18.45,22.15,4.8,5.03,10.17,6.22,16.1,3.55,3.7-30.23,2.28-60.43-4.25-90.6l-97.15-26m30.5,36l-6.05-15.4,67.9,15.85-1.45,60.5-21.4-23.35-56.95,40.4-28.95-40.1,43.8-27.05,4.6-.3-1.5-10.55m33.45-443.55l-7.9-3.9-2.3,5.2c-17,15.77-34.17,32.07-51.5,48.9-5.23,5.1-6.43,10.22-3.6,15.35l6.35-.2,70.85,43.3c-5.87,7.73-10.57,16.1-14.1,25.1-.67,1.73-.88,3.5-.65,5.3,.17,1.23,.5,2.4,1,3.5l-.3,8.45c9.27,2.7,19.15,1.63,29.65-3.2,5.3-2.4,10.87-4.32,16.7-5.75,15.6-3.87,29.92-8.95,42.95-15.25l-9.9-68.65-2.15-6.15c-8.43-.2-16.28,3.03-23.55,9.7-3.67,3.37-7.08,6.97-10.25,10.8l-39.75-65.95-1.55-6.55m-21.15,73.15l-30.25-14.4,46.35-43.55c7.77,17.37,16.33,34.37,25.7,51,5.33,9.5,12.32,17.22,20.95,23.15l3.95-.5,19.75-20,11.95,54.75-65.75,11.8,17.25-31.6-49.9-30.65m609.5,465.55l4.5-2.05,.4-8.3-59.25-49c7.67-6.17,13.97-13.53,18.9-22.1,1.43-2.47,1.98-5.15,1.65-8.05-.07-.43-.13-.87-.2-1.3-30.03-4.37-59.65-1.58-88.85,8.35l-1.2-.85-3.05,5.5,.65,74.1h12.85l.8-3.2,13.4-12,42,70.15,5.05,.5,52.35-51.75m-95.7-34.9l-2.65-4.3-15.75,11.4-6.1-43.5,64.2-8.25-9.75,22.45,52.05,51.7-38.05,39.35c-7-28.8-21.65-51.75-43.95-68.85m100.75-466.45l1.2,8.55-59,59.65-21.7-16c-8.37,16.6-11.83,35.17-10.4,55.7,.43,6.53,.72,12.95,.85,19.25,7,2.97,14.65,4.38,22.95,4.25,.27,0,.55,.03,.85,.1,20.9-.87,41.82-1.72,62.75-2.55,1.43,0,2.72-.37,3.85-1.1l2.95-7.95-15.05-25.35c1.3-4.93,5.22-10.07,11.75-15.4,10.87-8.8,21.38-17.95,31.55-27.45,3.47-3.2,5.1-7.08,4.9-11.65l-21.85-36.55-15.6-3.5m21.25,43.25c-3.2,5.67-8.58,11.27-16.15,16.8-13.73,10.1-24.37,22.08-31.9,35.95l-.15,.95,10.15,17.5-58.25-.75v-39.5l17.95,7.95,63.75-62.55,14.6,23.65Z"/>
        <path class="cls-2" d="M307.06,669.35l6.05,15.4,1.5,10.55-4.6,.3-43.8,27.05,28.95,40.1,56.95-40.4,21.4,23.35,1.45-60.5-67.9-15.85m-11.9-369.4l30.25,14.4,49.9,30.65-17.25,31.6,65.75-11.8-11.95-54.75-19.75,20-3.95,.5c-8.63-5.93-15.62-13.65-20.95-23.15-9.37-16.63-17.93-33.63-25.7-51l-46.35,43.55m541.4,440.75l2.65,4.3c22.3,17.1,36.95,40.05,43.95,68.85l38.05-39.35-52.05-51.7,9.75-22.45-64.2,8.25,6.1,43.5,15.75-11.4m108.5-402.1c7.57-5.53,12.95-11.13,16.15-16.8l-14.6-23.65-63.75,62.55-17.95-7.95v39.5l58.25,.75-10.15-17.5,.15-.95c7.53-13.87,18.17-25.85,31.9-35.95Z"/>
      </g>
    </g>
    <g id="Yellow-2" data-name="Yellow">
      <g>
        <path d="M402.06,110.9l-10.65,5.25c-36.73-27.8-75.67-52.03-116.8-72.7-20.8-10.47-42.32-17.27-64.55-20.4C144.56,13.48,78.78,5.8,12.71,0c-1.37,0-2.68,.12-3.95,.35C2.76,6.35,.2,14.2,1.06,23.9c.87,9.77,1.18,19.63,.95,29.6-.47,18.1-.55,36.22-.25,54.35,.03,1.83,.08,3.68,.15,5.55,.93,24.9,3.67,48.05,8.2,69.45l-1.45,.1c-1.83,3.63-1.98,7.53-.45,11.7,13.17,35.2,26.85,70.3,41.05,105.3,.87,2.13,1.68,4.28,2.45,6.45,11.93,34.2,29.35,64.87,52.25,92,2.5,2.93,5.72,4.43,9.65,4.5,1.3,0,2.6-.1,3.9-.3,4.33-3.93,8.6-7.92,12.8-11.95,46.67-45.1,93.05-90.3,139.15-135.6,2.83-2.8,5.68-5.58,8.55-8.35,42.67-40.77,83.72-83.1,123.15-127,2.53-2.87,2.83-5.8,.9-8.8m-24.6,11.1c1.13,.57,2.33,1.12,3.6,1.65-29.93,27.47-58.93,55.88-87,85.25-26,27.2-53.4,52.98-82.2,77.35-30.17,25.57-57.92,53.48-83.25,83.75-5.2,6.23-10.1,12.68-14.7,19.35L16.66,192.85c.07-.87,.28-1.63,.65-2.3,.17-.37,.5-.65,1-.85,.13-.07,.27-.12,.4-.15L15.51,13.55c64.53,4.93,129.05,10.07,193.55,15.4,2.5,.37,4.95,1.23,7.35,2.6,38.97,22.43,77.9,44.8,116.8,67.1,14.43,8.3,29.18,16.08,44.25,23.35Z"/>
        <path class="cls-5" d="M381.06,123.65c-1.27-.53-2.47-1.08-3.6-1.65-15.07-7.27-29.82-15.05-44.25-23.35-38.9-22.3-77.83-44.67-116.8-67.1-2.4-1.37-4.85-2.23-7.35-2.6C144.56,23.62,80.05,18.48,15.51,13.55l3.2,176c-.13,.03-.27,.08-.4,.15-.5,.2-.83,.48-1,.85-.37,.67-.58,1.43-.65,2.3l97.25,196.5c4.6-6.67,9.5-13.12,14.7-19.35,25.33-30.27,53.08-58.18,83.25-83.75,28.8-24.37,56.2-50.15,82.2-77.35,28.07-29.37,57.07-57.78,87-85.25Z"/>
      </g>
    </g>
    <g id="Red-2" data-name="Red">
      <g>
        <path d="M1266.76,56.25c-.4-1.2-1.18-2.15-2.35-2.85-25.7-1.6-51.53-2.65-77.5-3.15-39.2-1.8-78.42-2.25-117.65-1.35-1.53,.03-3.05,.42-4.55,1.15l-1.05,3.7-191.2,102.1,1.45,4.5,7.05,2.25c24.37,27.03,49.58,53.32,75.65,78.85,5.87,5.77,11.7,11.47,17.5,17.1,15.17,14.8,30.5,29.38,46,43.75,16.27,15.07,31.43,31.13,45.5,48.2,26.17,31.83,55.63,60.15,88.4,84.95,5.87,4.43,11.33,4.17,16.4-.8,2.37-2.3,3.87-5.02,4.5-8.15,1.53-7.4,3.65-14.68,6.35-21.85,20.77-55,48.8-105.35,84.1-151.05-2.1-45.27-.53-90.72,4.7-136.35,.6-5.23,1.15-10.43,1.65-15.6,1.57-15.63-.08-30.77-4.95-45.4m-36,8.35h27.25c-3.4,32.23-5.18,64.62-5.35,97.15-.07,9.73-1.02,19.33-2.85,28.8-3.9,20.4-2.13,39.88,5.3,58.45-23.33,17.97-40.07,41.23-50.2,69.8-2.13,5.97-4.87,11.62-8.2,16.95-17.43,28.1-29.23,58.03-35.4,89.8-33.2-25.4-63.43-54.42-90.7-87.05-26.17-31.4-54.78-60.5-85.85-87.3-6.57-5.63-12.7-11.73-18.4-18.3-22.77-26.37-47.63-50.62-74.6-72.75,28.6-14.43,56.32-30.62,83.15-48.55,5.33-3.6,10.93-6.8,16.8-9.6,27.03-12.7,53.52-26.53,79.45-41.5l159.6,4.1Z"/>
        <path class="cls-3" d="M1258.01,64.6h-27.25l-159.6-4.1c-25.93,14.97-52.42,28.8-79.45,41.5-5.87,2.8-11.47,6-16.8,9.6-26.83,17.93-54.55,34.12-83.15,48.55,26.97,22.13,51.83,46.38,74.6,72.75,5.7,6.57,11.83,12.67,18.4,18.3,31.07,26.8,59.68,55.9,85.85,87.3,27.27,32.63,57.5,61.65,90.7,87.05,6.17-31.77,17.97-61.7,35.4-89.8,3.33-5.33,6.07-10.98,8.2-16.95,10.13-28.57,26.87-51.83,50.2-69.8-7.43-18.57-9.2-38.05-5.3-58.45,1.83-9.47,2.78-19.07,2.85-28.8,.17-32.53,1.95-64.92,5.35-97.15Z"/>
      </g>
    </g>
    <g id="Blue-2" data-name="Blue">
      <g>
        <path d="M1106.31,660.15c-.27-.63-.62-1.12-1.05-1.45l-8.85-7.25-1.85,13c-46.8,42.73-92.62,86.55-137.45,131.45-10.37,10.33-21.22,20.25-32.55,29.75-30.57,25.47-60.12,52.02-88.65,79.65-9.1,8.83-16.5,18.8-22.2,29.9-1.77,3.47-1.33,6.37,1.3,8.7l2.4,1.1c4.67,5.07,10.97,10.13,18.9,15.2,50.13,31.73,102.78,58.1,157.95,79.1,2.17,.8,4.4,1.3,6.7,1.5,63.93,2.03,127.57,2.47,190.9,1.3,1.97-.6,2.95-2.05,2.95-4.35-.27-56.9,.1-113.78,1.1-170.65,.07-2.87,.2-5.78,.4-8.75,1.33-20.13-4.47-38.53-17.4-55.2-3.8-4.9-7.45-9.92-10.95-15.05-19.27-28-34.77-57.83-46.5-89.5-4.8-13.03-9.85-25.85-15.15-38.45m-48.05,60.2c14.47-14.17,28.07-29.13,40.8-44.9,14.7,36.9,30.28,73.35,46.75,109.35,9.9,21.63,22.57,41.42,38,59.35,.87,1,1.92,1.85,3.15,2.55-1.73,10.17-3.07,21.05-4,32.65-1.93,23.9-2.72,48.55-2.35,73.95,.17,10.13-.67,20.18-2.5,30.15-3,16.03-2.37,31.85,1.9,47.45l-179.9-1.15c-31.07-19.73-62.68-38.67-94.85-56.8-24.77-14-51.03-23.3-78.8-27.9-2.27-.47-4.55-.72-6.85-.75,22.17-20.57,44.45-41.07,66.85-61.5,58.23-53.13,115.5-107.28,171.8-162.45Z"/>
        <path class="cls-6" d="M1099.06,675.45c-12.73,15.77-26.33,30.73-40.8,44.9-56.3,55.17-113.57,109.32-171.8,162.45-22.4,20.43-44.68,40.93-66.85,61.5,2.3,.03,4.58,.28,6.85,.75,27.77,4.6,54.03,13.9,78.8,27.9,32.17,18.13,63.78,37.07,94.85,56.8l179.9,1.15c-4.27-15.6-4.9-31.42-1.9-47.45,1.83-9.97,2.67-20.02,2.5-30.15-.37-25.4,.42-50.05,2.35-73.95,.93-11.6,2.27-22.48,4-32.65-1.23-.7-2.28-1.55-3.15-2.55-15.43-17.93-28.1-37.72-38-59.35-16.47-36-32.05-72.45-46.75-109.35Z"/>
      </g>
    </g>
    <g id="Dark_Blue-2" data-name="Dark Blue">
      <g>
        <path d="M119.66,616.05c-.13-5.13-2.37-5.18-6.7-.15-26.63,30.93-48.47,65.05-65.5,102.35-12,26.37-22.58,53.38-31.75,81.05-3.37,10.17-4.87,20.73-4.5,31.7,1.33,39.83,2.05,79.65,2.15,119.45,.03,8.37,.8,16.7,2.3,25,.6,3.47,.58,6.47-.05,9-.1,.47-.42,.88-.95,1.25l4.85,8.05c58.5,.97,117.07,2.05,175.7,3.25,8.97,.2,17.78-.65,26.45-2.55,8.53-1.7,16.82-4.27,24.85-7.7,51.43-22.1,100.42-48.67,146.95-79.7,2.83-1.87,5.7-3.52,8.6-4.95l.9-8.4-4.9,.85c-39.97-43.7-81.43-85.88-124.4-126.55-30.83-29.17-60.48-59.53-88.95-91.1-20.03-22.23-41.72-42.52-65.05-60.85m-62.45,125.65l58.85-117.45c41.33,47.87,84.28,94.23,128.85,139.1,28.27,28.43,56.43,56.9,84.5,85.4,17.83,18.07,36.88,34.77,57.15,50.1l-165.65,84.95c-.7,.33-1.38,.5-2.05,.5-.47-.1-.9-.37-1.3-.8-.47-.5-.93-1-1.4-1.5H26.56l-2.6-171.55,33.25-68.75Z"/>
        <path class="cls-4" d="M116.06,624.25l-58.85,117.45-33.25,68.75,2.6,171.55H216.16c.47,.5,.93,1,1.4,1.5,.4,.43,.83,.7,1.3,.8,.67,0,1.35-.17,2.05-.5l165.65-84.95c-20.27-15.33-39.32-32.03-57.15-50.1-28.07-28.5-56.23-56.97-84.5-85.4-44.57-44.87-87.52-91.23-128.85-139.1Z"/>
      </g>
    </g>
    <g id="Green-2" data-name="Green">
      <g>
        <path d="M599.26,251.9c-.1,3.23-2.73,6.62-7.9,10.15-9.97,6.77-19.57,14.12-28.8,22.05-29.77,25.57-58.97,51.85-87.6,78.85-29.4,27.73-58.87,55.5-88.4,83.3-26.4,24.8-50.8,50.9-73.2,78.3l.9,7.55,288.25,288,.05,5.45c11.33,3.27,22.17,.38,32.5-8.65,9.53-8.37,18.67-17.22,27.4-26.55,28.47-30.5,56.17-61.73,83.1-93.7,12.7-15.03,26.32-29.18,40.85-42.45,40.97-37.33,78.27-77.92,111.9-121.75,2-2.6,2.43-5.35,1.3-8.25l-4.45-1.8c-8.57-13.6-18.67-26.05-30.3-37.35-10.37-10-20.8-19.98-31.3-29.95-27-25.77-54.43-50.93-82.3-75.5-34.2-30.17-66.48-62.17-96.85-96-6.5-7.2-13.53-13.78-21.1-19.75-8.07-6.33-16.35-10.9-24.85-13.7l-9.2,1.75m-68.15,466.95c-20.2-18.67-40.45-37.37-60.75-56.1-1.47-1.33-2.9-2.62-4.3-3.85-27.67-27.7-55.37-55.28-83.1-82.75-17.8-17.67-37.18-33.32-58.15-46.95l279.85-269.6,280.5,269.95-274.4,282.2c-22.73-33.83-49.28-64.8-79.65-92.9Z"/>
        <path class="cls-1" d="M470.36,662.75c20.3,18.73,40.55,37.43,60.75,56.1,30.37,28.1,56.92,59.07,79.65,92.9l274.4-282.2-280.5-269.95-279.85,269.6c20.97,13.63,40.35,29.28,58.15,46.95,27.73,27.47,55.43,55.05,83.1,82.75,1.4,1.23,2.83,2.52,4.3,3.85Z"/>
      </g>
    </g>
  </g>
  <g id="Keyframe_3" data-name="Keyframe 3">
    <g id="Arrows-3" data-name="Arrows">
      <g>
        <path d="M282.61,648.75l-.6,3.6,19.5,34.65c-13.83,4.43-26.47,11.03-37.9,19.8-1.87,1.47-3.7,2.98-5.5,4.55s-3.58,3.17-5.35,4.8l-.05,7.55,42.1,60.9,4.35-9.15,50.3-35.8c5.67,7.9,11.75,15.35,18.25,22.35,3.27,3.5,7.27,5.05,12,4.65,.7-.17,1.42-.32,2.15-.45,.7-.3,1.42-.58,2.15-.85,3.3-26.47,2.62-52.87-2.05-79.2-.33-1.9-.68-3.8-1.05-5.7-.37-1.9-.75-3.8-1.15-5.7l-97.15-26m32,46.55l-7.55-25.95,67.9,15.85-1.45,60.5-21.4-23.35-56.95,40.4-28.95-40.1,48.4-27.35m24.05-458l-2.3,5.2c-8.53,8.03-17.2,15.92-26,23.65-10.97,9.57-20.65,20.07-29.05,31.5-.7,.97-1.13,2.12-1.3,3.45-.23,2,.18,3.88,1.25,5.65l6.35-.2,70.85,43.3c-7.03,8.77-11.92,18.47-14.65,29.1-.1,.43-.08,.85,.05,1.25,1.3,3.97,1.48,7.97,.55,12,4.7,1.5,9.43,1.67,14.2,.5,12.73-3.3,25.42-6.88,38.05-10.75,7.37-2.13,14.67-4.58,21.9-7.35,5.17-1.97,10.22-4.17,15.15-6.6l-12.05-74.8c-7.77,.07-14.68,2.53-20.75,7.4-.93,.77-1.85,1.55-2.75,2.35-3.67,3.37-7.1,6.95-10.3,10.75l-41.3-72.5-7.9-3.9m49.5,93.25l3.95-.5,19.75-20,11.95,54.75-65.75,11.8,17.25-31.6-80.15-45.05,46.35-43.55c8.27,18.6,17.6,36.75,28,54.45,2.03,3.4,4.37,6.55,7,9.45,.87,.97,1.77,1.93,2.7,2.9,.93,.87,1.88,1.73,2.85,2.6,1,.83,2.02,1.65,3.05,2.45,1,.77,2.02,1.53,3.05,2.3m551.25,447.3l.4-8.3-59.25-49c5.77-4.57,10.73-9.87,14.9-15.9,.7-1,1.38-2.02,2.05-3.05,1.1-1.63,2.02-3.33,2.75-5.1,.27-.6,.48-1.23,.65-1.9,.1-.33,.17-.67,.2-1,.03-.37,.05-.72,.05-1.05,0-.73-.02-1.45-.05-2.15-8.43-2.8-17.82-3.88-28.15-3.25-7.43,.07-14.85,.55-22.25,1.45-5.57,.63-11.12,1.57-16.65,2.8-1.83,.43-3.65,.92-5.45,1.45-6.07,2-11.98,3.25-17.75,3.75l-2.4,79.6h12.85l.8-3.2,13.4-12,42,70.15,5.05,.5,56.85-53.8m-102.85-37.15l-15.75,11.4-6.1-43.5,64.2-8.25-9.75,22.45,52.05,51.7-38.05,39.35c-1.3-5.3-2.95-10.45-4.95-15.45-9.2-22.63-23.08-41.87-41.65-57.7m103.4-462.15l1.2,8.55-59,59.65-21.7-16c-5.23,10.63-8.55,21.8-9.95,33.5-1.87,15.5-.83,29.68,3.1,42.55,5.57,1.93,11.3,2.85,17.2,2.75,22.5-.4,44.72-1.08,66.65-2.05,.97,.07,1.97-.13,3-.6l3.8-8.45-14.4-27.15c.77-2.1,1.95-3.93,3.55-5.5,13.53-12.83,27.12-25.75,40.75-38.75,2.47-2.3,3.55-5.12,3.25-8.45l-21.85-36.55-15.6-3.5m19.95,45.4l-14.85,14.65-32.05,36.9,10.15,17.5-58.25-.75v-39.5l17.95,7.95,63.75-62.55,13.3,25.8Z"/>
        <path class="cls-2" d="M307.06,669.35l7.55,25.95-48.4,27.35,28.95,40.1,56.95-40.4,21.4,23.35,1.45-60.5-67.9-15.85m85.05-339.3l-3.95,.5c-1.03-.77-2.05-1.53-3.05-2.3-1.03-.8-2.05-1.62-3.05-2.45-.97-.87-1.92-1.73-2.85-2.6-.93-.97-1.83-1.93-2.7-2.9-2.63-2.9-4.97-6.05-7-9.45-10.4-17.7-19.73-35.85-28-54.45l-46.35,43.55,80.15,45.05-17.25,31.6,65.75-11.8-11.95-54.75-19.75,20m428.7,422.05l15.75-11.4c18.57,15.83,32.45,35.07,41.65,57.7,2,5,3.65,10.15,4.95,15.45l38.05-39.35-52.05-51.7,9.75-22.45-64.2,8.25,6.1,43.5m124.25-413.5l14.85-14.65-13.3-25.8-63.75,62.55-17.95-7.95v39.5l58.25,.75-10.15-17.5,32.05-36.9Z"/>
      </g>
    </g>
    <g id="Yellow-3" data-name="Yellow">
      <g>
        <path d="M282.36,47.4c-7.67-4.1-15.48-7.8-23.45-11.1-7.8-3.27-15.87-5.72-24.2-7.35C159.95,14.92,84.63,5.38,8.76,.35,5,4.18,2.63,8.67,1.66,13.8c-.2,1.07-.32,2.13-.35,3.2-.2,7.13-.45,14.33-.75,21.6-1.97,48.57,1.22,96.65,9.55,144.25l-2.45,2.95c-.17,.93-.13,1.83,.1,2.7,5.2,20.1,11.73,39.88,19.6,59.35,12.13,29.97,24.65,59.78,37.55,89.45,1.77,4.03,3.7,8.02,5.8,11.95,5.17,9.7,10.92,19.07,17.25,28.1,2.53,3.6,4.8,7.35,6.8,11.25,5.17,9.97,12.75,14.63,22.75,14,4.27-4,8.5-8.02,12.7-12.05,46.7-44.93,93.32-89.9,139.85-134.9,45.7-44.1,89.62-89.85,131.75-137.25,1.33-1.5,1.77-3.25,1.3-5.25l-11.7,3c-27.53-20.77-56.35-39.53-86.45-56.3-7.5-4.23-15.03-8.38-22.6-12.45m-7.85,18.4c34.73,20.8,70.25,40.08,106.55,57.85-18.7,17.23-37.03,34.8-55,52.7-3.6,3.57-7.17,7.17-10.7,10.8-16.8,17.47-33.87,34.68-51.2,51.65-3.37,3.33-6.77,6.6-10.2,9.8-6.9,6.4-13.87,12.73-20.9,19s-14.12,12.47-21.25,18.6c-18.73,16.07-36.67,32.93-53.8,50.6-16.03,16.57-30.73,34.08-44.1,52.55L16.66,192.85l2.05-3.3L15.51,13.55c32.27,2.5,64.53,5.02,96.8,7.55,32.23,2.6,64.48,5.22,96.75,7.85,1.93,.27,3.75,.88,5.45,1.85,20.13,11.4,40.13,23.07,60,35Z"/>
        <path class="cls-5" d="M381.06,123.65c-36.3-17.77-71.82-37.05-106.55-57.85-19.87-11.93-39.87-23.6-60-35-1.7-.97-3.52-1.58-5.45-1.85-32.27-2.63-64.52-5.25-96.75-7.85-32.27-2.53-64.53-5.05-96.8-7.55l3.2,176-2.05,3.3,97.25,196.5c13.37-18.47,28.07-35.98,44.1-52.55,17.13-17.67,35.07-34.53,53.8-50.6,7.13-6.13,14.22-12.33,21.25-18.6s14-12.6,20.9-19c3.43-3.2,6.83-6.47,10.2-9.8,17.33-16.97,34.4-34.18,51.2-51.65,3.53-3.63,7.1-7.23,10.7-10.8,17.97-17.9,36.3-35.47,55-52.7Z"/>
      </g>
    </g>
    <g id="Red-3" data-name="Red">
      <g>
        <path d="M1270.31,134.8c5.47-28.4,3.5-55.53-5.9-81.4l-198.5-3.8-2.25,4.15-191.2,102.1,1.45,4.5,7.05,2.25c37.2,40.87,75.9,80.18,116.1,117.95,11.77,11,23.12,22.4,34.05,34.2,26.9,29.03,54.35,57.6,82.35,85.7,9.03,9.07,18.18,17.95,27.45,26.65,6.43,6,13.67,9.37,21.7,10.1,4.73,.17,8.07-2.05,10-6.65,2.83-6.63,5.43-13.32,7.8-20.05,19.97-56.87,48.28-109.17,84.95-156.9-1.3-28.37-1.08-56.68,.65-84.95,.7-11.43,2.13-22.72,4.3-33.85m-12.3-70.2c-3.33,32.33-5.12,64.72-5.35,97.15-.07,7.3-.85,14.48-2.35,21.55-4.2,19.77-3.4,39.33,2.4,58.7,.37,1.2,.75,2.38,1.15,3.55,.4,1.13,.82,2.28,1.25,3.45-1.43,1.17-2.85,2.33-4.25,3.5-16.97,14.03-29.8,31.12-38.5,51.25-4.73,10.97-10.13,21.53-16.2,31.7-14.67,24.47-25.4,50.57-32.2,78.3-.47,1.97-.92,3.93-1.35,5.9-.43,1.97-.87,3.93-1.3,5.9-4.1-3.23-8.17-6.48-12.2-9.75-24.53-19.77-47.07-41.65-67.6-65.65-16.73-19.53-34.08-38.5-52.05-56.9-12.5-12.87-25.17-25.48-38-37.85-26.83-25.8-53.52-51.78-80.05-77.95-3.1-3.07-6.3-6.02-9.6-8.85-3.33-2.83-6.68-5.65-10.05-8.45l179.4-99.65,186.85,4.1Z"/>
        <path class="cls-3" d="M1252.66,161.75c.23-32.43,2.02-64.82,5.35-97.15l-186.85-4.1-179.4,99.65c3.37,2.8,6.72,5.62,10.05,8.45,3.3,2.83,6.5,5.78,9.6,8.85,26.53,26.17,53.22,52.15,80.05,77.95,12.83,12.37,25.5,24.98,38,37.85,17.97,18.4,35.32,37.37,52.05,56.9,20.53,24,43.07,45.88,67.6,65.65,4.03,3.27,8.1,6.52,12.2,9.75,.43-1.97,.87-3.93,1.3-5.9,.43-1.97,.88-3.93,1.35-5.9,6.8-27.73,17.53-53.83,32.2-78.3,6.07-10.17,11.47-20.73,16.2-31.7,8.7-20.13,21.53-37.22,38.5-51.25,1.4-1.17,2.82-2.33,4.25-3.5-.43-1.17-.85-2.32-1.25-3.45-.4-1.17-.78-2.35-1.15-3.55-5.8-19.37-6.6-38.93-2.4-58.7,1.5-7.07,2.28-14.25,2.35-21.55Z"/>
      </g>
    </g>
    <g id="Blue-3" data-name="Blue">
      <g>
        <path d="M1105.26,658.7l-8.85-7.25-1.85,13c-87.37,83.7-175.77,166.25-265.2,247.65-9.6,8.77-14.88,18.77-15.85,30,.23,.3,.5,.57,.8,.8,48.83,36.63,101.98,66.08,159.45,88.35,6.83,2.67,13.77,4.3,20.8,4.9,66.37,6.4,132.77,8.07,199.2,5,1.33-29.3,1.82-58.87,1.45-88.7-.4-32.73-.07-65.33,1-97.8,.5-14.97-3.43-28.7-11.8-41.2-10.27-15.4-20.02-31.12-29.25-47.15-19.83-34.33-36.47-70.2-49.9-107.6m-6.2,16.75c3.73,9.2,7.5,18.42,11.3,27.65,11.3,27.53,23.07,54.8,35.3,81.8,10.23,22.53,23.72,42.97,40.45,61.3-3.57,31.9-5.35,64.45-5.35,97.65,0,7-.15,13.95-.45,20.85-.23,5.1-.83,10.1-1.8,15-3.47,17.17-2.97,34.23,1.5,51.2l-179.9-1.15c-32.6-20.73-65.77-40.48-99.5-59.25-4.57-2.57-9.3-4.92-14.2-7.05-6.4-2.87-12.88-5.47-19.45-7.8-15.43-5.63-31.22-9.42-47.35-11.35,11.1-10.27,22.22-20.52,33.35-30.75,25.73-23.6,51.38-47.22,76.95-70.85,28.9-26.67,57.8-53.47,86.7-80.4,29.33-27.27,56.82-56.22,82.45-86.85Z"/>
        <path class="cls-6" d="M1110.36,703.1c-3.8-9.23-7.57-18.45-11.3-27.65-25.63,30.63-53.12,59.58-82.45,86.85-28.9,26.93-57.8,53.73-86.7,80.4-25.57,23.63-51.22,47.25-76.95,70.85-11.13,10.23-22.25,20.48-33.35,30.75,16.13,1.93,31.92,5.72,47.35,11.35,6.57,2.33,13.05,4.93,19.45,7.8,4.9,2.13,9.63,4.48,14.2,7.05,33.73,18.77,66.9,38.52,99.5,59.25l179.9,1.15c-4.47-16.97-4.97-34.03-1.5-51.2,.97-4.9,1.57-9.9,1.8-15,.3-6.9,.45-13.85,.45-20.85,0-33.2,1.78-65.75,5.35-97.65-16.73-18.33-30.22-38.77-40.45-61.3-12.23-27-24-54.27-35.3-81.8Z"/>
      </g>
    </g>
    <g id="Dark_Blue-3" data-name="Dark Blue">
      <g>
        <path d="M64.96,684.3c-6.27,10.97-12.07,22.3-17.4,34-10.53,23.1-20.12,46.62-28.75,70.55-3.07,8.5-4.92,17.2-5.55,26.1-1.73,25.07-2.17,50.35-1.3,75.85,1.07,31.87,2.1,63.42,3.1,94.65l4.45,8.3c59.63,.97,119.33,2,179.1,3.1,7.83,.13,15.4-1.02,22.7-3.45,64.33-21.8,124.58-52.23,180.75-91.3l.9-8.4-4.9,.85L118.36,612.3l-5.4,3.6c-1.63,1.93-3.25,3.88-4.85,5.85-16.13,19.53-30.52,40.38-43.15,62.55m-7.5,57.55c19.43-39.27,38.97-78.47,58.6-117.6,41.33,47.87,84.28,94.23,128.85,139.1,14.1,14.23,28.08,28.58,41.95,43.05,22.6,23.63,46.03,46.43,70.3,68.4,2.37,2.1,4.77,4.18,7.2,6.25,2.4,2,4.83,4,7.3,6,2.43,2,4.92,3.97,7.45,5.9,2.47,2,4.95,3.97,7.45,5.9l-166.65,85.35-3.75-2.2H26.56c-.87-57.2,2.27-113.88,9.4-170.05,3.07-23.93,10.23-47.3,21.5-70.1Z"/>
        <path class="cls-4" d="M116.06,624.25c-19.63,39.13-39.17,78.33-58.6,117.6-11.27,22.8-18.43,46.17-21.5,70.1-7.13,56.17-10.27,112.85-9.4,170.05H216.16l3.75,2.2,166.65-85.35c-2.5-1.93-4.98-3.9-7.45-5.9-2.53-1.93-5.02-3.9-7.45-5.9-2.47-2-4.9-4-7.3-6-2.43-2.07-4.83-4.15-7.2-6.25-24.27-21.97-47.7-44.77-70.3-68.4-13.87-14.47-27.85-28.82-41.95-43.05-44.57-44.87-87.52-91.23-128.85-139.1Z"/>
      </g>
    </g>
    <g id="Green-3" data-name="Green">
      <g>
        <path d="M608.46,250.15l-9.2,1.75c-.17,.83-.4,1.63-.7,2.4-.73,2.07-2,3.75-3.8,5.05-6.07,4.53-11.95,9.13-17.65,13.8-94.43,77.2-182.35,161-263.75,251.4l.9,7.55,288.25,288,2.2,6.05c3.43,.77,6.92,.95,10.45,.55,3.5-.47,6.63-1.78,9.4-3.95,33.63-26.33,63.83-56.42,90.6-90.25,20.47-25.8,42.58-50.05,66.35-72.75,11.77-11.3,23.43-22.68,35-34.15,19.53-19.43,38.15-39.73,55.85-60.9,4.43-5.3,9.17-10.23,14.2-14.8,7.97-7.17,12.45-15.37,13.45-24.6l-4.85-2.9c-8.57-13.67-18.67-26.12-30.3-37.35-30.4-29.53-61.45-58.33-93.15-86.4-28.3-24.97-55.67-50.93-82.1-77.9-7.97-8.1-15.47-16.58-22.5-25.45-16.03-20.13-35.58-35.18-58.65-45.15m-55.75,490.85c-28.03-28.3-56.92-55.67-86.65-82.1-29.8-29.87-59.85-59.5-90.15-88.9-15.7-15.2-32.73-28.8-51.1-40.8l279.85-269.6,280.5,269.95-274.4,282.2c-17.13-25.43-36.48-49.02-58.05-70.75Z"/>
        <path class="cls-1" d="M466.06,658.9c29.73,26.43,58.62,53.8,86.65,82.1,21.57,21.73,40.92,45.32,58.05,70.75l274.4-282.2-280.5-269.95-279.85,269.6c18.37,12,35.4,25.6,51.1,40.8,30.3,29.4,60.35,59.03,90.15,88.9Z"/>
      </g>
    </g>
  </g>
<style>
#Keyframe_3 {
	animation: Anim3 0.25s linear infinite;
}
#Keyframe_2 {
	animation: Anim2 0.25s linear infinite;
}
#Keyframe_1 {
	animation: Anim1 0.25s linear infinite;
}
@keyframes Anim1 {
	0% {opacity: 1}
	33.399% {opacity: 1}
	33.4% {opacity: 0}
	100% {opacity: 0}
}
@keyframes Anim2 {
	0% {opacity: 0}
	33.399% {opacity: 0}
	33.4% {opacity: 1}
	66.699% {opacity: 1}
	66.7% {opacity: 0}
}
@keyframes Anim3 {
	0% {opacity: 0}
	66.699% {opacity: 0}
	66.7% {opacity: 1}
	100% {opacity: 1}
}

</style>
</svg>