
<svg xmlns="http://www.w3.org/2000/svg" version="1.1" xmlns:xlink="http://www.w3.org/1999/xlink" preserveAspectRatio="none" x="0px" y="0px" width="1834px" height="477px" viewBox="0 0 1834 477">
<defs>
<g id="FlxAnimateFlash_0_Layer1_0_FILL">
<path fill="#000000" stroke="none" d="
M 328.6 219.3
Q 328.5 219.15 328.4 219 327.75 218.7 327.1 218.4 321.65 216 317.1 212.45 308.5 205.8 299.6 199.8 296.3 197.5 292.75 195.55 280.8 189 271.25 179.55 271.8 178.75 272.4 178.05 276.05 173.75 272.35 169.75
L 269.45 168.65 266.5 169.75
Q 265.9 170.3 265.35 170.95 264.1 172.5 262.6 173.7 257.15 177.95 252.2 182.8 244.05 190.7 235.3 198.25 232.8 200.45 230.55 202.75 224.25 209 217.2 214.9 213.9 217.7 210.85 220.65 200.85 230.4 188.85 238.65 185.9 240.65 182.85 242.45 175.2 247.25 170.4 254.25 170.4 254.45 170.4 254.7 170.4 255 170.4 255.3 170.3 255.6 170.2 255.9 170.2 256.2 170.2 256.5 170.2 256.8 170.2 257.1 170.1 257.4 170 257.7 169.8 258 169.6 258.3 169.5 258.6 169.4 258.9 169.3 259.2 169.2 259.5 169.1 259.8 169 260.1 169 260.4 169 260.7 169 260.8 169 260.95
L 172.95 264
Q 172.75 265.3 173.3 266.25 177.65 273.4 183 280.05 197.8 298.2 212.85 315.9 215.8 319.35 219.05 322 228.05 329.25 233.4 338.95
L 251.75 358.65 251.75 360.3
Q 257.7 365.8 263.45 371.8 264.65 373.05 265.85 374.05 266.3 374.05 266.8 374.1 267.6 374.2 268.4 374.3 268.7 374.4 269 374.5 269.7 374.5 270.4 374.5 270.7 374.5 271 374.5 271.7 374.6 272.4 374.7 272.9 374.8 273.4 374.9 273.7 374.9 274 374.9 275.6 374.9 277.2 374.9 277.6 374.9 278 374.9 278.8 374.75 279.65 374.6 279.7 374.55 279.8 374.5 280.3 374.2 280.8 373.9 281.5 373.6 282.2 373.3 282.7 373.1 283.2 372.95
L 283.35 370.95 303.1 352.65 322.55 327.95 355.6 296.75 379.55 281.5
Q 379.7 281.3 379.8 281.1 380 280.8 380.2 280.5 380.4 280.2 380.6 279.9 380.9 279.6 381.2 279.3 381.3 279 381.4 278.7 381.6 278.4 381.8 278.1 382.1 277.8 382.4 277.5 382.7 277.2 383 276.9 383.1 276.6 383.2 276.3 383.3 276 383.4 275.7 383.5 275.4 383.6 275.1 383.8 274.8 384 274.5 384.1 274.35 384.2 274.2 384.2 274.15 384.2 274.1 384.1 273.8 384 273.5 383.9 273.2 383.8 272.9 383.6 272.6 383.4 272.3 383.3 272 383.2 271.7 383.1 271.4 383 271.1 382.9 270.8 382.8 270.5 382.7 270.2 382.6 269.9 382.4 269.6 382.2 269.3 382.15 269.25 382.15 269.2 382.05 269.15 382 269.1 381.6 268.8 381.2 268.5 380.8 268.2 380.4 267.9 380.1 267.6 379.8 267.3 379.4 267 379 266.7 378.6 266.4 378.2 266.1 377.8 265.8 377.4 265.5 377.1 265.2 376.8 264.9 376.4 264.6 376 264.3 375.6 264 375.2 263.7 374.8 263.4 374.4 263.1 374.1 262.8 373.8 262.5 373.5 262.2 373.2 261.9 372.9 261.6 372.6 261.3 372.3 261 372 260.7 371.6 260.4 371.2 260.1 370.8 259.8 370.4 259.5 370.1 259.2 369.8 258.9 369.4 258.6 369 258.3 368.7 258 368.4 257.7 368.1 257.4 367.8 257.1 367.4 256.8 367 256.5 366.7 256.2 366.4 255.9 366 255.6 365.6 255.3 365.2 255 364.8 254.7 364.5 254.4 364.2 254.1 363.9 253.8 363.6 253.5 363.3 253.2 363 252.9 362.7 252.6 362.4 252.3 362 252 361.6 251.7 361.2 251.4 360.8 251.1 360.4 250.8 360 250.5 359.7 250.2 359.4 249.9 359 249.6 358.6 249.3 358.2 249 357.8 248.7 357.5 248.4 357.2 248.1 356.8 247.8 356.4 247.5 356 247.2 355.6 246.9 355.3 246.6 355 246.3 354.7 246 354.4 245.7 354.1 245.4 353.8 245.1 353.5 244.8 353.2 244.5 352.9 244.2 352.6 243.9 352.3 243.6 352 243.3 351.7 243 351.4 242.7 351 242.4 350.6 242.1 350.3 241.8 350 241.5 349.7 241.2 349.4 240.9 349.1 240.6 348.8 240.3 348.5 240 348.2 239.7 347.9 239.4 347.6 239.1 347.3 238.8 347 238.5 346.7 238.2 346.4 237.9 346.2 237.6 346 237.3 345.7 237 345.4 236.7 345.2 236.4 345 236.1 344.7 235.8 344.4 235.5 344.1 235.2 343.8 234.9 343.5 234.6 343.2 234.3 342.9 234 342.6 233.7 342.3 233.4 342 233.1 341.7 232.8 341.4 232.5 341.1 232.2 340.8 231.9 340.5 231.6 340.2 231.3 339.9 231 339.6 230.7 339.3 230.4 339 230.1 338.8 229.8 338.6 229.5 338.3 229.2 338 228.9 337.7 228.6 337.4 228.3 337.1 228 336.8 227.7 336.5 227.4 336.2 227.1 335.9 226.8 335.6 226.5 335.3 226.2 335 225.9 334.7 225.6 334.4 225.3 334.1 225 333.8 224.7 333.6 224.4 333.4 224.1 333.1 223.8 332.8 223.5 332.5 223.2 332.2 222.9 331.9 222.6 331.6 222.3 331.3 222 331 221.7 330.7 221.4 330.4 221.1 330.1 220.8 329.8 220.5 329.5 220.2 329.2 219.9 328.9 219.6 328.6 219.3
M 335.45 241.15
Q 335.55 241.25 335.6 241.3 335.9 241.6 336.2 241.9 336.4 242.2 336.6 242.5 336.9 242.8 337.2 243.1 337.5 243.4 337.8 243.7 338.1 244 338.4 244.3 338.8 244.6 339.2 244.9 339.7 245.2 340.2 245.5 340.3 245.8 340.4 246.1 340.6 246.4 340.8 246.7 341 247 341.2 247.3 341.5 247.6 341.8 247.9 342 248.2 342.2 248.5 342.5 248.8 342.8 249.1 343.1 249.4 343.4 249.7 343.7 250 344 250.3 344.2 250.6 344.4 250.9 344.7 251.2 345 251.5 345.3 251.8 345.6 252.1 345.8 252.4 346 252.7 346.3 253 346.6 253.3 346.8 253.6 347 253.9 347.2 254.2 347.4 254.5 347.7 254.8 348 255.1 348.2 255.4 348.4 255.7 348.5 256 348.6 256.3 348.9 256.6 349.2 256.9 349.5 257.2 349.8 257.5 350.1 257.8 350.4 258.1 350.7 258.4 351 258.7 351.3 259 351.6 259.3 351.9 259.6 352.2 259.9 352.5 260.2 352.8 260.5 353.1 260.8 353.4 261.1 353.6 261.4 353.8 261.7 354.1 262 354.4 262.3 354.7 262.6 355 262.9 355.3 263.2 355.6 263.5 355.9 263.8 356.2 264.1 356.5 264.4 356.8 264.7 357.1 265 357.4 265.3 357.7 265.6 358 265.9 358.3 266.2 358.6 266.5 359 266.8 359.4 267.1 359.7 267.4 360 267.7 360.3 268 360.6 268.3 360.8 268.6 361 268.9 361.2 269.2 361.4 269.5 361.7 269.8 362 270.1 362.3 270.4 362.6 270.7 363 271 363.4 271.3 363.7 271.6 364 271.9 364.2 272.2 364.4 272.5 364.7 272.8 365 273.1 365.3 273.4 365.6 273.7 365.8 274 366 274.3 366.3 274.6 366.6 274.9 366.85 275.15 367.1 275.4 366.75 275.65 366.4 275.9 365.8 276.2 365.2 276.5 364.8 276.8 364.4 277.1 364.1 277.4 363.8 277.7 363.5 278 363.2 278.3 363 278.6 362.8 278.9 362.6 279.2 362.4 279.5 362.2 279.8 362 280.1 361.7 280.4 361.4 280.7 361 281 360.6 281.3 360.3 281.6 360 281.9 359.6 282.2 359.2 282.5 358.8 282.8 358.4 283.1 358 283.4 357.6 283.7 357.3 284 357 284.3 356.7 284.6 356.4 284.9 356.1 285.2 355.8 285.5 355.6 285.8 355.4 286.1 355.1 286.4 354.8 286.7
L 354.75 286.75
Q 353.15 287.7 351.6 288.7 348.35 290.7 345.2 292.85 331.05 302.75 318.95 315.35 297.8 337.3 275.65 358.4 272.3 355.25 268.65 352.3 264.65 349.1 261.05 345.1 260 343.85 258.9 342.7 243.6 326.45 227.25 311.3 225.15 309.35 223.25 307.3 213.45 296.45 203.45 286.25 192.35 274.85 181.45 263.35
L 179.7 261.75
Q 182.35 260.1 184.95 258.3 211.25 240.2 233.95 217.3 245.55 205.55 257.65 194.4
L 264.7 186.2
Q 265.55 185.45 266.5 185.1 266.7 185.15 267.05 185.6
L 273 193.85
Q 275.65 195.5 278 197.5 280.6 199.7 283.15 201.9 298.4 215.2 314.85 226.75 325 233.9 335.45 241.15
M 521.5 -2.7
Q 521.2 -2.75 520.95 -2.85
L 508.9 1.8
Q 478.35 13.05 447.05 22.9 424.05 30.05 403.9 42.95 401.6 44.4 399.15 45.4 391.4 48.5 389.1 55.1 387.75 54.85 386.45 55.15 386.15 55.45 385.9 55.7 385.6 56 385.3 56.3 385.1 56.6 384.9 56.9 384.6 57.2 384.3 57.5 384.1 57.8 383.9 58.1 383.7 58.4 383.5 58.7 383.2 59 382.9 59.3 382.6 59.6 382.3 59.9 382 60.2 381.7 60.5 381.4 60.8 381.1 61.1 380.7 61.4 380.3 61.7 379.9 61.7 379.5 61.7 379.3 61.4 379.1 61.1 379.2 60.85 379.25 60.65 356.15 83.35 334.95 107.85
L 334.5 111.8
Q 334.9 111.95 335.3 112.1 335.4 112.2 335.45 112.35 335 112.6 334.5 112.9 334.2 113.2 333.9 113.5 333.6 113.8 333.3 114.1 333.2 114.4 333.1 114.7 332.9 115 332.7 115.3 332.4 115.6 332.1 115.9 331.9 116.2 331.7 116.5 331.5 116.8 331.3 117.1 331.3 117.4 331.3 117.7 331.1 118 330.9 118.3 330.8 118.6 330.7 118.9 330.6 119.2 330.5 119.5 330.4 119.8 330.3 120.1 330.3 120.4 330.3 120.7 330.3 120.9 330.3 121.1 330.1 121.4 329.9 121.7 329.8 122 329.7 122.3 329.7 122.5 329.7 122.7 329.75 122.85 329.8 123 329.75 123.05 329.7 123.1 329.6 123.4 329.5 123.7 329.5 124 329.5 124.3 329.5 124.6 329.5 124.9 329.5 125.2 329.5 125.5 329.6 125.8 329.7 126.1 329.8 126.4 329.9 126.7 330 127 330.1 127.3 330.2 127.4 330.35 127.55 330.2 127.7 330.1 127.9 330.05 127.95 330.05 128 332.95 130.85 336.35 133.25 363.8 152.2 389.1 174.6 390.95 176.2 392.25 178.15 394.2 181.05 397.1 183.45 412.6 196.35 426.6 211.45 428.35 213.35 430.05 215.35 437.25 223.6 445.95 217.85
L 446.7 216.05 448.9 215.35 449.15 215.65
Q 449.25 215.6 449.3 215.5 449.6 215.2 449.9 214.9 450.3 214.6 450.7 214.3 451 214 451.3 213.7 451.8 213.4 452.3 213.1 452.7 212.8 453.1 212.5 453.4 212.2 453.7 211.9 454 211.6 454.3 211.3 454.6 211 454.9 210.7 455.2 210.4 455.5 210.1 455.8 209.8 456.1 209.5 456.4 209.2 456.7 208.9 457.1 208.6 457.5 208.3 457.9 208 458.3 207.7 458.5 207.55 458.75 207.45 458.85 206.25 458.85 204.95 473.3 185.85 489.2 168.95 490.3 167.8 491.45 166.7 504.8 154.4 516.3 141.15 517 140.95 517.6 140.7 517.65 140.5 517.7 140.3 517.7 140 517.7 139.7 517.8 139.4 517.9 139.1 518.1 138.8 518.3 138.5 518.3 138.2 518.3 137.9 518.4 137.6 518.5 137.3 518.7 137 518.9 136.7 519 136.4 519.1 136.1 519.2 135.8 519.3 135.5 519.5 135.2 519.7 134.9 519.8 134.6 519.9 134.3 520 134 520.1 133.7 520.2 133.4 520.3 133.1 520.4 132.8 520.5 132.5 520.7 132.2 520.9 131.9 521 131.6 521.1 131.3 521.3 131 521.5 130.7 521.7 130.4 521.9 130.1 522 129.8 522.1 129.5 522.3 129.2 522.5 128.9 522.6 128.6 522.7 128.3 522.9 128 523.1 127.7 523.2 127.4 523.3 127.1 523.3 126.8 523.3 126.5 523.4 126.2 523.5 125.9 523.6 125.6 523.7 125.3 523.8 125 523.9 124.7 524 124.4 524.1 124.1 524.2 123.8 524.3 123.5 524.3 123.2 524.3 122.9 524.4 122.6 524.5 122.3 524.6 122 524.7 121.7 524.8 121.4 524.9 121.1 524.95 121 524.95 120.95 524.95 120.55 524.9 120.15 524.45 114.35 525.3 108.25 527.7 91.35 529.9 74.25 532.9 51.1 533.75 28.05 534.15 17.4 537.4 7.45 537.35 7.35 537.3 7.3 537.2 7 537.1 6.7 537 6.4 536.9 6.1 536.8 5.8 536.7 5.5 536.6 5.2 536.5 4.9 536.4 4.6 536.3 4.3 536.2 4 536.1 3.7 535.9 3.4 535.7 3.1 535.5 2.8 535.3 2.5 535.1 2.2 534.9 1.9 534.8 1.6 534.7 1.3 534.6 1 534.5 0.7 534.5 0.65 534.5 0.55 533.9 0.35 533.3 0.1 532.8 -0.1 532.3 -0.3 532.1 -0.4 531.9 -0.5 531.2 -0.7 530.5 -0.9 529.9 -1.1 529.3 -1.3 529 -1.4 528.7 -1.5 528.3 -1.6 527.9 -1.7 527.5 -1.8 527.1 -1.9 526.4 -2.1 525.7 -2.3 525.6 -2.3 525.5 -2.3 525 -2.4 524.5 -2.5 523 -2.6 521.5 -2.7
M 518.95 15.55
Q 526.2 13 527.2 14.15
L 506.4 132.6
Q 490.6 148.2 476.9 164.6 467.85 175.4 460.75 187.4 454.45 198.15 444.85 206.45 439.5 202.85 434.25 198.9 432.05 197.25 430.15 195.45 410.6 176.9 389.8 160.5 365.8 141.7 338.9 126.65 341.7 125.9 342.65 122.15 343.55 118.45 344.35 114.75
L 366.45 92.75
Q 366.55 92.5 366.7 92.3 366.9 92 367.1 91.7 367.4 91.4 367.7 91.1 367.9 90.8 368.1 90.5 368.4 90.2 368.7 89.9 369 89.6 369.3 89.3 369.6 89 369.9 88.7 370.1 88.4 370.3 88.1 370.5 87.8 370.7 87.5 370.9 87.2 371.1 86.9 371.4 86.6 371.7 86.3 371.9 86 372.1 85.7 372.4 85.4 372.7 85.1 373.2 84.8 373.7 84.5 373.9 84.2 374.1 83.9 374.4 83.6 374.7 83.3 374.9 83 375.1 82.7 375.3 82.4 375.5 82.1 375.8 81.8 376.1 81.5 376.3 81.2 376.5 80.9 376.6 80.6 376.7 80.3 376.9 80 377.1 79.7 377.4 79.4 377.7 79.1 377.9 78.8 378.1 78.5 378.4 78.2 378.7 77.9 379 77.6 379.3 77.3 379.7 77 380.1 76.7 380.3 76.4 380.5 76.1 380.7 75.8 380.9 75.5 381.1 75.2 381.3 74.9 381.6 74.6 381.9 74.3 382.1 74 382.3 73.7 382.6 73.4 382.9 73.1 383.2 72.8 383.5 72.5 383.8 72.2 384.1 71.9 384.4 71.6 384.7 71.3 385.1 71 385.5 70.7 385.8 70.4 386.1 70.1 386.5 69.8 386.9 69.5 387.2 69.2 387.5 68.9 388 68.6 388.5 68.3 388.9 68 389.3 67.7 389.7 67.4 390.1 67.1 390.5 66.8 390.9 66.5 391.2 66.2 391.5 65.9 391.8 65.6 392.1 65.3 392.4 65 392.7 64.7 393 64.4 393.3 64.1 393.8 63.8 394.3 63.5 394.85 63.25 395.4 63.05 395.5 60.85 394.9 58.5 417 45.9 441.6 39.35 480.65 28.85 518.95 15.55
M 51.7 -14.4
Q 51.35 -14.15 51 -13.9 50.7 -13.6 50.4 -13.3 50.1 -13 49.8 -12.7 49.4 -12.4 49 -12.1 48.8 -11.8 48.6 -11.5 48.3 -11.2 48 -10.9 47.8 -10.6 47.6 -10.3 47.5 -10 47.4 -9.7 47.2 -9.4 47 -9.1 46.9 -8.8 46.8 -8.5 46.8 -8.2 46.8 -7.9 46.7 -7.6 46.6 -7.3 46.4 -7 46.2 -6.7 46.1 -6.4 46 -6.1 46 -5.8 46 -5.5 45.9 -5.2 45.8 -4.9 45.7 -4.6 45.6 -4.3 45.6 -4 45.6 -3.7 45.5 -3.4 45.4 -3.1 45.3 -2.8 45.2 -2.5 45.2 -2.2 45.2 -1.9 45.1 -1.6 45 -1.3 45 -1 45 -0.7 44.95 -0.55 44.9 -0.35 43.95 11.9 43.7 24.3 43.5 34.65 43.35 44.95 43.75 45.1 44.2 45.3 44.4 45.6 44.6 45.9 44.7 46.2 44.8 46.5 44.8 46.8 44.8 47.1 44.8 47.4 44.8 47.7 44.8 48 44.8 48.3 44.8 48.6 44.8 48.9 44.7 49.2 44.6 49.5 44.6 49.8 44.6 50.1 44.5 50.4 44.4 50.7 44.3 51 44.2 51.3 44.1 51.6 44 51.9 43.9 52.2 43.8 52.5 43.7 52.8 43.6 53.1 43.4 53.4 43.2 53.7 43.2 54 43.2 54.3 43.2 54.35 43.15 54.35 43 62.4 42.9 70.4 42.65 84.3 42.1 98.05 42.25 98.2 42.4 98.3 42.5 98.6 42.6 98.9 42.6 99.2 42.6 99.5 42.5 99.8 42.4 100.1 42.3 100.4 42.2 100.7 42.1 101 42 101.3 41.9 101.5 41.75 101.7 41.65 102.35 41.5 103 41.4 103.5 41.3 104 41.35 104.15 41.4 104.3 41.4 104.6 41.4 104.9 41.4 105.2 41.4 105.5 41.4 105.8 41.4 106.1 41.4 106.4 41.4 106.7 41.5 107 41.6 107.3 41.6 107.6 41.6 107.9 41.7 108.2 41.8 108.5 41.8 108.8 41.8 109.1 41.9 109.4 42 109.7 42 110 42 110.3 42.1 110.6 42.2 110.9 42.3 111.2 42.4 111.5 42.4 111.8 42.4 112.1 42.4 112.4 42.4 112.7 42.4 113 42.4 113.3 42.5 113.6 42.6 113.9 42.7 114.2 42.8 114.5 42.8 114.8 42.8 115.1 42.8 115.4 42.8 115.7 42.9 116 43 116.3 43 116.6 43 116.9 43.1 117.2 43.2 117.5 43.3 117.8 43.4 118.1 43.4 118.4 43.4 118.7 43.5 119 43.6 119.3 43.6 119.6 43.6 119.9 43.7 120.2 43.8 120.5 43.9 120.8 44 121.1 44.1 121.4 44.2 121.7 44.2 122 44.2 122.3 44.4 122.6 44.6 122.9 44.7 123.2 44.8 123.5 44.8 123.8 44.8 124.1 44.9 124.4 45 124.7 45.1 125 45.2 125.3 45.2 125.6 45.2 125.9 45.3 126.2 45.4 126.5 45.4 126.8 45.4 127.1 45.5 127.4 45.6 127.7 45.7 128 45.8 128.3 45.8 128.6 45.8 128.9 45.9 129.2 46 129.5 46 129.8 46 130.1 46.05 130.25 46.1 130.4 46.15 130.45 46.2 130.5 46.4 130.8 46.6 131.1 46.8 131.4 47 131.7 47.2 132 47.4 132.3 47.6 132.6 47.8 132.9 47.9 133.2 48 133.5 48.2 133.8 48.4 134.1 48.5 134.4 48.6 134.7 48.8 135 49 135.3 49.1 135.6 49.2 135.9 49.3 136.2 49.4 136.5 49.6 136.8 49.8 137.1 49.9 137.4 50 137.7 50.2 138 50.4 138.3 50.4 138.6 50.4 138.9 50.7 139.2 51 139.5 51.3 139.8 51.6 140.1 51.8 140.3 52.05 140.55
L 53 140.2
Q 59.55 151.05 66.45 161.45 70 166.75 72.75 172.25 81.7 190.25 91.6 207 91.6 206.95 91.6 206.9 91.85 207 92.1 207.1 92.25 207.25 92.4 207.4 92.5 207.55 92.6 207.7 92.6 207.85 92.6 208 92.6 208.15 92.6 208.3 92.6 208.45 92.6 208.6 92.6 208.65 92.6 208.7 92.75 208.95 92.9 209.25 92.6 209.35 92.35 209.45
L 92.3 209.5
Q 92.3 209.65 92.3 209.8 92.25 209.95 92.2 210.1 92.15 210.25 92.1 210.4 92.1 210.55 92.1 210.7 92.1 210.85 92.1 211 92.15 211.15 92.2 211.3 92.2 211.45 92.2 211.6 92.2 211.75 92.2 211.9 92.2 212.05 92.2 212.2 92.25 212.35 92.3 212.5 92.35 212.65 92.4 212.8 92.45 212.95 92.5 213.1 92.55 213.2 92.55 213.25 92.7 213.4 92.8 213.5 93 213.8 93.2 214.1 93.4 214.4 93.6 214.7 93.8 215 94 215.3 94.3 215.6 94.6 215.9 94.9 216.2 95.2 216.5 95.3 216.6 95.4 216.7 95.6 216.9 95.8 217.1
L 95.85 217.15
Q 96.5 217.2 97.2 217.3 97.5 217.4 97.8 217.5 98.4 217.5 99 217.5 100.85 217.4 102.65 217.35 106 214.95 108.85 211.6
L 115.3 205.7
Q 119.45 203.8 123.05 201.1 127.5 197.85 131.7 194.2 135.2 191.15 138.95 188.65 159.15 175.15 178.55 161.05 181.2 159.1 183.85 157.15 208.1 138.9 232 120.2 233.6 121.05 235 121.45 235.1 121.25 235.2 121.1 235.3 120.8 235.4 120.5 235.6 120.2 235.8 119.9 235.8 119.6 235.8 119.3 235.9 119 236 118.7 236.1 118.4 236.2 118.1 236.3 117.8 236.4 117.5 236.5 117.2 236.6 116.9 236.8 116.6 237 116.3 237.1 116 237.2 115.7 237.4 115.4 237.6 115.1 237.8 114.8 238 114.5 238.1 114.2 238.2 113.9 238.3 113.6 238.4 113.3 238.5 113 238.6 112.7 238.7 112.4 238.8 112.1 238.8 111.8 238.8 111.5 238.9 111.2 239 110.9 239.1 110.6 239.2 110.3 239.3 110 239.4 109.7 239.5 109.4 239.6 109.1 239.65 108.95 239.7 108.85
L 211.95 61.95
Q 211.95 60.45 212.2 59.05 212.6 57.05 212.6 55.3 212.4 55.1 212.2 54.9 212 54.6 211.8 54.3 211.5 54 211.2 53.7 210.9 53.4 210.6 53.1 210.3 52.8 210 52.5 209.7 52.2 209.4 51.9 209.3 51.6 209.2 51.3 209 51 208.8 50.7 208.6 50.4 208.4 50.1 208.1 49.8 207.8 49.5 207.5 49.2 207.2 48.9 206.9 48.6 206.6 48.3 206.3 48 206 47.7 205.7 47.4 205.4 47.1 205.3 46.8 205.2 46.5 205 46.2 204.8 45.9 204.6 45.6 204.4 45.3 204.4 45.25 204.4 45.2
L 202.45 46.65
Q 178.85 35.95 154.45 27.25 150.25 25.75 146.35 23.75 119.7 9.6 91.6 -2.2 88.55 -3.45 85.4 -4.15 78.2 -6 71.5 -8.65 61.5 -12.6 54.85 -10.9
L 51.7 -14.4
M 54.85 -3.45
Q 55.75 -4.15 60.5 -2.6 72.7 1.3 84.45 5.8 90.25 8.15 95.8 10.8 117.2 21.1 137.55 33.8 139.8 35.2 142.25 36.2 148.35 38.6 154.3 41.5 178.9 53.35 202 64.45
L 226.8 110.55
Q 216.1 117.25 206.1 124.9 203.5 126.85 201.05 128.95 190.15 138.25 178.15 146.05 155.25 161.1 133.1 177.35 126.1 182.55 118.85 187.2 112.1 191.4 106.9 197.2 103.1 201.5 100.45 199.75
L 81.1 165.55 56.15 134
Q 56.3 132.15 56.65 130.3 57.05 128.1 56.7 126 55.65 120.2 56.3 114.05 56.55 111.8 56.65 109.5 57.95 84.4 57.15 59 56.2 27.7 54.85 -3.45
M 75 345.7
Q 74.7 346 74.4 346.3 74 346.6 73.6 346.9 73.3 347.2 73 347.5 72.7 347.8 72.4 348.1 72.1 348.4 71.8 348.7 71.4 349 71 349.3 70.65 349.55 70.3 349.85 70.15 349.75 70 349.7 70 349.8 70 349.9 69.6 349.9 69.2 349.9 68.9 350.1 68.6 350.3 68.3 350.6 68 350.9 67.7 351.2 67.4 351.5 67.1 351.8 66.8 352.1 66.5 352.4 66.2 352.7 65.9 353 65.6 353.3 65.2 353.6 64.8 353.9 64.2 354.2 63.6 354.5 63.3 354.8 63 355.1 62.8 355.4 62.6 355.7 62.4 356 62.2 356.3 62.1 356.6 62 356.9 61.8 357.2 61.6 357.5 61.5 357.65 61.4 357.85 61 358.05 60.6 358.3 60.2 358.6 59.8 358.9 59.4 359.2 59 359.5 58.7 359.8 58.4 360.1 58.1 360.3 57.8 360.5 57.5 360.8 57.2 361.1 57 361.4 56.8 361.7 56.4 362 56 362.3 55.6 362.6 55.2 362.9 54.9 363.2 54.6 363.5 54.3 363.8 54 364.1 53.7 364.4 53.4 364.7 53 365 52.6 365.3 52 365.6 51.4 365.9 50.9 366.2 50.4 366.5 50.1 366.8 49.8 367.1 49.5 367.4 49.2 367.7 48.9 368 48.6 368.3 48.3 368.6 48 368.9 47.7 369.2 47.4 369.5 46.9 369.8 46.4 370.1 46 370.4 45.6 370.7 45.3 371 45 371.3 44.7 371.6 44.4 371.9 44.1 372.2 43.8 372.5 43.4 372.8 43 373.1 42.6 373.4 42.2 373.7 41.9 374 41.6 374.3 41.3 374.6 41 374.9 40.7 375.2 40.4 375.5 40.1 375.8 39.8 376.1 39.5 376.4 39.2 376.7 38.9 377 38.6 377.3 38.2 377.6 37.8 377.9 37.4 378.2 37 378.5 36.7 378.8 36.4 379.1 36.1 379.4 35.8 379.7 35.6 380 35.4 380.3 35.2 380.6 35 380.9 34.9 381.2 34.8 381.5 34.7 381.8 34.6 382.1 34.6 382.2 34.6 382.3 34.5 382.4 34.4 382.5 34.25 382.65 34.1 382.8 34.05 382.95 34 383.1 33.9 383.25 33.8 383.4 33.75 383.55 33.7 383.7 33.6 383.85 33.5 384 33.35 384.15 33.2 384.3 33.1 384.45 33 384.6 32.9 384.75 32.8 384.9 32.7 385.05 32.6 385.2 32.55 385.35 32.5 385.5 32.4 385.65 32.3 385.8 32.25 385.95 32.2 386.1 32.15 386.25 32.1 386.4 32 386.55 31.9 386.7 31.9 386.8 31.85 386.85 31.85 386.9 31.8 386.9 31.6 387.2 31.4 387.5 31.2 387.8 31 388.1 30.8 388.4 30.6 388.7 30.4 389 30.35 389.45 30.25 389.85 28.9 396.4 27.5 402.9 26.3 407.5 25.1 412.05 24.25 415.7 20.75 430.1 17.25 444.5 11.3 468.95 5.55 493.45 2.35 507.2 0.05 521.15 -0.15 522.4 0.25 523.8
L 0.35 523.85
Q 0.3 523.95 0.3 524 0.35 524.15 0.4 524.3 0.45 524.45 0.5 524.6 0.6 524.75 0.7 524.9 0.85 525.05 1 525.2 1.15 525.35 1.3 525.5 1.65 525.6 2 525.7 2.1 525.7 2.2 525.75
L 2.2 525.8
Q 2.25 525.95 2.3 526.1 2.45 526.25 2.6 526.4 2.9 526.5 3.2 526.6 3.25 526.6 3.3 526.6 3.5 526.55 3.7 526.5 4.05 526.4 4.4 526.3 4.85 526.15 5.3 526 5.45 525.95 5.6 525.9 5.65 525.9 5.7 525.9 5.95 525.85 6.2 525.8 6.3 525.75 6.4 525.7 6.5 525.65 6.55 525.6 6.75 525.55 6.9 525.5 7.15 525.4 7.4 525.3 7.7 525.25 8 525.2 8.25 525.1 8.5 525 8.85 524.9 9.2 524.8 9.6 524.75 10 524.7 10.25 524.65 10.5 524.6 10.85 524.55 11.2 524.5 12 524.45 12.8 524.4 12.95 524.4 13.1 524.4 13.35 524.35 13.6 524.3 13.75 524.25 13.9 524.2 14.2 524.1 14.5 524 14.9 523.9 15.3 523.8 15.45 523.8 15.6 523.8 16.2 523.8 16.8 523.8 17.05 523.75 17.3 523.7 17.45 523.65 17.6 523.6 17.85 523.55 18.1 523.5 18.65 523.5 19.2 523.5 21.35 523.55 23.5 523.6 26.35 523.65 29.2 523.7 30.95 523.7 32.7 523.7 34.15 523.65 35.6 523.6 35.85 523.55 36.1 523.5 36.3 523.45 36.5 523.4 36.7 523.35 36.9 523.3 37.1 523.25 37.3 523.2 38.25 523.15 39.2 523.1 39.55 523 39.9 522.9 40.2 522.8 40.5 522.7 40.7 522.65 40.9 522.6 41.05 522.55 41.2 522.55 42.4 522.45 43.55 522.4 49.95 521.65 56.4 520.9 80.65 517.3 104.35 512.15 116.5 509.55 129.25 508.55 147.95 507.65 166.5 504.45
L 167.1 505.15
Q 167.35 505.05 167.6 504.9 168.2 504.7 168.8 504.5 169.6 504.2 170.4 503.9 170.8 503.7 171.2 503.5 171.55 503.35 171.9 503.25
L 171.9 503.3
Q 172.05 503.45 172.2 503.6 172.5 503.7 172.8 503.8 172.85 503.8 172.9 503.8 173.1 503.75 173.3 503.7 173.45 503.6 173.6 503.5 173.8 503.35 174 503.2 174.25 503.05 174.5 502.9 174.65 502.75 174.8 502.6 175 502.45 175.2 502.3 175.45 502.15 175.7 502 175.85 501.85 176 501.7 176.15 501.55 176.3 501.4 176.4 501.25 176.5 501.1 176.7 500.95 176.9 500.8 177.1 500.65 177.3 500.5 177.45 500.35 177.6 500.2 177.75 500.05 177.9 499.9 178.05 499.75 178.2 499.6 178.3 499.45 178.4 499.3 178.55 499.15 178.7 499 178.85 498.85 179 498.7 179.15 498.55 179.3 498.4 179.45 498.45 179.6 498.5 179.85 498.45 180.1 498.4 180.35 498.3 180.6 498.2 180.8 498.05 181 497.9 181.2 497.75 181.4 497.6 181.5 497.45 181.6 497.3 181.75 497.15 181.9 497 182.05 496.85 182.2 496.7 182.35 496.55 182.5 496.4 182.65 496.25 182.8 496.1 182.9 495.95 183 495.8 183.1 495.65 183.2 495.5 183.3 495.35 183.4 495.2 183.5 495.05 183.6 494.9 183.7 494.75 183.8 494.6 183.9 494.45 184 494.3 184.1 494.15 184.2 494 184.35 493.85 184.5 493.7 184.6 493.55 184.7 493.4 184.85 493.25 185 493.1 185.15 492.95 185.3 492.8 185.45 492.65 185.6 492.5 185.7 492.35 185.8 492.2
L 185.9 492.1
Q 186 491.95 186.1 491.8 186.2 491.65 186.3 491.5 186.45 491.35 186.6 491.2 186.75 491.05 186.9 490.9 187.05 490.75 187.2 490.6 187.45 490.45 187.7 490.3 187.85 490.15 188 490 188.1 489.85 188.2 489.7 188.3 489.55 188.4 489.4 188.55 489.25 188.7 489.1 188.8 488.95 188.9 488.8 189.05 488.65 189.2 488.5 189.4 488.35 189.6 488.2 189.8 488.05 190 487.9 190.25 487.75 190.5 487.6 190.65 487.45 190.8 487.3 190.9 487.15 191 487 191.1 486.85 191.2 486.7 191.3 486.55 191.4 486.4 191.55 486.25 191.7 486.1 191.8 485.95 191.9 485.8 192.1 485.65 192.3 485.5 192.45 485.35 192.6 485.2 192.7 485.05 192.8 484.9 192.95 484.75 193.1 484.6 193.3 484.45 193.5 484.3 193.6 484.15 193.7 484 193.85 483.85 194 483.7 194.15 483.55 194.3 483.4 194.4 483.25 194.5 483.1 194.6 482.95 194.7 482.8 194.8 482.65 194.9 482.5 195 482.35 195.1 482.2 195.2 482.05 195.3 481.9 195.4 481.75 195.5 481.6 195.6 481.45 195.7 481.3 195.85 481.15 196 481 196.1 480.85 196.2 480.7 196.35 480.55 196.5 480.4 196.7 480.25 196.9 480.1 197.05 479.95 197.2 479.8 197.35 479.65 197.5 479.5 197.6 479.35 197.7 479.2 197.8 479.05 197.9 478.9 198 478.75 198.1 478.6 198.2 478.45 198.3 478.3 198.4 478.15 198.5 478 198.6 477.85 198.7 477.7 198.8 477.55 198.9 477.4 199 477.25 199.1 477.1 199.2 476.95 199.3 476.8 199.4 476.65 199.5 476.5 199.6 476.35 199.7 476.2 199.8 476.05 199.9 475.9 200 475.75 200.1 475.6 200.2 475.45 200.3 475.3 200.4 475.15 200.5 475 200.65 474.85 200.8 474.7 200.9 474.55 201 474.4 201.1 474.25 201.2 474.1 201.3 473.95 201.4 473.8 201.5 473.65 201.6 473.5 201.7 473.35 201.8 473.2 201.9 473.05 202 472.9 202.05 472.75 202.1 472.6 202.15 472.45 202.2 472.3 202.25 472.15 202.3 472 202.35 471.85 202.4 471.7 202.5 471.55 202.6 471.4 202.65 471.25 202.7 471.1 202.8 470.95 202.9 470.8 202.95 470.65 203 470.5 203.05 470.35 203.1 470.2 203.2 470.05 203.3 469.9 203.35 469.75 203.4 469.6 203.5 469.45 203.6 469.3 203.7 469.15 203.8 469 203.8 468.85 203.8 468.7 203.85 468.6 203.9 468.45 221.5 451.05 221.4 450.9 221.3 450.6 221.2 450.3 221 450 220.8 449.7 220.7 449.4 220.6 449.1 220.4 448.8 220.2 448.5 220 448.2 219.8 447.9 219.7 447.6 219.6 447.3 219.5 447 219.4 446.7 219.3 446.4 219.2 446.1 219 445.8 218.8 445.5 218.7 445.2 218.6 444.9 218.5 444.6 218.4 444.3 218.3 444 218.2 443.7 217.9 443.4 217.6 443.1 217.5 442.8 217.4 442.5 217.3 442.2 217.2 441.9 217.15 441.7 217.1 441.5 217.05 441.4 217 441.3 216.85 441.1 214.4 441.25 214.2 441.25 214 441.25 195.6 417 176.95 393.25 174.95 390.7 172.9 388.15 157.8 369.45 141.75 351.45 138.7 348 136.15 344.15 133.05 339.45 129.65 335.15 126.8 331.7 123.3 328.9
L 118.6 321.45
Q 116.45 316.9 113.3 313.45 113.05 313.45 112.8 313.5 112.4 313.8 112 314.1 111.4 314.4 110.8 314.7
L 110.8 314.75
Q 110.4 314.6 110 314.5 109.6 314.5 109.2 314.5 109.2 314.6 109.2 314.7 108.7 314.7 108.2 314.7 107.8 314.9 107.4 315.1 107.1 315.4 106.8 315.7 106.6 316 106.4 316.3 106.3 316.45 106.2 316.65 106 316.55 105.8 316.5 105.55 316.25 105.3 316 105.05 316.25 104.8 316.5 104.5 316.8 104.2 317.1 103.8 317.4 103.4 317.7 103 318 102.6 318.3 102.25 318.5 101.9 318.75 102.25 319.05 102.55 319.6 93.55 328.5 84.65 338 84.2 338.25 83.8 338.5 83.4 338.8 83 339.1 82.4 339.4 81.8 339.7 81.5 340 81.2 340.3 80.9 340.6 80.6 340.9 80.3 341.2 80 341.5 79.7 341.8 79.4 342.1 79.1 342.4 78.8 342.7 78.5 343 78.2 343.3 77.9 343.6 77.6 343.9 77.2 344.2 76.8 344.5 76.4 344.8 76 345.1 75.5 345.4 75 345.7
M 48.5 382.1
Q 48.55 381.95 48.6 381.8
L 79.95 358.6 107.4 330.7
Q 110.25 329.7 112.9 334.85 116.5 341.75 122.15 347.45 127.15 352.55 131.8 358.1 148.15 377.8 164.2 397.6 166.25 400.15 168.5 402.65 178.15 413.1 186.3 424.85 188.2 427.5 190.25 430.1 197.9 439.95 206.45 449.25
L 170.65 487.15
Q 143.65 492.4 114.85 497.2 110.25 498.05 105.8 499.1 93 502.45 80.2 505.5 62.9 509.65 45.2 512.55 31.05 514.8 16.65 514.85 13.7 514.85 10.85 514.85
L 11 514.35
Q 20.6 483.95 29.75 453.5 36.8 430 41.8 406.1 42.25 404.1 42.75 401.75 44.1 395.15 46.5 388.9 46.65 388.5 46.8 388.15
L 46.8 388.1
Q 47.1 387.15 47.35 386.15 47.35 386.1 47.4 386 47.45 385.85 47.5 385.7 47.5 385.6 47.5 385.45 47.5 385.4 47.55 385.35 47.55 385.2 47.6 385.1 47.65 384.95 47.7 384.8 47.7 384.65 47.7 384.5 47.75 384.35 47.8 384.2 47.85 384.05 47.9 383.9 47.95 383.75 48 383.6 48.05 383.45 48.1 383.3 48.1 383.15 48.1 383 48.2 382.85 48.3 382.7 48.35 382.55 48.4 382.4 48.45 382.25 48.5 382.1
M 384.75 366.4
Q 380.1 370.45 375.65 374.55 350.3 398.1 321.9 417.75 317.55 420.8 314 424.5 313.9 424.45 313.8 424.4 313.8 424.45 313.8 424.5 313.6 424.5 313.4 424.5 313.25 424.6 313.1 424.7 312.95 424.85 312.8 425 312.8 425.15 312.8 425.3 312.75 425.45 312.7 425.6 312.7 425.75 312.7 425.9 312.35 426.25 312.05 426.65
L 313.3 429.2
Q 313.35 429.35 313.4 429.5 313.4 429.65 313.4 429.8 313.45 429.95 313.5 430.1 313.55 430.25 313.6 430.4 313.7 430.55 313.8 430.7 313.85 430.85 313.9 431 314 431.15 314.1 431.3 314.2 431.45 314.3 431.6 314.4 431.75 314.5 431.9 314.55 432.05 314.6 432.2 314.7 432.35 314.8 432.5 314.9 432.65 315 432.8 315.05 432.95 315.1 433.1 315.15 433.25 315.2 433.4 315.25 433.55 315.3 433.7 315.4 433.85 315.5 434 315.6 434.15 315.7 434.3 315.8 434.45 315.9 434.6 316 434.75 316.1 434.9 316.15 435 316.25 435.1 316.25 435.2 316.3 435.3 316.35 435.45 316.4 435.6 316.45 435.75 316.5 435.9 316.55 436.05 316.6 436.2 316.7 436.35 316.8 436.5 316.9 436.65 317 436.8 317.1 436.95 317.2 437.1 317.3 437.25 317.4 437.4 317.45 437.55 317.5 437.7 317.6 437.85 317.7 438 317.8 438.15 317.9 438.3 318 438.45 318.1 438.6 318.2 438.75 318.3 438.9 318.4 439.05 318.5 439.2 318.65 439.35 318.8 439.5 318.9 439.65 319 439.8 319.1 439.95 319.2 440.1 319.3 440.25 319.4 440.4 319.45 440.55 319.5 440.7 319.6 440.85 319.7 441 319.8 441.15 319.9 441.3 319.95 441.45 320 441.6 320.1 441.75 320.2 441.9 320.3 442 320.35 442.15
L 320.45 442.95
Q 343 468.9 367.85 493 368.75 493.85 369.65 494.45 369.7 494.45 369.7 494.5 369.85 494.65 370 494.8 370.2 494.95 370.4 495.1 370.55 495.25 370.7 495.4 370.85 495.55 371 495.7 371.2 495.85 371.4 496 371.55 496.15 371.7 496.3 371.85 496.45 372 496.6 372.15 496.75 372.3 496.9 372.45 497.05 372.6 497.2 372.8 497.35 373 497.5 373.2 497.65 373.4 497.8 373.55 497.95 373.7 498.1 373.8 498.25 373.9 498.4 374.05 498.55 374.2 498.7 374.35 498.85 374.5 499 374.7 499.15 374.9 499.3 375.1 499.45 375.3 499.6 375.5 499.75 375.7 499.9 375.85 500.05 376 500.2 376.15 500.35 376.3 500.5 376.4 500.65 376.5 500.8 376.7 500.95 376.9 501.1 377.1 501.25 377.3 501.4 377.45 501.55 377.6 501.7 377.75 501.85 377.9 502 378.05 502.15 378.2 502.3 378.35 502.45 378.5 502.6 378.65 502.75 378.8 502.9 379 503.05 379.2 503.2 379.4 503.35 379.6 503.5 379.75 503.65 379.9 503.8 380.2 503.95 380.5 504.1 380.8 504.25 381.1 504.4 381.4 504.55 381.7 504.7 381.9 504.85 382.1 505 382.35 505.15 382.6 505.3 382.8 505.45 383 505.6 383.25 505.75 383.5 505.9 383.7 506.05 383.9 506.2 384.1 506.35 384.3 506.5 384.55 506.65 384.8 506.8 385.05 506.95 385.3 507.1 385.55 507.25 385.8 507.4 386.1 507.55 386.4 507.7 386.7 507.85 387 508 387.2 508.15 387.4 508.3 387.7 508.45 388 508.6 388.3 508.75 388.6 508.9 388.9 509.05 389.2 509.2 389.5 509.35 389.8 509.5 390.1 509.65 390.4 509.8 390.9 509.9 391.4 510 391.6 510 391.8 510 392.15 509.95 392.5 509.9 392.65 509.85 392.8 509.8
L 392.85 509.8
Q 392.9 509.85 393 509.9 393.2 510.05 393.4 510.2 393.65 510.35 393.9 510.5 394.05 510.65 394.2 510.8 394.4 510.95 394.6 511.1 394.8 511.25 395 511.4 395.35 511.55 395.7 511.7 395.75 511.75 395.8 511.75 395.9 511.85 396 511.9 396.25 512.05 396.5 512.2 396.75 512.35 397 512.5 397.25 512.65 397.5 512.8 397.8 512.95 398.1 513.1 398.45 513.25 398.8 513.4 399.15 513.55 399.5 513.7 399.75 513.8 400 513.9 400.15 514 400.3 514.1 400.5 514.25 400.7 514.4 401.05 514.55 401.4 514.7 401.6 514.8 401.8 514.9 401.9 514.95 402 515 402.2 515.1 402.4 515.2 402.75 515.35 403.1 515.5 405.4 516.7 407.75 517.85 407.85 517.9 408 518 408.25 518.15 408.5 518.3 408.7 518.4 408.9 518.5 409.15 518.65 409.4 518.8 409.65 518.95 409.9 519.1 410.15 519.25 410.4 519.4 410.7 519.55 411 519.7 411.3 519.85 411.6 520 411.95 520.15 412.3 520.3 412.7 520.45 413.1 520.6 413.5 520.75 413.9 520.9 414.2 521.05 414.5 521.2 414.9 521.35 415.3 521.5 415.7 521.65 416.1 521.8 416.5 521.95 416.9 522.1 417.25 522.25 417.6 522.4 418 522.55 418.4 522.7 418.7 522.85 419 523 419.3 523.15 419.6 523.3 419.95 523.45 420.3 523.6 420.65 523.75 421 523.9 421.4 524.05 421.8 524.2 422.2 524.35 422.6 524.5 423 524.65 423.4 524.8 423.75 524.9 424.1 525 424.3 525.05 424.5 525.1 424.7 525.15 424.9 525.2 425.1 525.25 425.3 525.3 425.55 525.4 425.8 525.5 426 525.6 426.2 525.7 426.5 525.85 426.8 526 427.2 526.15 427.6 526.3 427.95 526.45 428.3 526.6 428.7 526.75 429.1 526.9 429.45 527.05 429.8 527.2 430.2 527.35 430.6 527.5 430.95 527.6 431.3 527.7 431.6 527.8 431.9 527.9 432.25 528.05 432.6 528.2 432.85 528.35 433.1 528.5 433.45 528.65 433.8 528.8 434.15 528.9 434.5 529 434.7 529.05 434.9 529.1 435.1 529.15 435.3 529.2 435.6 529.3 435.9 529.4 436.25 529.5 436.6 529.6 436.7 529.65 436.8 529.7 437 529.8 437.2 529.9 437.55 530 437.9 530.1 438.05 530.15 438.2 530.2 438.45 530.3 438.7 530.4 439.2 530.55 439.7 530.7 440.05 530.8 440.4 530.9 440.5 530.9 440.6 530.9 440.9 530.9 441.2 530.9 441.25 530.9 441.3 530.9 441.55 530.95 441.8 531 442 531.05 442.2 531.1 442.4 531.05 442.6 531 442.7 530.95 442.8 530.95 468.85 539.2 494.4 548.6
L 513.7 556 524.6 547.6
Q 519.8 535.55 519.25 522.4 518.35 499.45 515.35 476.4 513.15 459.35 510.8 442.5 509.9 436.3 510.35 430.65 511.15 420.75 506 412.7 504.5 410.35 501.8 409.8 490.3 396.55 476.95 384.25 475.8 383.2 474.7 382.1 463.7 370.75 453.55 358.2 448.3 351.8 444.9 344.35 443.75 341.7 442.85 338.8
L 443.35 336.65
Q 442.8 333.4 440.2 331.05 437.8 328.95 435.3 329.7
L 433.95 328.45 427.5 328.7 425.25 330.95
Q 415.8 334.4 408.8 342.4 397.55 355.25 384.75 366.4
M 425.1 348.6
L 425.25 349.05 423.15 350.45 431.65 345.05 442.85 359.55
Q 460.1 385.65 482.15 408.3 487 413.3 491.9 418.3
L 512.7 536.2
Q 513.8 538.7 508.05 536.2 504.5 534.75 500.85 533.65 454.9 519.3 408.75 505.65
L 408.7 505.6
Q 408.35 505.45 408 505.3 407.7 505.15 407.4 505 407.2 504.85 407 504.7 406.7 504.55 406.4 504.4 406.15 504.25 405.9 504.1 405.7 503.95 405.5 503.8 405.25 503.65 405 503.5 404.8 503.35 404.6 503.2 404.35 503.05 404.1 502.9 403.9 502.75 403.7 502.6 403.55 502.45 403.4 502.3 403.2 502.15 403 502 402.85 501.85 402.7 501.7 402.45 501.55 402.2 501.4 402 501.25 401.8 501.1 401.6 500.95 401.4 500.8 401.2 500.65 401 500.5 400.75 500.35 400.5 500.2 400.3 500.05 400.1 499.9 399.9 499.75 399.7 499.6 399.5 499.45 399.3 499.3 399.1 499.15 398.9 499 398.7 498.85 398.5 498.7 398.3 498.55 398.1 498.4 397.9 498.25 397.7 498.1 397.5 497.95 397.3 497.8 397.05 497.65 396.8 497.5 396.55 497.35 396.3 497.2 396.1 497.05 395.9 496.9 395.7 496.75 395.5 496.6 395.3 496.45 395.1 496.3 394.95 496.15 394.8 496 394.65 495.85 394.5 495.7 394.35 495.55 394.2 495.4 394.05 495.25 393.9 495.1 393.75 494.95 393.6 494.8 393.45 494.65 393.3 494.5 393.1 494.35 392.9 494.2 392.75 494.05 392.6 493.9 392.4 493.75 392.2 493.6 392.05 493.45 391.9 493.3 391.75 493.15 391.6 493 391.4 492.85 391.2 492.7 391 492.55 390.8 492.4 390.6 492.25 390.4 492.1 390.2 491.95 390 491.8 389.85 491.65 389.7 491.5 389.55 491.35 389.4 491.2 389.25 491.05 389.1 490.9 388.95 490.75 388.8 490.6 388.65 490.45 388.5 490.3 388.35 490.15 388.2 490 388.05 489.85 387.9 489.7 387.7 489.55 387.5 489.4 387.3 489.25 387.1 489.1 386.85 488.95 386.6 488.8 386.4 488.65 386.2 488.5 386.05 488.35 385.9 488.2 385.8 488.05 385.7 487.9 385.55 487.75 385.4 487.6 385.3 487.45 385.2 487.3 385.05 487.15 384.9 487 384.75 486.85 384.6 486.7 384.45 486.55 384.3 486.4 384.1 486.25 383.9 486.1 383.75 485.95 383.6 485.8 383.35 485.65 383.1 485.5 382.85 485.35 382.6 485.2 382.5 485.05 382.4 484.9 382.3 484.75 382.2 484.6 382.05 484.45 381.9 484.3 381.75 484.15 381.6 484 381.45 483.85 381.3 483.7 381.25 483.55 381.2 483.4 381.15 483.25 381.1 483.1 381 482.95 380.9 482.8 380.85 482.65 380.8 482.5 380.7 482.35 380.6 482.2 380.55 482.05 380.5 481.9 380.4 481.75 380.3 481.6 380.2 481.45 380.1 481.3 380.05 481.25 380 481.2 379.85 481.05 379.7 480.9 379.55 480.75 379.4 480.6 379.25 480.45 379.1 480.3 378.95 480.15 378.8 480 378.7 479.85 378.6 479.7 378.5 479.55 378.4 479.4 378.2 479.25 378 479.1 377.95 479.05 377.9 479 377.75 479.1 377.6 479.2 377.55 479.25 377.55 479.3 376.05 477.5 373.95 475.85 368.05 471.35 362.65 466.05 359.45 462.95 355.15 461.2
L 335.25 441.4
Q 335.15 441.3 335.1 441.2 335.05 441.05 335 440.9 334.9 440.75 334.8 440.6 334.7 440.45 334.6 440.3 334.5 440.15 334.4 440 334.3 439.85 334.2 439.7 334.15 439.55 334.1 439.4 334.05 439.25 334 439.1 333.95 438.95 333.9 438.8 333.85 438.65 333.8 438.5 333.75 438.35 333.7 438.2 333.55 438.05 333.4 437.9 333.35 437.75 333.3 437.6 333.2 437.45 333.1 437.3 333 437.15 332.9 437 332.9 436.95 332.9 436.9 332.85 436.75 332.8 436.6 332.75 436.55 332.75 436.5 332.7 436.45 332.7 436.4 332.7 436.25 332.7 436.1 332.65 435.95 332.6 435.8 332.55 435.65 332.5 435.5 332.4 435.35 332.3 435.2 332.25 435.05 332.2 434.9 332.1 434.75 332 434.6 332 434.5 332 434.4 332.05 434.25 332.1 434.1 332.05 433.95 332 433.8 332 433.65 332 433.5 331.9 433.35 331.8 433.2 331.75 433.05 331.7 432.9 331.6 432.75 331.5 432.6 331.5 432.45 331.5 432.3 331.4 432.15 331.3 432 331.25 431.85 331.2 431.7 331.15 431.55 331.1 431.4 331.05 431.25 331 431.1 330.95 430.95 330.9 430.8 330.9 430.7 330.9 430.6 330.85 430.45 330.8 430.3 330.75 430.15 330.7 430 330.7 429.85 330.7 429.7 330.65 429.55 330.6 429.4 330.6 429.25 330.6 429.1 330.55 428.95 330.5 428.8 330.5 428.65 330.5 428.5 330.45 428.35 330.4 428.2 330.4 428.05 330.4 427.9 330.35 427.75 330.3 427.6 330.3 427.45 330.3 427.3 330.25 427.15 330.2 427 330.2 426.85 330.2 426.7 330.15 426.55 330.1 426.4 330.1 426.25 330.1 426.1 330.05 425.95 330 425.8 330 425.65 330 425.5 329.95 425.35 329.9 425.2 329.9 425.05 329.9 424.9 329.85 424.75 329.8 424.6 329.8 424.45 329.8 424.3 329.75 424.15 329.7 424 329.7 423.85 329.7 423.7 329.65 423.55 329.6 423.4 329.6 423.25 329.6 423.1 329.55 422.95 329.5 422.8 329.5 422.65 329.5 422.5 329.4 422.35 329.3 422.2 329.2 422.05 329.1 421.9 329 421.8 328.9 421.7 359.45 403.85 386.35 381.15 397.1 372.1 407.45 362.35 411.05 359 414.9 355.95 416.3 354.85 417.9 353.85 421.9 351.4 425.1 348.6 Z"/>

<path fill="#42E430" stroke="none" d="
M 335.6 241.3
Q 335.55 241.25 335.45 241.15 325 233.9 314.85 226.75 298.4 215.2 283.15 201.9 280.6 199.7 278 197.5 275.65 195.5 273 193.85
L 267.05 185.6
Q 266.7 185.15 266.5 185.1 265.55 185.45 264.7 186.2
L 257.65 194.4
Q 245.55 205.55 233.95 217.3 211.25 240.2 184.95 258.3 182.35 260.1 179.7 261.75
L 181.45 263.35
Q 192.35 274.85 203.45 286.25 213.45 296.45 223.25 307.3 225.15 309.35 227.25 311.3 243.6 326.45 258.9 342.7 260 343.85 261.05 345.1 264.65 349.1 268.65 352.3 272.3 355.25 275.65 358.4 297.8 337.3 318.95 315.35 331.05 302.75 345.2 292.85 348.35 290.7 351.6 288.7 353.15 287.7 354.75 286.75
L 354.8 286.7
Q 355.1 286.4 355.4 286.1 355.6 285.8 355.8 285.5 356.1 285.2 356.4 284.9 356.7 284.6 357 284.3 357.3 284 357.6 283.7 358 283.4 358.4 283.1 358.8 282.8 359.2 282.5 359.6 282.2 360 281.9 360.3 281.6 360.6 281.3 361 281 361.4 280.7 361.7 280.4 362 280.1 362.2 279.8 362.4 279.5 362.6 279.2 362.8 278.9 363 278.6 363.2 278.3 363.5 278 363.8 277.7 364.1 277.4 364.4 277.1 364.8 276.8 365.2 276.5 365.8 276.2 366.4 275.9 366.75 275.65 367.1 275.4 366.85 275.15 366.6 274.9 366.3 274.6 366 274.3 365.8 274 365.6 273.7 365.3 273.4 365 273.1 364.7 272.8 364.4 272.5 364.2 272.2 364 271.9 363.7 271.6 363.4 271.3 363 271 362.6 270.7 362.3 270.4 362 270.1 361.7 269.8 361.4 269.5 361.2 269.2 361 268.9 360.8 268.6 360.6 268.3 360.3 268 360 267.7 359.7 267.4 359.4 267.1 359 266.8 358.6 266.5 358.3 266.2 358 265.9 357.7 265.6 357.4 265.3 357.1 265 356.8 264.7 356.5 264.4 356.2 264.1 355.9 263.8 355.6 263.5 355.3 263.2 355 262.9 354.7 262.6 354.4 262.3 354.1 262 353.8 261.7 353.6 261.4 353.4 261.1 353.1 260.8 352.8 260.5 352.5 260.2 352.2 259.9 351.9 259.6 351.6 259.3 351.3 259 351 258.7 350.7 258.4 350.4 258.1 350.1 257.8 349.8 257.5 349.5 257.2 349.2 256.9 348.9 256.6 348.6 256.3 348.5 256 348.4 255.7 348.2 255.4 348 255.1 347.7 254.8 347.4 254.5 347.2 254.2 347 253.9 346.8 253.6 346.6 253.3 346.3 253 346 252.7 345.8 252.4 345.6 252.1 345.3 251.8 345 251.5 344.7 251.2 344.4 250.9 344.2 250.6 344 250.3 343.7 250 343.4 249.7 343.1 249.4 342.8 249.1 342.5 248.8 342.2 248.5 342 248.2 341.8 247.9 341.5 247.6 341.2 247.3 341 247 340.8 246.7 340.6 246.4 340.4 246.1 340.3 245.8 340.2 245.5 339.7 245.2 339.2 244.9 338.8 244.6 338.4 244.3 338.1 244 337.8 243.7 337.5 243.4 337.2 243.1 336.9 242.8 336.6 242.5 336.4 242.2 336.2 241.9 335.9 241.6 335.6 241.3 Z"/>

<path fill="#FF3C63" stroke="none" d="
M 527.2 14.15
Q 526.2 13 518.95 15.55 480.65 28.85 441.6 39.35 417 45.9 394.9 58.5 395.5 60.85 395.4 63.05 394.85 63.25 394.3 63.5 393.8 63.8 393.3 64.1 393 64.4 392.7 64.7 392.4 65 392.1 65.3 391.8 65.6 391.5 65.9 391.2 66.2 390.9 66.5 390.5 66.8 390.1 67.1 389.7 67.4 389.3 67.7 388.9 68 388.5 68.3 388 68.6 387.5 68.9 387.2 69.2 386.9 69.5 386.5 69.8 386.1 70.1 385.8 70.4 385.5 70.7 385.1 71 384.7 71.3 384.4 71.6 384.1 71.9 383.8 72.2 383.5 72.5 383.2 72.8 382.9 73.1 382.6 73.4 382.3 73.7 382.1 74 381.9 74.3 381.6 74.6 381.3 74.9 381.1 75.2 380.9 75.5 380.7 75.8 380.5 76.1 380.3 76.4 380.1 76.7 379.7 77 379.3 77.3 379 77.6 378.7 77.9 378.4 78.2 378.1 78.5 377.9 78.8 377.7 79.1 377.4 79.4 377.1 79.7 376.9 80 376.7 80.3 376.6 80.6 376.5 80.9 376.3 81.2 376.1 81.5 375.8 81.8 375.5 82.1 375.3 82.4 375.1 82.7 374.9 83 374.7 83.3 374.4 83.6 374.1 83.9 373.9 84.2 373.7 84.5 373.2 84.8 372.7 85.1 372.4 85.4 372.1 85.7 371.9 86 371.7 86.3 371.4 86.6 371.1 86.9 370.9 87.2 370.7 87.5 370.5 87.8 370.3 88.1 370.1 88.4 369.9 88.7 369.6 89 369.3 89.3 369 89.6 368.7 89.9 368.4 90.2 368.1 90.5 367.9 90.8 367.7 91.1 367.4 91.4 367.1 91.7 366.9 92 366.7 92.3 366.55 92.5 366.45 92.75
L 344.35 114.75
Q 343.55 118.45 342.65 122.15 341.7 125.9 338.9 126.65 365.8 141.7 389.8 160.5 410.6 176.9 430.15 195.45 432.05 197.25 434.25 198.9 439.5 202.85 444.85 206.45 454.45 198.15 460.75 187.4 467.85 175.4 476.9 164.6 490.6 148.2 506.4 132.6
L 527.2 14.15 Z"/>

<path fill="#FFCC33" stroke="none" d="
M 60.5 -2.6
Q 55.75 -4.15 54.85 -3.45 56.2 27.7 57.15 59 57.95 84.4 56.65 109.5 56.55 111.8 56.3 114.05 55.65 120.2 56.7 126 57.05 128.1 56.65 130.3 56.3 132.15 56.15 134
L 81.1 165.55 100.45 199.75
Q 103.1 201.5 106.9 197.2 112.1 191.4 118.85 187.2 126.1 182.55 133.1 177.35 155.25 161.1 178.15 146.05 190.15 138.25 201.05 128.95 203.5 126.85 206.1 124.9 216.1 117.25 226.8 110.55
L 202 64.45
Q 178.9 53.35 154.3 41.5 148.35 38.6 142.25 36.2 139.8 35.2 137.55 33.8 117.2 21.1 95.8 10.8 90.25 8.15 84.45 5.8 72.7 1.3 60.5 -2.6 Z"/>

<path fill="#0B3CFF" stroke="none" d="
M 48.6 381.8
Q 48.55 381.95 48.5 382.1 48.45 382.25 48.4 382.4 48.35 382.55 48.3 382.7 48.2 382.85 48.1 383 48.1 383.15 48.1 383.3 48.05 383.45 48 383.6 47.95 383.75 47.9 383.9 47.85 384.05 47.8 384.2 47.75 384.35 47.7 384.5 47.7 384.65 47.7 384.8 47.65 384.95 47.6 385.1 47.55 385.2 47.55 385.35 47.5 385.4 47.5 385.45 47.5 385.6 47.5 385.7 47.45 385.85 47.4 386 47.35 386.1 47.35 386.15 47.1 387.15 46.8 388.1
L 46.8 388.15
Q 46.65 388.5 46.5 388.9 44.1 395.15 42.75 401.75 42.25 404.1 41.8 406.1 36.8 430 29.75 453.5 20.6 483.95 11 514.35
L 10.85 514.85
Q 13.7 514.85 16.65 514.85 31.05 514.8 45.2 512.55 62.9 509.65 80.2 505.5 93 502.45 105.8 499.1 110.25 498.05 114.85 497.2 143.65 492.4 170.65 487.15
L 206.45 449.25
Q 197.9 439.95 190.25 430.1 188.2 427.5 186.3 424.85 178.15 413.1 168.5 402.65 166.25 400.15 164.2 397.6 148.15 377.8 131.8 358.1 127.15 352.55 122.15 347.45 116.5 341.75 112.9 334.85 110.25 329.7 107.4 330.7
L 79.95 358.6 48.6 381.8 Z"/>

<path fill="#1DE2E2" stroke="none" d="
M 425.25 349.05
L 425.1 348.6
Q 421.9 351.4 417.9 353.85 416.3 354.85 414.9 355.95 411.05 359 407.45 362.35 397.1 372.1 386.35 381.15 359.45 403.85 328.9 421.7 329 421.8 329.1 421.9 329.2 422.05 329.3 422.2 329.4 422.35 329.5 422.5 329.5 422.65 329.5 422.8 329.55 422.95 329.6 423.1 329.6 423.25 329.6 423.4 329.65 423.55 329.7 423.7 329.7 423.85 329.7 424 329.75 424.15 329.8 424.3 329.8 424.45 329.8 424.6 329.85 424.75 329.9 424.9 329.9 425.05 329.9 425.2 329.95 425.35 330 425.5 330 425.65 330 425.8 330.05 425.95 330.1 426.1 330.1 426.25 330.1 426.4 330.15 426.55 330.2 426.7 330.2 426.85 330.2 427 330.25 427.15 330.3 427.3 330.3 427.45 330.3 427.6 330.35 427.75 330.4 427.9 330.4 428.05 330.4 428.2 330.45 428.35 330.5 428.5 330.5 428.65 330.5 428.8 330.55 428.95 330.6 429.1 330.6 429.25 330.6 429.4 330.65 429.55 330.7 429.7 330.7 429.85 330.7 430 330.75 430.15 330.8 430.3 330.85 430.45 330.9 430.6 330.9 430.7 330.9 430.8 330.95 430.95 331 431.1 331.05 431.25 331.1 431.4 331.15 431.55 331.2 431.7 331.25 431.85 331.3 432 331.4 432.15 331.5 432.3 331.5 432.45 331.5 432.6 331.6 432.75 331.7 432.9 331.75 433.05 331.8 433.2 331.9 433.35 332 433.5 332 433.65 332 433.8 332.05 433.95 332.1 434.1 332.05 434.25 332 434.4 332 434.5 332 434.6 332.1 434.75 332.2 434.9 332.25 435.05 332.3 435.2 332.4 435.35 332.5 435.5 332.55 435.65 332.6 435.8 332.65 435.95 332.7 436.1 332.7 436.25 332.7 436.4 332.7 436.45 332.75 436.5 332.75 436.55 332.8 436.6 332.85 436.75 332.9 436.9 332.9 436.95 332.9 437 333 437.15 333.1 437.3 333.2 437.45 333.3 437.6 333.35 437.75 333.4 437.9 333.55 438.05 333.7 438.2 333.75 438.35 333.8 438.5 333.85 438.65 333.9 438.8 333.95 438.95 334 439.1 334.05 439.25 334.1 439.4 334.15 439.55 334.2 439.7 334.3 439.85 334.4 440 334.5 440.15 334.6 440.3 334.7 440.45 334.8 440.6 334.9 440.75 335 440.9 335.05 441.05 335.1 441.2 335.15 441.3 335.25 441.4
L 355.15 461.2
Q 359.45 462.95 362.65 466.05 368.05 471.35 373.95 475.85 376.05 477.5 377.55 479.3 377.55 479.25 377.6 479.2 377.75 479.1 377.9 479 377.95 479.05 378 479.1 378.2 479.25 378.4 479.4 378.5 479.55 378.6 479.7 378.7 479.85 378.8 480 378.95 480.15 379.1 480.3 379.25 480.45 379.4 480.6 379.55 480.75 379.7 480.9 379.85 481.05 380 481.2 380.05 481.25 380.1 481.3 380.2 481.45 380.3 481.6 380.4 481.75 380.5 481.9 380.55 482.05 380.6 482.2 380.7 482.35 380.8 482.5 380.85 482.65 380.9 482.8 381 482.95 381.1 483.1 381.15 483.25 381.2 483.4 381.25 483.55 381.3 483.7 381.45 483.85 381.6 484 381.75 484.15 381.9 484.3 382.05 484.45 382.2 484.6 382.3 484.75 382.4 484.9 382.5 485.05 382.6 485.2 382.85 485.35 383.1 485.5 383.35 485.65 383.6 485.8 383.75 485.95 383.9 486.1 384.1 486.25 384.3 486.4 384.45 486.55 384.6 486.7 384.75 486.85 384.9 487 385.05 487.15 385.2 487.3 385.3 487.45 385.4 487.6 385.55 487.75 385.7 487.9 385.8 488.05 385.9 488.2 386.05 488.35 386.2 488.5 386.4 488.65 386.6 488.8 386.85 488.95 387.1 489.1 387.3 489.25 387.5 489.4 387.7 489.55 387.9 489.7 388.05 489.85 388.2 490 388.35 490.15 388.5 490.3 388.65 490.45 388.8 490.6 388.95 490.75 389.1 490.9 389.25 491.05 389.4 491.2 389.55 491.35 389.7 491.5 389.85 491.65 390 491.8 390.2 491.95 390.4 492.1 390.6 492.25 390.8 492.4 391 492.55 391.2 492.7 391.4 492.85 391.6 493 391.75 493.15 391.9 493.3 392.05 493.45 392.2 493.6 392.4 493.75 392.6 493.9 392.75 494.05 392.9 494.2 393.1 494.35 393.3 494.5 393.45 494.65 393.6 494.8 393.75 494.95 393.9 495.1 394.05 495.25 394.2 495.4 394.35 495.55 394.5 495.7 394.65 495.85 394.8 496 394.95 496.15 395.1 496.3 395.3 496.45 395.5 496.6 395.7 496.75 395.9 496.9 396.1 497.05 396.3 497.2 396.55 497.35 396.8 497.5 397.05 497.65 397.3 497.8 397.5 497.95 397.7 498.1 397.9 498.25 398.1 498.4 398.3 498.55 398.5 498.7 398.7 498.85 398.9 499 399.1 499.15 399.3 499.3 399.5 499.45 399.7 499.6 399.9 499.75 400.1 499.9 400.3 500.05 400.5 500.2 400.75 500.35 401 500.5 401.2 500.65 401.4 500.8 401.6 500.95 401.8 501.1 402 501.25 402.2 501.4 402.45 501.55 402.7 501.7 402.85 501.85 403 502 403.2 502.15 403.4 502.3 403.55 502.45 403.7 502.6 403.9 502.75 404.1 502.9 404.35 503.05 404.6 503.2 404.8 503.35 405 503.5 405.25 503.65 405.5 503.8 405.7 503.95 405.9 504.1 406.15 504.25 406.4 504.4 406.7 504.55 407 504.7 407.2 504.85 407.4 505 407.7 505.15 408 505.3 408.35 505.45 408.7 505.6
L 408.75 505.65
Q 454.9 519.3 500.85 533.65 504.5 534.75 508.05 536.2 513.8 538.7 512.7 536.2
L 491.9 418.3
Q 487 413.3 482.15 408.3 460.1 385.65 442.85 359.55
L 431.65 345.05 423.15 350.45 425.25 349.05 Z"/>
</g>

<g id="Arroe_0_Layer0_0_FILL">
<path fill="#000000" stroke="none" d="
M 38.8 0.1
L 38.85 0.15
Q 38.85 0.1 38.85 0.05 38.75 0 38.65 0 38.75 0.05 38.8 0.1
M 47.3 17.6
Q 47.05 17.65 46.8 17.7 46.6 17.8 46.4 17.9 46.1 17.95 45.8 18 45.45 18 45.1 18 45 18.05 44.9 18.05 44.65 18.1 44.4 18.1 44.15 18.15 43.9 18.2 43.7 18.25 43.55 18.35 43.2 18.35 42.9 18.4 42.7 18.45 42.5 18.5 42.4 18.55 42.25 18.6 41.8 18.65 41.3 18.65 41.2 18.7 41.05 18.7 41 18.75 40.9 18.75 39 18.8 37.1 18.8 35.3 18.85 33.5 18.85 33.4 18.9 33.25 18.9 33.1 18.95 32.95 19 31.9 19.05 30.85 19.1 30.05 19.15 29.2 19.15 29 19.2 28.8 19.2 28.7 19.25 28.55 19.25 28.5 19.25 28.4 19.3 28.45 19.15 28.5 19 28.55 18.85 28.6 18.7 28.75 18.55 28.9 18.4 29 18.25 29.1 18.1 29.15 17.95 29.2 17.8 29.3 17.65 29.4 17.5 29.55 17.35 29.7 17.2 29.8 17.05 29.9 16.9 29.95 16.75 30 16.6 30.1 16.45 30.2 16.3 30.3 16.15 30.4 16 30.5 15.85 30.6 15.7 30.7 15.55 30.8 15.4 30.85 15.25 30.9 15.1 31.05 14.95 31.2 14.8 31.35 14.65 31.5 14.5 31.6 14.35 31.7 14.2 31.85 14.05 32 13.9 32.15 13.75 32.3 13.6 32.35 13.45 32.4 13.3 32.45 13.15 32.5 13 32.6 12.85 32.7 12.7 32.85 12.55 33 12.4 33.1 12.25 33.2 12.1 33.35 11.95 33.5 11.8 33.55 11.65 33.6 11.5 33.7 11.35 33.8 11.2 33.85 11.05 33.9 10.9 33.95 10.75 34 10.6 34.05 10.45 34.1 10.3 34.15 10.15 34.2 10 34.3 9.85 34.4 9.7 34.45 9.55 34.5 9.4 34.6 9.25 34.7 9.1 34.75 8.95 34.8 8.8 34.9 8.65 35 8.5 35 8.35 35 8.2 35.1 8.05 35.2 7.9 35.25 7.75 35.3 7.6 35.4 7.45 35.5 7.3 35.55 7.15 35.6 7 35.65 6.85 35.7 6.7 35.8 6.55 35.9 6.4 36 6.25 36.1 6.1 36.25 5.95 36.4 5.8 36.5 5.65 36.6 5.5 36.7 5.35 36.8 5.2 36.85 5.05 36.9 4.9 36.95 4.85 37 4.8
L 36.95 4.75
Q 36.95 4.7 36.95 4.6 36.95 4.55 36.95 4.45 36.95 4.4 36.9 4.3 36.9 4.25 36.9 4.15 36.9 4.1 36.9 4 36.9 3.95 36.85 3.85 36.85 3.8 36.85 3.7 36.85 3.65 36.85 3.55 36.85 3.5 36.8 3.4 36.8 3.35 36.8 3.25 36.8 3.2 36.8 3.1 36.8 3.05 36.8 2.95 36.75 2.9 36.7 2.8 36.7 2.75 36.65 2.65 36.65 2.6 36.6 2.5 36.6 2.45 36.55 2.35 36.55 2.3 36.5 2.2 36.5 2.15 36.45 2.05 36.4 2 36.3 1.9 36.25 1.85 36.2 1.75 36.15 1.7 36.1 1.6 36.1 1.55 36.1 1.45 36.1 1.4 36.05 1.3 36.05 1.25 36 1.15 36 1.1 35.95 1 35.9 0.95 35.8 0.85 35.75 0.8 35.7 0.7 35.65 0.65 35.6 0.55 35.55 0.5 35.5 0.4
L 35.45 0.35
Q 32.55 0.35 29.7 0.4 29.3 0.5 28.9 0.6 28.3 0.7 27.7 0.8 26.95 0.85 26.2 0.9 25.95 0.95 25.7 1 25.45 1.05 25.2 1.1 25.1 1.15 25 1.2 23.75 1.25 22.5 1.3 22.25 1.35 22 1.4 21.7 1.5 21.4 1.6 19.35 1.7 17.3 1.8 17.05 1.85 16.8 1.9 16.5 2 16.2 2.1 14.9 2.2 13.6 2.3 12.9 2.35 12.2 2.4 11.95 2.45 11.7 2.5 11.35 2.6 11 2.7 10.6 2.85 10.2 3 9.75 3.1 9.3 3.2 9.1 3.25 8.9 3.3 8.7 3.35 8.5 3.4 8.3 3.45 8.1 3.5 7.9 3.55 7.7 3.6 7.5 3.65 7.3 3.7 7.25 3.7 7.2 3.75
L 7.2 3.7
Q 7.1 3.55 7 3.4 6.8 3.25 6.6 3.1 6.25 3 5.9 2.9 5.9 2.95 5.9 3 5.65 3 5.4 3 5.3 3.05 5.2 3.1 5.05 3.2 4.9 3.3 4.75 3.45 4.6 3.6 4.5 3.75 4.4 3.9 4.35 4.05 4.3 4.2 4.2 4.35 4.1 4.5 4.05 4.65 4 4.8 3.9 4.95 3.8 5.1 3.75 5.25 3.7 5.4 3.6 5.55 3.5 5.7 3.5 5.85 3.5 6 3.45 6.15 3.4 6.3 3.4 6.45 3.4 6.6 3.4 6.75 3.4 6.9 3.4 7.05 3.4 7.2 3.35 7.35 3.3 7.5 3.25 7.65 3.2 7.8 3.15 7.95 3.1 8.1 3.1 8.25 3.1 8.4 3.05 8.55 3 8.7 3 8.85 3 9 2.95 9.15 2.9 9.3 2.9 9.45 2.9 9.6 2.9 9.75 2.9 9.9 2.9 10.05 2.9 10.2 2.9 10.35 2.9 10.5 2.9 10.65 2.9 10.8 2.9 10.95 2.9 11.1 2.9 11.25 2.9 11.4 2.9 11.55 2.9 11.7 2.9 11.85 2.9 12 2.85 12.15 2.8 12.3 2.75 12.45 2.7 12.6 2.7 12.75 2.7 12.9 2.65 13.05 2.6 13.2 2.55 13.35 2.5 13.5 2.5 13.65 2.5 13.8 2.5 13.95 2.5 14.1 2.5 14.25 2.5 14.4 2.5 14.55 2.5 14.7 2.45 14.85 2.4 15 2.4 15.15 2.4 15.3 2.4 15.45 2.4 15.6 2.4 15.75 2.4 15.9 2.4 16.05 2.4 16.2 2.4 16.35 2.4 16.5 2.3 16.65 2.2 16.8 2.2 16.95 2.2 17.1 2.15 17.25 2.1 17.4 2.1 17.55 2.1 17.7 2.05 17.85 2 18 2 18.15 2 18.3 2 18.45 2 18.6 2 18.75 2 18.9 2 19.05 2 19.2 2 19.35 2 19.5 1.95 19.65 1.9 19.8 1.85 19.95 1.8 20.1 1.75 20.25 1.7 20.4 1.65 20.55 1.6 20.7 1.6 20.85 1.6 21 1.55 21.15 1.5 21.3 1.5 21.45 1.5 21.6 1.5 21.75 1.5 21.9 1.5 22.05 1.5 22.2 1.5 22.35 1.5 22.5 1.5 22.65 1.5 22.8 1.45 22.95 1.4 23.1 1.35 23.25 1.3 23.4 1.25 23.55 1.2 23.7 1.2 23.85 1.2 24 1.15 24.15 1.1 24.3 1.1 24.45 1.1 24.6 1.1 24.75 1.1 24.9 1.1 25.05 1.1 25.2 1.1 25.35 1.1 25.5 1.1 25.65 1.1 25.8 1.1 25.95 1.1 26.1 1.1 26.25 1.1 26.4 1.1 26.55 1.1 26.7 1.1 26.85 1.1 27 1.1 27.15 1.1 27.3 1.05 27.45 1 27.6 0.9 27.75 0.8 27.9 0.8 28.05 0.8 28.2 0.75 28.35 0.7 28.5 0.7 28.65 0.7 28.8 0.7 28.95 0.7 29.1 0.7 29.25 0.7 29.4 0.7 29.55 0.7 29.7 0.65 29.85 0.6 30 0.6 30.15 0.6 30.3 0.6 30.45 0.6 30.6 0.6 30.75 0.6 30.9 0.6 31.05 0.6 31.2 0.6 31.35 0.6 31.5 0.6 31.65 0.6 31.8 0.6 31.95 0.6 32.1 0.6 32.25 0.6 32.4 0.55 32.55 0.5 32.7 0.4 32.85 0.3 33 0.3 33.15 0.3 33.3 0.25 33.45 0.2 33.6 0.2 33.75 0.2 33.9 0.2 34.05 0.2 34.2 0.2 34.35 0.2 34.5 0.2 34.65 0.2 34.8 0.2 34.95 0.2 35.1 0.2 35.25 0.2 35.4 0.2 35.55 0.2 35.7 0.2 35.85 0.2 36 0.15 36.15 0.1 36.3 0.1 36.45 0.1 36.6 0.05 36.75 0 36.9 0.05 37.05 0.1 37.2 0.1 37.35 0.1 37.5 0.15 37.65 0.2 37.8 0.3 37.95 0.4 38.1 0.55 38.25 0.7 38.4 0.9 38.55 1.1 38.7 1.3 38.85 1.5 39 1.9 39.1 2.3 39.2 2.4 39.2 2.5 39.2 2.55 39.3 2.6 39.4 2.65 39.4 2.75 39.35 2.85 39.35 2.95 39.3 3.1 39.3 3.2 39.25 3.3 39.25 3.35 39.2 3.45 39.2 3.55 39.15 3.65 39.15 3.7 39.1 3.8 39.1 3.9 39.05 3.95 39.05 4 39 4.2 38.95 4.35 38.9 4.5 38.85 4.6 38.8 4.8 38.75 5 38.7 5.1 38.65 5.2 38.6 5.25 38.6 5.3 38.6 5.35 38.55 5.4 38.5 5.5 38.35 5.6 38.2 5.7 38.1 5.85 38 5.9 38 6 38 6.3 37.9 6.6 37.8 6.8 37.65 7 37.5 7.15 37.35 7.3 37.2 7.45 37.05 7.6 36.9 7.8 36.75 8 36.6 8.15 36.45 8.3 36.3 8.55 36.15 8.8 36 8.95 35.85 9.1 35.7 9.25 35.55 9.4 35.4 9.55 35.25 9.7 35.1 9.95 34.95 10.2 34.8 10.4 34.65 10.6 34.5 10.8 34.35 11 34.2 11.1 34.05 11.2 33.9 11.4 33.75 11.6 33.6 11.65 33.55 11.75 33.55 11.85 33.45 12 33.4 12.1 33.35 12.2 33.3 12.3 33.2 12.4 33.1 12.5 33.05 12.6 33 12.75 32.9 12.9 32.85 12.9 32.9 12.9 33 12.95 33.15 13 33.3 13.05 33.45 13.1 33.6 13.15 33.75 13.2 33.9 13.3 34.05 13.4 34.2 13.4 34.35 13.4 34.5 13.45 34.65 13.5 34.8 13.55 34.95 13.6 35.1 13.7 35.25 13.8 35.4 13.8 35.55 13.8 35.7 13.85 35.85 13.9 36 14 36.15 14.1 36.3 14.15 36.45 14.2 36.6 14.25 36.75 14.3 36.9 14.35 37.05 14.4 37.2 14.5 37.35 14.6 37.5 14.6 37.65 14.6 37.8 14.65 37.95 14.7 38.1 14.75 38.25 14.8 38.4 14.9 38.55 15 38.7 15.1 38.85 15.2 39 15.25 39.15 15.3 39.3 15.35 39.45 15.4 39.6 15.45 39.75 15.5 39.9 15.55 40.05 15.6 40.2 15.65 40.35 15.7 40.5 15.75 40.65 15.8 40.8 15.85 40.95 15.9 41.1 15.95 41.25 16 41.4 16.05 41.55 16.1 41.7 16.1 41.85 16.1 42 16.1 42.15 16.1 42.3 16.15 42.45 16.2 42.6 16.2 42.75 16.2 42.9 16.25 43.05 16.3 43.2 16.35 43.35 16.4 43.5 16.45 43.65 16.5 43.8 16.5 43.95 16.5 44.1 16.55 44.25 16.6 44.4 16.65 44.55 16.7 44.7 16.75 44.85 16.8 45 16.9 45.15 17 45.3 17 45.45 17 45.6 17.05 45.75 17.1 45.9 17.15 46.05 17.2 46.2 17.25 46.35 17.3 46.5 17.3 46.65 17.3 46.8 17.35 46.95 17.4 47.1 17.45 47.25 17.5 47.4 17.55 47.55 17.6 47.7 17.65 47.85 17.7 48 17.7 48.15 17.7 48.3 17.75 48.45 17.8 48.6 17.8 48.75 17.8 48.9 17.85 49.05 17.9 49.2 18 49.35 18.1 49.5 18.15 49.65 18.2 49.8 18.25 49.95 18.3 50.1 18.4 50.25 18.5 50.4 18.65 50.55 18.8 50.7 18.95 50.85 19.1 51 19.3 51.15 19.5 51.3 19.9 51.4 20.3 51.5 20.5 51.5 20.7 51.5 21.05 51.4 21.4 51.3 21.65 51.15 21.9 51 22.05 50.85 22.2 50.7 22.35 50.55 22.5 50.4 22.7 50.25 22.9 50.1 23.05 49.95 23.2 49.8 23.35 49.65 23.5 49.5 23.75 49.35 24 49.2 24.2 49.05 24.4 48.9 24.55 48.75 24.7 48.6 24.85 48.45 25 48.3 25.3 48.15 25.6 48 25.8 47.85 26 47.7 26.15 47.55 26.3 47.4 26.45 47.25 26.6 47.1 26.7 46.95 26.8 46.8 26.95 46.65 27.1 46.5 27.2 46.35 27.3 46.2 27.6 46.05 27.9 45.9 28.15 45.75 28.4 45.6 28.6 45.45 28.8 45.3 28.95 45.15 29.1 45 29.3 44.85 29.5 44.7 29.6 44.55 29.7 44.4 29.9 44.25 30.1 44.1 30.3 43.95 30.5 43.8 30.75 43.65 31 43.5 31.15 43.35 31.3 43.2 31.45 43.05 31.6 42.9 31.85 42.75 32.1 42.6 32.3 42.45 32.5 42.3 32.7 42.15 32.9 42 33.05 41.85 33.2 41.7 33.45 41.55 33.7 41.4 33.9 41.25 34.1 41.1 34.3 40.95 34.5 40.8 34.65 40.65 34.8 40.5 34.95 40.35 35.1 40.2 35.25 40.05 35.4 39.9 35.55 39.75 35.7 39.6 35.95 39.45 36.2 39.3 36.45 39.15 36.7 39 36.8 38.85 36.9 38.7 37 38.55 37.1 38.4 37.2 38.25 37.3 38.1 37.5 37.95 37.7 37.8 37.95 37.65 38.2 37.5 38.35 37.35 38.5 37.2 38.6 37.05 38.7 36.9 38.8 36.75 38.9 36.6 39.05 36.45 39.2 36.3 39.35 36.15 39.5 36 39.7 35.85 39.9 35.7 40.1 35.55 40.3 35.4 40.45 35.25 40.6 35.1 40.75 34.95 40.9 34.8 41.05 34.65 41.2 34.5 41.35 34.35 41.5 34.2 41.65 34.05 41.8 33.9 41.95 33.75 42.1 33.6 42.25 33.45 42.4 33.3 42.55 33.15 42.7 33 42.85 32.85 43 32.7 43.15 32.55 43.3 32.4 43.45 32.25 43.6 32.1 43.75 31.95 43.9 31.8 44 31.65 44.1 31.5 44.2 31.35 44.3 31.2 44.4 31.05 44.5 30.9 44.65 30.75 44.8 30.6 44.9 30.45 45 30.3 45.15 30.15 45.3 30 45.45 29.85 45.6 29.7 45.8 29.55 46 29.4 46.1 29.25 46.2 29.1 46.35 28.95 46.5 28.8 46.65 28.65 46.8 28.5 46.9 28.35 47 28.2 47.1 28.05 47.2 27.9 47.3 27.75 47.4 27.6 47.55 27.45 47.7 27.3 47.8 27.15 47.9 27 48.05 26.85 48.2 26.7 48.35 26.55 48.5 26.4 48.65 26.25 48.8 26.1 48.95 25.95 49.1 25.8 49.2 25.65 49.3 25.5 49.4 25.35 49.5 25.2 49.6 25.05 49.7 24.9 49.75 24.75 49.8 24.6 49.9 24.45 50 24.3 50.1 24.15 50.2 24 50.35 23.85 50.5 23.7 50.6 23.55 50.7 23.4 50.85 23.25 51 23.1 51.1 22.95 51.2 22.8 51.35 22.65 51.5 22.5 51.55 22.35 51.6 22.2 51.7 22.05 51.8 21.9 51.95 21.75 52.1 21.6 52.25 21.45 52.4 21.3 52.55 21.15 52.7 21 52.8 20.85 52.9 20.7 53 20.55 53.1 20.4 53.15 20.25 53.2 20.1 53.2 19.95 53.2 19.8 53.25 19.65 53.3 19.5 53.25 19.35 53.2 19.2 53.2 19.05 53.2 18.9 53.15 18.75 53.1 18.6 53 18.45 52.9 18.3 52.8 18.15 52.7 18 52.45 17.85 52.2 17.7 51.85 17.6 51.5 17.5 50.9 17.5 50.3 17.5 50.3 17.55 50.3 17.6 48.8 17.6 47.3 17.6
M 40.6 23.35
Q 41.1 23.4 41.6 23.4 42.15 23.45 42.7 23.45
L 42.65 23.5
Q 42.6 23.6 42.55 23.65 42.5 23.75 42.45 23.8 42.4 23.9 42.35 23.95 42.35 24.05 42.3 24.1 42.3 24.2 42.25 24.25 42.25 24.35 42.2 24.4 42.15 24.5 42.05 24.55 42.05 24.65 42 24.7 41.95 24.8 41.9 24.85 41.85 24.95 41.8 25 41.75 25.1 41.65 25.15 41.65 25.25 41.6 25.3 41.55 25.4 41.5 25.45 41.45 25.55 41.4 25.6 41.35 25.7 41.25 25.75 41.25 25.85 41.2 25.9 41.15 26 41.1 26.05 41.05 26.15 41 26.2 40.95 26.3 40.85 26.35 40.8 26.45 40.7 26.5 40.65 26.6 40.55 26.65 40.5 26.75 40.4 26.8 40.35 26.9 40.25 26.95 40.25 27.05 40.2 27.1 40.15 27.2 40.1 27.25 40.05 27.35 40 27.4 39.95 27.5 39.85 27.55 39.85 27.65 39.8 27.7 39.75 27.8 39.7 27.85 39.65 27.95 39.6 28 39.55 28.1 39.45 28.15 39.35 28.25 39.25 28.3 39.2 28.4 39.1 28.45 39.05 28.55 38.95 28.6 38.9 28.7 38.8 28.75 38.75 28.85 38.65 28.9 38.6 29 38.55 29.05 38.5 29.15 38.45 29.2 38.4 29.3 38.3 29.35 38.25 29.45 38.15 29.5 38.1 29.6 38 29.65 37.95 29.75 37.85 29.8 37.85 29.9 37.8 29.95 37.75 30.05 37.65 30.1 37.6 30.2 37.5 30.25 37.45 30.35 37.35 30.4 37.3 30.5 37.25 30.55 37.25 30.65 37.2 30.7 37.15 30.8 37.1 30.85 37.05 30.95 37 31 36.95 31.1 36.85 31.15 36.8 31.25 36.7 31.3 36.65 31.4 36.6 31.45 36.55 31.55 36.45 31.6 36.35 31.7 36.25 31.75 36.2 31.85 36.1 31.9 36.05 32 36 32.05 36 32.15 35.95 32.2 35.9 32.3 35.85 32.35 35.8 32.45 35.75 32.5 35.65 32.6 35.55 32.65 35.5 32.75 35.4 32.8 35.35 32.9 35.25 32.95 35.25 33.05 35.2 33.1 35.15 33.2 35.1 33.25 35.05 33.35 34.95 33.4 34.9 33.5 34.8 33.55 34.75 33.65 34.7 33.7 34.65 33.8 34.55 33.85 34.5 33.95 34.45 34 34.4 34.1 34.35 34.15 34.3 34.25 34.25 34.3 34.2 34.4 34.15 34.45 34.1 34.55 34 34.6 33.95 34.7 33.85 34.75 33.8 34.85 33.75 34.9 33.65 35 33.55 35.05 33.5 35.15 33.4 35.2 33.35 35.3 33.25 35.35 33.2 35.45 33.15 35.5 33.1 35.6 33 35.65 32.95 35.75 32.9 35.8 32.85 35.9 32.8 35.95 32.75 36.05 32.65 36.1 32.65 36.2 32.6 36.25 32.55 36.35 32.45 36.4 32.35 36.5 32.25 36.55 32.15 36.65 32 36.7 31.95 36.8 31.85 36.85 31.8 36.95 31.7 37 31.65 37.1 31.55 37.15 31.5 37.25 31.4 37.3 31.35 37.4 31.25 37.45 31.15 37.55 31.05 37.6 30.95 37.7 30.85 37.75 30.75 37.85 30.6 37.9 30.55 38 30.45 38.05 30.35 38.15 30.25 38.2 30.2 38.3 30.1 38.35 30.05 38.45 29.95 38.5 29.9 38.6 29.8 38.65 29.75 38.75 29.65 38.8 29.5 38.9 29.35 38.95 29.15 39.05 28.9 39.1 28.8 39.2 28.65 39.25 28.55 39.35 28.45 39.4 28.3 39.5 28.15 39.55 28.05 39.65 27.9 39.7 27.8 39.8 27.7 39.85 27.6 39.95 27.45 40 27.35 40.1 27.2 40.15 27.1 40.25 26.95 40.3 26.8 40.4 26.65 40.45 26.55 40.55 26.45 40.6 26.35 40.7 26.2 40.75 26.1 40.85 26 40.9 25.85 41 25.7 41.05 25.6 41.15 25.45 41.2 25.35 41.3 25.2 41.35 25.1 41.45 25 41.5 24.85 41.6 24.7 41.65 24.55 41.75 24.4 41.8 24.25 41.9 24.1 41.95 23.95 42.05 23.8 42.1 23.7 42.2 23.55 42.25 23.5 42.35 23.45 42.4 23.4 42.5 23.3 42.55 23.25 42.65 23.15 42.7 23.05 42.8 22.95 42.85 22.85 42.95 22.75 43 22.6 43.1 22.45 43.15 22.35 43.25 22.2 43.3 22.1 43.4 22 43.45 21.95 43.55 21.9 43.6 21.85 43.55 21.85 43.5 21.85 43.45 21.8 43.35 21.75 43.3 21.7 43.2 21.7 43.15 21.7 43.05 21.7 43 21.65 42.9 21.65 42.85 21.6 42.75 21.55 42.7 21.5 42.6 21.5 42.55 21.45 42.45 21.45 42.4 21.4 42.3 21.4 42.25 21.35 42.15 21.35 42.1 21.3 42 21.3 41.95 21.3 41.85 21.3 41.8 21.25 41.7 21.25 41.65 21.2 41.55 21.2 41.5 21.15 41.4 21.15 41.35 21.15 41.25 21.15 41.2 21.15 41.1 21.15 41.05 21.1 40.95 21.1 40.9 21.1 40.8 21.1 40.75 21.05 40.65 21 40.6 20.95 40.5 20.95 40.45 20.9 40.35 20.9 40.3 20.9 40.2 20.9 40.15 20.85 40.05 20.8 40 20.75 39.9 20.75 39.85 20.75 39.75 20.75 39.7 20.7 39.6 20.7 39.55 20.65 39.45 20.65 39.4 20.6 39.3 20.55 39.25 20.5 39.15 20.5 39.1 20.5 39 20.5 38.95 20.45 38.85 20.4 38.8 20.35 38.7 20.3 38.65 20.25 38.55 20.2 38.5 20.1 38.4 20.1 38.35 20.1 38.25 20.1 38.2 20.05 38.1 20.05 38.05 20 37.95 19.95 37.9 19.9 37.8 19.9 37.75 19.9 37.65 19.9 37.6 19.85 37.5 19.85 37.45 19.8 37.35 19.75 37.3 19.7 37.2 19.7 37.15 19.7 37.05 19.7 37 19.65 36.9 19.65 36.85 19.6 36.75 19.55 36.7 19.5 36.6 19.5 36.55 19.45 36.45 19.45 36.4 19.4 36.3 19.4 36.25 19.35 36.15 19.35 36.1 19.3 36 19.3 35.95 19.3 35.85 19.3 35.8 19.25 35.7 19.25 35.65 19.2 35.55 19.15 35.5 19.05 35.4 19 35.35 18.95 35.25 18.95 35.2 18.9 35.1 18.9 35.05 18.9 34.95 18.9 34.9 18.9 34.8 18.9 34.75 18.9 34.65 18.9 34.6 18.85 34.5 18.85 34.45 18.8 34.35 18.8 34.3 18.75 34.2 18.75 34.15 18.7 34.05 18.7 34 18.7 33.9 18.7 33.85 18.7 33.75 18.7 33.7 18.65 33.6 18.65 33.55 18.6 33.45 18.6 33.4 18.55 33.3 18.55 33.25 18.5 33.15 18.5 33.1 18.5 33 18.5 32.95 18.45 32.85 18.45 32.8 18.45 32.7 18.4 32.65 18.35 32.55 18.35 32.5 18.3 32.4 18.3 32.35 18.3 32.25 18.3 32.2 18.25 32.1 18.25 32.05 18.2 31.95 18.2 31.9 18.15 31.8 18.15 31.75 18.1 31.65 18.1 31.6 18.05 31.5 18.05 31.45 18 31.35 18 31.3 17.95 31.2 17.95 31.15 17.9 31.05 17.9 31 17.85 30.9 17.85 30.85 17.8 30.75 17.8 30.7 17.75 30.6 17.75 30.55 17.7 30.45 17.7 30.4 17.65 30.3 17.65 30.25 17.6 30.15 17.6 30.1 17.55 30 17.55 29.95 17.5 29.85 17.5 29.8 17.45 29.7 17.45 29.65 17.4 29.55 17.4 29.5 17.35 29.4 17.3 29.35 17.25 29.25 17.2 29.2 17.15 29.1 17.1 29.05 17.05 28.95 17.05 28.9 17 28.8 16.95 28.75 16.9 28.65 16.9 28.6 16.9 28.5 16.9 28.45 16.9 28.35 16.9 28.3 16.9 28.2 16.9 28.15 16.85 28.05 16.85 28 16.85 27.9 16.8 27.85 16.75 27.75 16.75 27.7 16.7 27.6 16.6 27.55 16.5 27.45 16.4 27.4 16.25 27.3 16.2 27.25 16.1 27.15 16.1 27.1 16.1 27 16.1 26.95 16.1 26.85 16.1 26.8 16.1 26.7 16.1 26.65 16.1 26.55 16.1 26.5 16.05 26.4 16.05 26.35 16 26.25 16 26.2 15.95 26.1 15.9 26.05 15.85 25.95 15.75 25.9 15.65 25.8 15.5 25.75 15.3 25.7
L 15.3 25.75
Q 15.2 25.75 15.05 25.75 15 25.8 14.95 25.8 14.9 25.85 14.8 25.9 14.75 26 14.65 26.05 14.6 26.15 14.55 26.2 14.55 26.25 14.55 26.3 14.45 26.3 14.3 26.3
L 14.3 26.35
Q 14.15 26.35 14 26.35 13.9 26.4 13.8 26.45 13.65 26.55 13.5 26.6 13.35 26.7 13.2 26.75 13.05 26.85 12.9 26.9 12.75 27 12.6 27.05 12.45 27.15 12.3 27.2 12.2 27.3 12.05 27.35 11.95 27.45 11.85 27.5 11.75 27.6 11.6 27.65 11.5 27.75 11.4 27.8 11.35 27.9 11.25 27.95 11.2 28.05 11.1 28.1 11.05 28.2 10.95 28.25 10.9 28.35 10.8 28.4 10.75 28.5 10.65 28.55 10.6 28.65 10.5 28.7 10.4 28.8 10.3 28.85 10.25 28.95 10.15 29 10.05 29.1 9.95 29.15 9.85 29.25 9.7 29.3 9.65 29.4 9.55 29.45 9.5 29.55 9.4 29.6 9.3 29.7 9.2 29.75 9.05 29.85 8.9 29.9 8.85 30 8.75 30.05 8.7 30.15 8.65 30.2 8.6 30.3 8.5 30.35 8.35 30.45 8.2 30.5 8.15 30.6 8.05 30.65 7.95 30.75 7.8 30.8 7.7 30.9 7.55 30.95 7.5 31.05 7.4 31.1 7.3 31.2 7.2 31.25 7.1 31.35 7 31.4 6.9 31.5 6.75 31.55 6.7 31.65 6.6 31.7 6.55 31.8 6.45 31.85 6.4 31.95 6.35 32 6.2 32.1 6.05 32.15 5.95 32.25 5.85 32.3 5.75 32.4 5.65 32.45 5.6 32.55 5.5 32.6
L 5.5 32.55
Q 5.5 32.5 5.5 32.4 5.5 32.35 5.5 32.25 5.5 32.2 5.5 32.1 5.5 32.05 5.5 31.95 5.5 31.9 5.5 31.8 5.55 31.75 5.55 31.65 5.6 31.6 5.6 31.5 5.65 31.45 5.65 31.35 5.65 31.3 5.65 31.2 5.7 31.15 5.7 31.05 5.7 31 5.7 30.9 5.7 30.85 5.7 30.75 5.7 30.7 5.7 30.6 5.7 30.55 5.7 30.45 5.7 30.4 5.7 30.3 5.7 30.25 5.7 30.15 5.7 30.1 5.7 30 5.7 29.95 5.7 29.85 5.7 29.8 5.7 29.7 5.7 29.65 5.7 29.55 5.7 29.5 5.7 29.4 5.7 29.35 5.7 29.25 5.7 29.2 5.7 29.1 5.7 29.05 5.7 28.95 5.7 28.9 5.7 28.8 5.7 28.75 5.7 28.65 5.7 28.6 5.7 28.5 5.7 28.45 5.7 28.35 5.7 28.3 5.7 28.2 5.7 28.15 5.7 28.05 5.7 28 5.7 27.9 5.7 27.85 5.7 27.75 5.7 27.7 5.7 27.6 5.7 27.55 5.7 27.45 5.7 27.4 5.7 27.3 5.7 27.25 5.7 27.15 5.75 27.1 5.75 27 5.8 26.95 5.85 26.85 5.85 26.8 5.85 26.7 5.9 26.65 5.9 26.55 5.9 26.5 5.9 26.4 5.9 26.35 5.9 26.25 5.9 26.2 5.9 26.1 5.9 26.05 5.9 25.95 5.9 25.9 5.9 25.8 5.9 25.75 5.9 25.65 5.9 25.6 5.9 25.5 5.9 25.45 5.9 25.35 5.9 25.3 5.9 25.2 5.9 25.15 5.9 25.05 5.9 25 5.9 24.9 5.9 24.85 5.9 24.75 5.95 24.7 5.95 24.6 6 24.55 6 24.45 6 24.4 6 24.3 6.05 24.25 6.05 24.15 6.05 24.1 6.05 24 6.05 23.95 6.05 23.85 6.05 23.8 6.05 23.7 6.05 23.65 6.05 23.55 6.05 23.5 6.05 23.4 6.05 23.35 6.05 23.25 6.05 23.2 6.05 23.1 6.05 23.05 6.05 22.95 6.1 22.9 6.1 22.8 6.15 22.75 6.2 22.65 6.2 22.6 6.2 22.5 6.25 22.45 6.25 22.35 6.25 22.3 6.25 22.2 6.25 22.15 6.25 22.05 6.25 22 6.25 21.9 6.25 21.85 6.25 21.75 6.25 21.7 6.25 21.6 6.25 21.55 6.25 21.45 6.25 21.4 6.25 21.3 6.25 21.25 6.25 21.15 6.25 21.1 6.25 21 6.25 20.95 6.25 20.85 6.25 20.8 6.25 20.7 6.25 20.65 6.25 20.55 6.25 20.5 6.25 20.4 6.25 20.35 6.25 20.25 6.25 20.2 6.25 20.1 6.25 20.05 6.25 19.95 6.25 19.9 6.25 19.8 6.25 19.75 6.25 19.65 6.25 19.6 6.25 19.5 6.3 19.45 6.3 19.35 6.35 19.3 6.35 19.2 6.4 19.15 6.4 19.05 6.4 19 6.4 18.9 6.45 18.85 6.45 18.75 6.45 18.7 6.45 18.6 6.45 18.55 6.45 18.45 6.45 18.4 6.4 18.3 6.4 18.25 6.4 18.15 6.4 18.1 6.4 18 6.4 17.95 6.4 17.85 6.45 17.8 6.45 17.7 6.45 17.65 6.45 17.55 6.5 17.5 6.5 17.4 6.55 17.35 6.55 17.25 6.55 17.2 6.55 17.1 6.6 17.05 6.6 16.95 6.6 16.9 6.6 16.8 6.6 16.75 6.6 16.65 6.6 16.6 6.6 16.5 6.6 16.45 6.6 16.35 6.6 16.3 6.6 16.2 6.6 16.15 6.6 16.05 6.6 16 6.6 15.9 6.6 15.85 6.6 15.75 6.65 15.7 6.65 15.6 6.65 15.55 6.65 15.45 6.7 15.4 6.7 15.3 6.7 15.25 6.7 15.15 6.75 15.1 6.75 15 6.8 14.95 6.8 14.85 6.8 14.8 6.8 14.7 6.8 14.65 6.8 14.55 6.8 14.5 6.8 14.4 6.8 14.35 6.8 14.25 6.8 14.2 6.8 14.1 6.8 14.05 6.8 13.95 6.8 13.9 6.8 13.8 6.8 13.75 6.8 13.65 6.8 13.6 6.8 13.5 6.8 13.45 6.75 13.35 6.75 13.3 6.75 13.2 6.75 13.15 6.75 13.05 6.75 13 6.75 12.9 6.75 12.85 6.75 12.75 6.8 12.7 6.8 12.6 6.8 12.55 6.8 12.45 6.85 12.4 6.85 12.3 6.9 12.25 6.9 12.15 6.9 12.1 6.9 12 6.95 11.95 6.95 11.85 6.95 11.8 6.95 11.7 6.95 11.65 6.95 11.55 6.95 11.5 6.95 11.4 6.95 11.35 6.95 11.25 6.95 11.2 6.95 11.1 6.95 11.05 6.95 10.95 6.95 10.9 6.95 10.8 6.95 10.75 6.95 10.65 6.95 10.6 6.95 10.5 6.95 10.45 6.9 10.35 6.9 10.3 6.9 10.2 6.9 10.15 6.9 10.05 6.9 10 6.9 9.9 6.9 9.85 6.9 9.75 6.9 9.7 6.9 9.6 6.9 9.55 6.9 9.45 6.9 9.4 6.9 9.3 6.9 9.25 6.9 9.15 6.9 9.1 6.9 9 6.9 8.95 6.9 8.85 6.95 8.8 6.95 8.7 6.95 8.65 6.95 8.55 7 8.5 7 8.4 7 8.35 7 8.25 7.05 8.2 7.05 8.1 7.1 8.05 7.1 7.95 7.1 7.9 7.1 7.8 8.05 7.8 9 7.8 9.2 7.8 9.4 7.75 9.55 7.75 9.65 7.7 9.8 7.7 9.9 7.7 10.45 7.75 11 7.75 11.7 7.8 12.4 7.8 12.95 7.8 13.5 7.8 13.65 7.8 13.75 7.75 13.9 7.75 14 7.7 14.05 7.7 14.1 7.7 14.8 7.7 15.5 7.7 16 7.7 16.5 7.7 16.65 7.7 16.8 7.65 16.9 7.65 17 7.6 17.1 7.6 17.2 7.55 17.35 7.55 17.45 7.55 18.45 7.55 19.4 7.55 19.55 7.55 19.7 7.5 19.75 7.5 19.8 7.45 22.3 7.45 24.8 7.4 25.05 7.35 25.25 7.3 26.3 7.3 27.35 7.3 27.6 7.35 27.8 7.4 28.2 7.45 28.55 7.45 29.15 7.5 29.75 7.55 30 7.6 30.2 7.65 30.4 7.65 30.65 7.65 30.6 7.7 30.55 7.75 30.5 7.85 30.45 7.9 30.4 8 30.3 8.05 30.25 8.15 30.15 8.2 30.1 8.3 30 8.35 29.95 8.45 29.85 8.5 29.85 8.6 29.8 8.65 29.8 8.75 29.75 8.8 29.7 8.9 29.65 8.95 29.6 9.05 29.55 9.1 29.5 9.2 29.45 9.25 29.4 9.35 29.3 9.4 29.25 9.5 29.2 9.55 29.2 9.65 29.15 9.7 29.1 9.8 29.05 9.85 29 9.95 28.95 10 28.95 10.1 28.9 10.15 28.85 10.25 28.8 10.3 28.8 10.4 28.75 10.45 28.75 10.55 28.7 10.6 28.65 10.7 28.6 10.75 28.55 10.85 28.5 10.9 28.45 11 28.4 11.05 28.4 11.15 28.35 11.2 28.35 11.3 28.3 11.35 28.25 11.45 28.2 11.5 28.15 11.6 28.1 11.65 28.05 11.75 28 11.8 27.95 11.9 27.9 11.95 27.9 12.05 27.9 12.1 27.85 12.2 27.8 12.25 27.75 12.35 27.7 12.4 27.7 12.5 27.65 12.55 27.6 12.65 27.55 12.7 27.55 12.8 27.5 12.85 27.5 12.95 27.5 13 27.45 13.1 27.4 13.15 27.4 13.25 27.35 13.3 27.35 13.4 27.3 13.45 27.25 13.55 27.2 13.6 27.15 13.7 27.05 13.75 27 13.85 26.95 13.9 26.95 14 26.9 14.05 26.9 14.15 26.85 14.2 26.8 14.3 26.75 14.35 26.75 14.45 26.7 14.5 26.65 14.6 26.6 14.65 26.55 14.75 26.5 14.8 26.5 14.9 26.45 14.95 26.4 15.05 26.35 15.1 26.35 15.2 26.3 15.25 26.25 15.35 26.2 15.4 26.15 15.5 26.1 15.55 26.1 15.65 26.05 15.7 26 15.8 25.95 15.85 25.95 15.95 25.9 16 25.85 16.1 25.8 16.15 25.75 16.25 25.65 16.3 25.6 16.4 25.55 16.45 25.55 16.55 25.5 16.6 25.5 16.7 25.45 16.75 25.4 16.85 25.35 16.9 25.35 17 25.3 17.05 25.3 17.15 25.25 17.2 25.2 17.3 25.15 17.35 25.1 17.45 25.05 17.5 25 17.6 24.95 17.65 24.9 17.75 24.85 17.8 24.8 17.9 24.75 17.95 24.75 18.05 24.7 18.1 24.65 18.2 24.6 18.25 24.55 18.35 24.5 18.4 24.5 18.5 24.45 18.55 24.4 18.65 24.3 18.7 24.25 18.8 24.15 18.85 24.1 18.95 24.05 19 24 19.1 23.95 19.15 23.95 19.25 23.9 19.3 23.85 19.4 23.8 19.45 23.75 19.55 23.7 19.6 23.7 19.7 23.7 19.75 23.7 19.85 23.65 19.9 23.7 20 23.7 20.05 23.7 20.15 23.7 20.2 23.75 20.3 23.8 20.35 23.8 20.45 23.8 20.5 23.85 20.65 23.9 20.8 23.9 20.95 23.9 21.1 24 21.25 24.1 21.4 24.2 21.55 24.3 21.7 24.5 21.85 24.7 22 25.1 22.1 25.5 22.2 25.7 22.15 25.9 22.1 26.2 22.15 26.5 22.2 26.8 22.25 27.1 22.3 27.2 22.3 27.3 22.35 27.45 22.4 27.6 22.45 27.85 22.5 28.1 22.5 28.15 22.5 28.2 22.55 28.25 22.55 28.3 22.6 28.45 22.65 28.6 22.7 29.05 22.75 29.5 22.75 29.7 22.8 29.9 22.8 30.2 22.85 30.5 22.9 31 22.95 31.5 23 32.1 23 32.7 23 32.9 22.95 33.15 22.9 33.8 22.9 34.45 22.9 34.7 22.9 34.9 22.9 35.05 22.9 35.15 22.85 35.25 22.85 35.3 22.85 35.45 22.85 35.55 22.8 35.6 22.8 35.65 22.75 35.8 22.8 36 22.8 36.2 22.85 36.4 22.9 37.25 22.95 38.05 22.95 38.55 23 39 23.05 39.2 23.1 39.4 23.15 39.8 23.2 40.2 23.25 40.4 23.3 40.6 23.35
M 4.45 36.55
L 4.4 36.6 4.4 36.55 4.45 36.55 Z"/>

<path fill="#FFFFFF" stroke="none" d="
M 41.6 23.4
Q 41.1 23.4 40.6 23.35 40.4 23.3 40.2 23.25 39.8 23.2 39.4 23.15 39.2 23.1 39 23.05 38.55 23 38.05 22.95 37.25 22.95 36.4 22.9 36.2 22.85 36 22.8 35.8 22.8 35.65 22.75 35.6 22.8 35.55 22.8 35.45 22.85 35.3 22.85 35.25 22.85 35.15 22.85 35.05 22.9 34.9 22.9 34.7 22.9 34.45 22.9 33.8 22.9 33.15 22.9 32.9 22.95 32.7 23 32.1 23 31.5 23 31 22.95 30.5 22.9 30.2 22.85 29.9 22.8 29.7 22.8 29.5 22.75 29.05 22.75 28.6 22.7 28.45 22.65 28.3 22.6 28.25 22.55 28.2 22.55 28.15 22.5 28.1 22.5 27.85 22.5 27.6 22.45 27.45 22.4 27.3 22.35 27.2 22.3 27.1 22.3 26.8 22.25 26.5 22.2 26.2 22.15 25.9 22.1 25.7 22.15 25.5 22.2 25.1 22.1 24.7 22 24.5 21.85 24.3 21.7 24.2 21.55 24.1 21.4 24 21.25 23.9 21.1 23.9 20.95 23.9 20.8 23.85 20.65 23.8 20.5 23.8 20.45 23.8 20.35 23.75 20.3 23.7 20.2 23.7 20.15 23.7 20.05 23.7 20 23.65 19.9 23.7 19.85 23.7 19.75 23.7 19.7 23.7 19.6 23.75 19.55 23.8 19.45 23.85 19.4 23.9 19.3 23.95 19.25 23.95 19.15 24 19.1 24.05 19 24.1 18.95 24.15 18.85 24.25 18.8 24.3 18.7 24.4 18.65 24.45 18.55 24.5 18.5 24.5 18.4 24.55 18.35 24.6 18.25 24.65 18.2 24.7 18.1 24.75 18.05 24.75 17.95 24.8 17.9 24.85 17.8 24.9 17.75 24.95 17.65 25 17.6 25.05 17.5 25.1 17.45 25.15 17.35 25.2 17.3 25.25 17.2 25.3 17.15 25.3 17.05 25.35 17 25.35 16.9 25.4 16.85 25.45 16.75 25.5 16.7 25.5 16.6 25.55 16.55 25.55 16.45 25.6 16.4 25.65 16.3 25.75 16.25 25.8 16.15 25.85 16.1 25.9 16 25.95 15.95 25.95 15.85 26 15.8 26.05 15.7 26.1 15.65 26.1 15.55 26.15 15.5 26.2 15.4 26.25 15.35 26.3 15.25 26.35 15.2 26.35 15.1 26.4 15.05 26.45 14.95 26.5 14.9 26.5 14.8 26.55 14.75 26.6 14.65 26.65 14.6 26.7 14.5 26.75 14.45 26.75 14.35 26.8 14.3 26.85 14.2 26.9 14.15 26.9 14.05 26.95 14 26.95 13.9 27 13.85 27.05 13.75 27.15 13.7 27.2 13.6 27.25 13.55 27.3 13.45 27.35 13.4 27.35 13.3 27.4 13.25 27.4 13.15 27.45 13.1 27.5 13 27.5 12.95 27.5 12.85 27.55 12.8 27.55 12.7 27.6 12.65 27.65 12.55 27.7 12.5 27.7 12.4 27.75 12.35 27.8 12.25 27.85 12.2 27.9 12.1 27.9 12.05 27.9 11.95 27.95 11.9 28 11.8 28.05 11.75 28.1 11.65 28.15 11.6 28.2 11.5 28.25 11.45 28.3 11.35 28.35 11.3 28.35 11.2 28.4 11.15 28.4 11.05 28.45 11 28.5 10.9 28.55 10.85 28.6 10.75 28.65 10.7 28.7 10.6 28.75 10.55 28.75 10.45 28.8 10.4 28.8 10.3 28.85 10.25 28.9 10.15 28.95 10.1 28.95 10 29 9.95 29.05 9.85 29.1 9.8 29.15 9.7 29.2 9.65 29.2 9.55 29.25 9.5 29.3 9.4 29.4 9.35 29.45 9.25 29.5 9.2 29.55 9.1 29.6 9.05 29.65 8.95 29.7 8.9 29.75 8.8 29.8 8.75 29.8 8.65 29.85 8.6 29.85 8.5 29.95 8.45 30 8.35 30.1 8.3 30.15 8.2 30.25 8.15 30.3 8.05 30.4 8 30.45 7.9 30.5 7.85 30.55 7.75 30.6 7.7 30.65 7.65 30.4 7.65 30.2 7.65 30 7.6 29.75 7.55 29.15 7.5 28.55 7.45 28.2 7.45 27.8 7.4 27.6 7.35 27.35 7.3 26.3 7.3 25.25 7.3 25.05 7.35 24.8 7.4 22.3 7.45 19.8 7.45 19.75 7.5 19.7 7.5 19.55 7.55 19.4 7.55 18.45 7.55 17.45 7.55 17.35 7.55 17.2 7.55 17.1 7.6 17 7.6 16.9 7.65 16.8 7.65 16.65 7.7 16.5 7.7 16 7.7 15.5 7.7 14.8 7.7 14.1 7.7 14.05 7.7 14 7.7 13.9 7.75 13.75 7.75 13.65 7.8 13.5 7.8 12.95 7.8 12.4 7.8 11.7 7.8 11 7.75 10.45 7.75 9.9 7.7 9.8 7.7 9.65 7.7 9.55 7.75 9.4 7.75 9.2 7.8 9 7.8 8.05 7.8 7.1 7.8 7.1 7.9 7.1 7.95 7.1 8.05 7.05 8.1 7.05 8.2 7 8.25 7 8.35 7 8.4 7 8.5 6.95 8.55 6.95 8.65 6.95 8.7 6.95 8.8 6.9 8.85 6.9 8.95 6.9 9 6.9 9.1 6.9 9.15 6.9 9.25 6.9 9.3 6.9 9.4 6.9 9.45 6.9 9.55 6.9 9.6 6.9 9.7 6.9 9.75 6.9 9.85 6.9 9.9 6.9 10 6.9 10.05 6.9 10.15 6.9 10.2 6.9 10.3 6.9 10.35 6.95 10.45 6.95 10.5 6.95 10.6 6.95 10.65 6.95 10.75 6.95 10.8 6.95 10.9 6.95 10.95 6.95 11.05 6.95 11.1 6.95 11.2 6.95 11.25 6.95 11.35 6.95 11.4 6.95 11.5 6.95 11.55 6.95 11.65 6.95 11.7 6.95 11.8 6.95 11.85 6.95 11.95 6.9 12 6.9 12.1 6.9 12.15 6.9 12.25 6.85 12.3 6.85 12.4 6.8 12.45 6.8 12.55 6.8 12.6 6.8 12.7 6.75 12.75 6.75 12.85 6.75 12.9 6.75 13 6.75 13.05 6.75 13.15 6.75 13.2 6.75 13.3 6.75 13.35 6.8 13.45 6.8 13.5 6.8 13.6 6.8 13.65 6.8 13.75 6.8 13.8 6.8 13.9 6.8 13.95 6.8 14.05 6.8 14.1 6.8 14.2 6.8 14.25 6.8 14.35 6.8 14.4 6.8 14.5 6.8 14.55 6.8 14.65 6.8 14.7 6.8 14.8 6.8 14.85 6.8 14.95 6.75 15 6.75 15.1 6.7 15.15 6.7 15.25 6.7 15.3 6.7 15.4 6.65 15.45 6.65 15.55 6.65 15.6 6.65 15.7 6.6 15.75 6.6 15.85 6.6 15.9 6.6 16 6.6 16.05 6.6 16.15 6.6 16.2 6.6 16.3 6.6 16.35 6.6 16.45 6.6 16.5 6.6 16.6 6.6 16.65 6.6 16.75 6.6 16.8 6.6 16.9 6.6 16.95 6.6 17.05 6.55 17.1 6.55 17.2 6.55 17.25 6.55 17.35 6.5 17.4 6.5 17.5 6.45 17.55 6.45 17.65 6.45 17.7 6.45 17.8 6.4 17.85 6.4 17.95 6.4 18 6.4 18.1 6.4 18.15 6.4 18.25 6.4 18.3 6.45 18.4 6.45 18.45 6.45 18.55 6.45 18.6 6.45 18.7 6.45 18.75 6.45 18.85 6.4 18.9 6.4 19 6.4 19.05 6.4 19.15 6.35 19.2 6.35 19.3 6.3 19.35 6.3 19.45 6.25 19.5 6.25 19.6 6.25 19.65 6.25 19.75 6.25 19.8 6.25 19.9 6.25 19.95 6.25 20.05 6.25 20.1 6.25 20.2 6.25 20.25 6.25 20.35 6.25 20.4 6.25 20.5 6.25 20.55 6.25 20.65 6.25 20.7 6.25 20.8 6.25 20.85 6.25 20.95 6.25 21 6.25 21.1 6.25 21.15 6.25 21.25 6.25 21.3 6.25 21.4 6.25 21.45 6.25 21.55 6.25 21.6 6.25 21.7 6.25 21.75 6.25 21.85 6.25 21.9 6.25 22 6.25 22.05 6.25 22.15 6.25 22.2 6.25 22.3 6.25 22.35 6.25 22.45 6.2 22.5 6.2 22.6 6.2 22.65 6.15 22.75 6.1 22.8 6.1 22.9 6.05 22.95 6.05 23.05 6.05 23.1 6.05 23.2 6.05 23.25 6.05 23.35 6.05 23.4 6.05 23.5 6.05 23.55 6.05 23.65 6.05 23.7 6.05 23.8 6.05 23.85 6.05 23.95 6.05 24 6.05 24.1 6.05 24.15 6.05 24.25 6 24.3 6 24.4 6 24.45 6 24.55 5.95 24.6 5.95 24.7 5.9 24.75 5.9 24.85 5.9 24.9 5.9 25 5.9 25.05 5.9 25.15 5.9 25.2 5.9 25.3 5.9 25.35 5.9 25.45 5.9 25.5 5.9 25.6 5.9 25.65 5.9 25.75 5.9 25.8 5.9 25.9 5.9 25.95 5.9 26.05 5.9 26.1 5.9 26.2 5.9 26.25 5.9 26.35 5.9 26.4 5.9 26.5 5.9 26.55 5.9 26.65 5.85 26.7 5.85 26.8 5.85 26.85 5.8 26.95 5.75 27 5.75 27.1 5.7 27.15 5.7 27.25 5.7 27.3 5.7 27.4 5.7 27.45 5.7 27.55 5.7 27.6 5.7 27.7 5.7 27.75 5.7 27.85 5.7 27.9 5.7 28 5.7 28.05 5.7 28.15 5.7 28.2 5.7 28.3 5.7 28.35 5.7 28.45 5.7 28.5 5.7 28.6 5.7 28.65 5.7 28.75 5.7 28.8 5.7 28.9 5.7 28.95 5.7 29.05 5.7 29.1 5.7 29.2 5.7 29.25 5.7 29.35 5.7 29.4 5.7 29.5 5.7 29.55 5.7 29.65 5.7 29.7 5.7 29.8 5.7 29.85 5.7 29.95 5.7 30 5.7 30.1 5.7 30.15 5.7 30.25 5.7 30.3 5.7 30.4 5.7 30.45 5.7 30.55 5.7 30.6 5.7 30.7 5.7 30.75 5.7 30.85 5.7 30.9 5.7 31 5.7 31.05 5.7 31.15 5.65 31.2 5.65 31.3 5.65 31.35 5.65 31.45 5.6 31.5 5.6 31.6 5.55 31.65 5.55 31.75 5.5 31.8 5.5 31.9 5.5 31.95 5.5 32.05 5.5 32.1 5.5 32.2 5.5 32.25 5.5 32.35 5.5 32.4 5.5 32.5 5.5 32.55
L 5.5 32.6
Q 5.6 32.55 5.65 32.45 5.75 32.4 5.85 32.3 5.95 32.25 6.05 32.15 6.2 32.1 6.35 32 6.4 31.95 6.45 31.85 6.55 31.8 6.6 31.7 6.7 31.65 6.75 31.55 6.9 31.5 7 31.4 7.1 31.35 7.2 31.25 7.3 31.2 7.4 31.1 7.5 31.05 7.55 30.95 7.7 30.9 7.8 30.8 7.95 30.75 8.05 30.65 8.15 30.6 8.2 30.5 8.35 30.45 8.5 30.35 8.6 30.3 8.65 30.2 8.7 30.15 8.75 30.05 8.85 30 8.9 29.9 9.05 29.85 9.2 29.75 9.3 29.7 9.4 29.6 9.5 29.55 9.55 29.45 9.65 29.4 9.7 29.3 9.85 29.25 9.95 29.15 10.05 29.1 10.15 29 10.25 28.95 10.3 28.85 10.4 28.8 10.5 28.7 10.6 28.65 10.65 28.55 10.75 28.5 10.8 28.4 10.9 28.35 10.95 28.25 11.05 28.2 11.1 28.1 11.2 28.05 11.25 27.95 11.35 27.9 11.4 27.8 11.5 27.75 11.6 27.65 11.75 27.6 11.85 27.5 11.95 27.45 12.05 27.35 12.2 27.3 12.3 27.2 12.45 27.15 12.6 27.05 12.75 27 12.9 26.9 13.05 26.85 13.2 26.75 13.35 26.7 13.5 26.6 13.65 26.55 13.8 26.45 13.9 26.4 14 26.35 14.15 26.35 14.3 26.35
L 14.3 26.3
Q 14.45 26.3 14.55 26.3 14.55 26.25 14.55 26.2 14.6 26.15 14.65 26.05 14.75 26 14.8 25.9 14.9 25.85 14.95 25.8 15 25.8 15.05 25.75 15.2 25.75 15.3 25.75
L 15.3 25.7
Q 15.5 25.75 15.65 25.8 15.75 25.9 15.85 25.95 15.9 26.05 15.95 26.1 16 26.2 16 26.25 16.05 26.35 16.05 26.4 16.1 26.5 16.1 26.55 16.1 26.65 16.1 26.7 16.1 26.8 16.1 26.85 16.1 26.95 16.1 27 16.1 27.1 16.1 27.15 16.2 27.25 16.25 27.3 16.4 27.4 16.5 27.45 16.6 27.55 16.7 27.6 16.75 27.7 16.75 27.75 16.8 27.85 16.85 27.9 16.85 28 16.85 28.05 16.9 28.15 16.9 28.2 16.9 28.3 16.9 28.35 16.9 28.45 16.9 28.5 16.9 28.6 16.9 28.65 16.95 28.75 17 28.8 17.05 28.9 17.05 28.95 17.1 29.05 17.15 29.1 17.2 29.2 17.25 29.25 17.3 29.35 17.35 29.4 17.4 29.5 17.4 29.55 17.45 29.65 17.45 29.7 17.5 29.8 17.5 29.85 17.55 29.95 17.55 30 17.6 30.1 17.6 30.15 17.65 30.25 17.65 30.3 17.7 30.4 17.7 30.45 17.75 30.55 17.75 30.6 17.8 30.7 17.8 30.75 17.85 30.85 17.85 30.9 17.9 31 17.9 31.05 17.95 31.15 17.95 31.2 18 31.3 18 31.35 18.05 31.45 18.05 31.5 18.1 31.6 18.1 31.65 18.15 31.75 18.15 31.8 18.2 31.9 18.2 31.95 18.25 32.05 18.25 32.1 18.3 32.2 18.3 32.25 18.3 32.35 18.3 32.4 18.35 32.5 18.35 32.55 18.4 32.65 18.45 32.7 18.45 32.8 18.45 32.85 18.5 32.95 18.5 33 18.5 33.1 18.5 33.15 18.55 33.25 18.55 33.3 18.6 33.4 18.6 33.45 18.65 33.55 18.65 33.6 18.7 33.7 18.7 33.75 18.7 33.85 18.7 33.9 18.7 34 18.7 34.05 18.75 34.15 18.75 34.2 18.8 34.3 18.8 34.35 18.85 34.45 18.85 34.5 18.9 34.6 18.9 34.65 18.9 34.75 18.9 34.8 18.9 34.9 18.9 34.95 18.9 35.05 18.9 35.1 18.95 35.2 18.95 35.25 19 35.35 19.05 35.4 19.15 35.5 19.2 35.55 19.25 35.65 19.25 35.7 19.3 35.8 19.3 35.85 19.3 35.95 19.3 36 19.35 36.1 19.35 36.15 19.4 36.25 19.4 36.3 19.45 36.4 19.45 36.45 19.5 36.55 19.5 36.6 19.55 36.7 19.6 36.75 19.65 36.85 19.65 36.9 19.7 37 19.7 37.05 19.7 37.15 19.7 37.2 19.75 37.3 19.8 37.35 19.85 37.45 19.85 37.5 19.9 37.6 19.9 37.65 19.9 37.75 19.9 37.8 19.95 37.9 20 37.95 20.05 38.05 20.05 38.1 20.1 38.2 20.1 38.25 20.1 38.35 20.1 38.4 20.2 38.5 20.25 38.55 20.3 38.65 20.35 38.7 20.4 38.8 20.45 38.85 20.5 38.95 20.5 39 20.5 39.1 20.5 39.15 20.55 39.25 20.6 39.3 20.65 39.4 20.65 39.45 20.7 39.55 20.7 39.6 20.75 39.7 20.75 39.75 20.75 39.85 20.75 39.9 20.8 40 20.85 40.05 20.9 40.15 20.9 40.2 20.9 40.3 20.9 40.35 20.95 40.45 20.95 40.5 21 40.6 21.05 40.65 21.1 40.75 21.1 40.8 21.1 40.9 21.1 40.95 21.15 41.05 21.15 41.1 21.15 41.2 21.15 41.25 21.15 41.35 21.15 41.4 21.2 41.5 21.2 41.55 21.25 41.65 21.25 41.7 21.3 41.8 21.3 41.85 21.3 41.95 21.3 42 21.35 42.1 21.35 42.15 21.4 42.25 21.4 42.3 21.45 42.4 21.45 42.45 21.5 42.55 21.5 42.6 21.55 42.7 21.6 42.75 21.65 42.85 21.65 42.9 21.7 43 21.7 43.05 21.7 43.15 21.7 43.2 21.75 43.3 21.8 43.35 21.85 43.45 21.85 43.5 21.85 43.55 21.9 43.6 21.95 43.55 22 43.45 22.1 43.4 22.2 43.3 22.35 43.25 22.45 43.15 22.6 43.1 22.75 43 22.85 42.95 22.95 42.85 23.05 42.8 23.15 42.7 23.25 42.65 23.3 42.55 23.4 42.5 23.45 42.4 23.5 42.35 23.55 42.25 23.7 42.2 23.8 42.1 23.95 42.05 24.1 41.95 24.25 41.9 24.4 41.8 24.55 41.75 24.7 41.65 24.85 41.6 25 41.5 25.1 41.45 25.2 41.35 25.35 41.3 25.45 41.2 25.6 41.15 25.7 41.05 25.85 41 26 40.9 26.1 40.85 26.2 40.75 26.35 40.7 26.45 40.6 26.55 40.55 26.65 40.45 26.8 40.4 26.95 40.3 27.1 40.25 27.2 40.15 27.35 40.1 27.45 40 27.6 39.95 27.7 39.85 27.8 39.8 27.9 39.7 28.05 39.65 28.15 39.55 28.3 39.5 28.45 39.4 28.55 39.35 28.65 39.25 28.8 39.2 28.9 39.1 29.15 39.05 29.35 38.95 29.5 38.9 29.65 38.8 29.75 38.75 29.8 38.65 29.9 38.6 29.95 38.5 30.05 38.45 30.1 38.35 30.2 38.3 30.25 38.2 30.35 38.15 30.45 38.05 30.55 38 30.6 37.9 30.75 37.85 30.85 37.75 30.95 37.7 31.05 37.6 31.15 37.55 31.25 37.45 31.35 37.4 31.4 37.3 31.5 37.25 31.55 37.15 31.65 37.1 31.7 37 31.8 36.95 31.85 36.85 31.95 36.8 32 36.7 32.15 36.65 32.25 36.55 32.35 36.5 32.45 36.4 32.55 36.35 32.6 36.25 32.65 36.2 32.65 36.1 32.75 36.05 32.8 35.95 32.85 35.9 32.9 35.8 32.95 35.75 33 35.65 33.1 35.6 33.15 35.5 33.2 35.45 33.25 35.35 33.35 35.3 33.4 35.2 33.5 35.15 33.55 35.05 33.65 35 33.75 34.9 33.8 34.85 33.85 34.75 33.95 34.7 34 34.6 34.1 34.55 34.15 34.45 34.2 34.4 34.25 34.3 34.3 34.25 34.35 34.15 34.4 34.1 34.45 34 34.5 33.95 34.55 33.85 34.65 33.8 34.7 33.7 34.75 33.65 34.8 33.55 34.9 33.5 34.95 33.4 35.05 33.35 35.1 33.25 35.15 33.2 35.2 33.1 35.25 33.05 35.25 32.95 35.35 32.9 35.4 32.8 35.5 32.75 35.55 32.65 35.65 32.6 35.75 32.5 35.8 32.45 35.85 32.35 35.9 32.3 35.95 32.2 36 32.15 36 32.05 36.05 32 36.1 31.9 36.2 31.85 36.25 31.75 36.35 31.7 36.45 31.6 36.55 31.55 36.6 31.45 36.65 31.4 36.7 31.3 36.8 31.25 36.85 31.15 36.95 31.1 37 31 37.05 30.95 37.1 30.85 37.15 30.8 37.2 30.7 37.25 30.65 37.25 30.55 37.3 30.5 37.35 30.4 37.45 30.35 37.5 30.25 37.6 30.2 37.65 30.1 37.75 30.05 37.8 29.95 37.85 29.9 37.85 29.8 37.95 29.75 38 29.65 38.1 29.6 38.15 29.5 38.25 29.45 38.3 29.35 38.4 29.3 38.45 29.2 38.5 29.15 38.55 29.05 38.6 29 38.65 28.9 38.75 28.85 38.8 28.75 38.9 28.7 38.95 28.6 39.05 28.55 39.1 28.45 39.2 28.4 39.25 28.3 39.35 28.25 39.45 28.15 39.55 28.1 39.6 28 39.65 27.95 39.7 27.85 39.75 27.8 39.8 27.7 39.85 27.65 39.85 27.55 39.95 27.5 40 27.4 40.05 27.35 40.1 27.25 40.15 27.2 40.2 27.1 40.25 27.05 40.25 26.95 40.35 26.9 40.4 26.8 40.5 26.75 40.55 26.65 40.65 26.6 40.7 26.5 40.8 26.45 40.85 26.35 40.95 26.3 41 26.2 41.05 26.15 41.1 26.05 41.15 26 41.2 25.9 41.25 25.85 41.25 25.75 41.35 25.7 41.4 25.6 41.45 25.55 41.5 25.45 41.55 25.4 41.6 25.3 41.65 25.25 41.65 25.15 41.75 25.1 41.8 25 41.85 24.95 41.9 24.85 41.95 24.8 42 24.7 42.05 24.65 42.05 24.55 42.15 24.5 42.2 24.4 42.25 24.35 42.25 24.25 42.3 24.2 42.3 24.1 42.35 24.05 42.35 23.95 42.4 23.9 42.45 23.8 42.5 23.75 42.55 23.65 42.6 23.6 42.65 23.5
L 42.7 23.45
Q 42.15 23.45 41.6 23.4 Z"/>
</g>

<g id="Label_0_Layer0_0_FILL">
<path fill="#000000" stroke="none" d="
M 1689.4 46.3
Q 1683 44.65 1675.4 44.45 1595.15 42.35 1515.85 54.35
L 1512.4 51.7
Q 1506.9 55.1 1505.9 61.6 1504.55 70.5 1504.2 79.7 1504.2 80.3 1504.2 80.9 1504.2 86.9 1503.9 92.9 1503.4 102.1 1504.4 111.5
L 1509.2 116.3 1578.6 116.3 1558.2 272.1 1561.6 275.5
Q 1601.1 278.45 1641.2 273.25 1651.25 272.1 1659.4 269.5 1661.55 260.95 1659.15 252 1652.2 226.15 1646.55 199.95 1640.75 172.85 1631.7 146.6 1626.5 131.65 1623.8 116.1
L 1683.75 115.55 1691 54.7 1689.4 46.3
M 1653.2 259.3
L 1653.2 259.5
Q 1652.75 258.6 1653.2 259.3
M 1652.4 255.7
L 1652.4 255.9
Q 1651.75 253.65 1652.4 255.7
M 1651.6 252.1
L 1651.6 252.3
Q 1651 248.25 1651.6 252.1
M 1650.8 247.3
L 1650.8 247.5
Q 1650.3 246.5 1650.8 247.3
M 1671.8 102.9
Q 1653.75 104.25 1634.4 104.3 1619.85 103.2 1612.4 111.5
L 1640.2 258.1 1573.4 264.7 1594.6 107.7
Q 1594.05 106.25 1592.65 105.65 1580.85 100.65 1567.6 100.35 1540.35 99.7 1516.8 101.9
L 1517 68.3 1522.4 64.5
Q 1526.2 64.4 1529.95 63.95 1532.75 63.55 1535.6 63.1 1569.65 64.75 1603.45 61.2 1641.1 57.7 1675 63.3
L 1671.8 102.9
M 1393.45 129.85
Q 1382.9 154.15 1372.4 178.35 1357.9 211.9 1345.9 246.25 1341.2 259.75 1337 273.1
L 1400.95 277.45 1426.65 212.7 1434.85 212.85 1457.8 276.1 1464.2 278 1538.8 274.3 1433.6 50.45
Q 1411.65 88.2 1393.45 129.85
M 1364.1 226
Q 1363.95 226.3 1363.7 226.55 1364.9 224.6 1364.1 226
M 1505.8 225.15
L 1505.9 225.25
Q 1507.25 227.6 1505.8 225.15
M 1507.4 228.05
L 1507.5 228.2
Q 1508.7 232.25 1507.4 228.05
M 1429.2 82.9
L 1433.25 78.6 1438.8 97.2 1514.75 262.7 1467.2 261.85 1450.65 212.5 1453.5 207
Q 1447.2 200.35 1437.05 201 1424.4 202.35 1413.4 204.05
L 1391.25 265.75 1352.85 260.85 1429.2 82.9
M 1383.85 261.75
Q 1383.84296875 261.80703125 1383.8 261.85 1383.650390625 264.3431640625 1383.85 261.75
M 1429 112.75
Q 1427.35 112.75 1426.75 114.45 1415.35 147.2 1411.35 181.6
L 1414.95 186.5 1442.2 185.5 1452.95 186
Q 1454.1 182.15 1452.95 178.1 1445.6 151.55 1435.4 125.65 1432.3 117.85 1429 112.75
M 1439.1 178.2
L 1424.25 179.15 1428.5 134.25 1439.1 178.2
M 1854.6 31.05
Q 1854 30.1 1852.95 29.85 1838.65 27.55 1823.8 30.1 1781.4 37 1739.1 43.7 1730.3 45.15 1721.9 48 1710.75 51.75 1703.6 47.9
L 1699.2 54.05 1702.4 275.35
Q 1707.6 278.1 1713.85 277.05 1758.6 270.7 1803.85 269.7 1826.3 268.4 1844.8 259.35
L 1850.8 221.45 1849.6 211.55 1841.4 208.95 1762.4 215.95 1761 183.35
Q 1792.6 176.3 1825.4 175.55 1843.7 175.15 1844.3 156.55 1844.85 139.95 1843.6 125.1
L 1835.65 121.3 1755.8 134.95 1755.4 110.45 1853 97.45 1854.6 31.05
M 1841.4 78.2
L 1840 86.65
Q 1790.75 82.05 1747.2 100.9 1746.5 101.85 1746.5 103.15 1746.5 104.9 1745.45 106.8 1744.2 109.05 1743.55 111.65 1739.35 129 1743.4 145.9
L 1753.4 147.65 1830.2 137.75 1825.8 162.65
Q 1820.3 163.1 1813.4 163 1780.4 162.55 1752.6 176.25 1751.5 179 1750.55 181.95 1749.4 185.5 1749.3 189.35 1749.25 191.75 1749.1 194.3 1748 212.35 1751.4 229.55
L 1832.6 228.55 1826.2 245.9 1827.8 251.25
Q 1826.2 256.3 1820.45 256.8 1791.2 260.2 1763.15 259.6 1738.85 258.6 1717.2 260.2
L 1709.45 61.05 1843.2 47.75 1841.4 78.2
M 1723.4 266.95
L 1723.15 266.9
Q 1725.7 266.55 1723.4 266.95
M 1834.8 256.55
Q 1834.8 256.6 1834.8 256.7 1834.4 255.4 1834.8 256.55
M 173.95 6
Q 172.95 2.3 169.3 1.55 152.65 -1.85 134.55 2.2 122.65 5 111 7.75 99.3 10.5 99.8 6.7
L 5.2 30.5
Q 4.4 30.7 4.2 31.15 0.45 39.75 0.1 50.1 -0.25 61.7 0.85 73.1 5.8 123.45 11.05 173.7 16 221.3 20.95 268.55 23.45 292.7 39.8 311.1 40.7 311 41.6 310.9 47.65 310.8 54.15 312.55 85.3 320.55 108.8 300.1
L 108.6 292.5 105.6 289.3 77.7 207.05
Q 122.05 199.75 165.8 191.6 174.2 190.1 176.45 194.25
L 185.6 183.3
Q 189.8 154.9 179.4 128.7 157.7 121.3 134.85 123.45 100.3 126.65 69.05 132.85
L 66.35 102.05
Q 72.3 100.6 78.15 100.75 115.95 101.85 150.4 90.5
L 171.05 87.8 175.4 88.75 181.7 84.45
Q 183 49.85 171.05 16 175.5 11.65 173.95 6
M 172.65 131.1
Q 172.45 131.65 172.4 131.15
L 172.65 131.1
M 174.2 140.5
L 171 178.3
Q 118.35 181.5 68.95 197.15
L 61.15 200.75 63.45 208.65 68.8 210.5 89.6 297.5
Q 69.9 307.25 48.15 304.15 49.2 300.1 48.25 296.35 32.3 235 24.5 171.85 16.8 109.35 9.2 46.9 20.6 40.25 36.35 36.7 79.8 27.05 124.15 21.5 143.5 18.9 160.35 21 167.6 48.95 165.7 77.8 133.9 83.95 101.35 84.4 87.55 84.6 73.8 83.5 53.55 82.45 50.65 98.35
L 55.4 104.3 55.55 136.35
Q 57.4 139.15 60.15 141.35 67.2 147.2 76.2 145.7 125.45 137.25 174.2 140.5
M 8.8 35.9
Q 10 37.15 8.8 36.1
L 8.8 35.9
M 405.3 261.2
Q 408.55 246.7 405.65 231.75 397.65 222.8 386 224.7 334.4 233.65 285.6 252.2
L 267.4 106.3 266.15 84.4 269.25 78 258.45 71.1 210.7 84.3 200.8 86.15
Q 199.55 85.4 198.3 85.9 196.95 86.6 196.7 87.75 190.7 113.4 194.55 140.55 198.75 169.95 203.2 199.45 205.75 216.3 207.1 233.25 210.45 275.25 217.3 316.05
L 220 318.25
Q 233.1 317.9 246.5 311.65 261.1 304.9 276.55 301.15 323.45 289.9 370.6 278.3 374.35 277.3 378.05 278.1 387.5 279.85 399.45 273.15 403.85 267.65 405.3 261.2
M 384.8 245.7
L 380.7 261.7 239.55 298.2
Q 238.5 290.85 237.25 283.55 236 275.95 234.35 268.55 225.1 227.2 218.55 185.25 212.15 144.55 210.3 103.85
L 245.75 94.65 248.35 92.75 255.35 93.55
Q 256.4 143.6 260.1 193.05 261.55 212.45 263.1 231.35 264.55 248.65 272.4 262.95
L 281.5 267.85
Q 301.35 259.65 323.75 255.65 341.05 252.35 358.1 248.3 373.05 244.6 384.8 245.7
M 253.8 303.4
Q 252.25 304.25 253.55 303.45
L 253.8 303.4
M 521.2 113.05
Q 521.35 112.6 521.15 113.1
L 521.2 113.05
M 576 65.95
L 570.6 63.9
Q 564.1 66.4 559.2 71.8 528.35 105.45 503.05 141.35
L 499.7 137.95
Q 500.4 149.4 499.2 135.6
L 455.4 64.7 446.9 57.7
Q 418.35 81.55 400.25 114
L 465.4 174.4 406.55 229.95 448.9 290.5 457.05 292
Q 459.05 289.55 460.9 287.1 485.95 253.05 498.4 213.1
L 560.6 292.3
Q 562.05 292.3 563.1 291.6 571.1 286.3 577.8 278.75 595.8 258.4 603.35 234.3
L 529.2 174.1 608.3 120 576 65.95
M 529.45 113.95
Q 528.6 114.5 529.7 113.65 529.6 113.8 529.45 113.95
M 519.95 168.2
L 523.2 183.3 581.65 242.7 564.45 266.55 505.6 209 500.2 200.1 491.6 202.9 450.8 269.6 424.8 230.55 480.15 181.3 480 172.9
Q 453.9 138.35 421.3 112.1
L 448.9 77.1 496 150.3 501.1 150.75
Q 501.5 151.9 502.1 151.65 513.4 147.5 522.6 137.5 547.85 110.05 572.65 82.75
L 585.65 116.85 519.95 168.2
M 594.45 243.75
Q 593.75 245.45 594.25 243.95
L 594.45 243.75
M 551.75 270.05
Q 548.6 266.95 551.65 269.9
L 551.75 270.05
M 728.35 3.35
L 722.6 6.05
Q 721.95 11.8 720.7 17.3 716.75 35.2 708.4 52 680.2 108.75 656.6 166.45 650.75 180.85 642.2 194.65 616.7 236.05 607.7 281.85
L 694.55 282.75 697.05 278.95
Q 697 278.4 696.85 277.9 696.45 276.55 696.6 275.95 705.4 240.3 717.85 205.25
L 737 203.25 760.65 284.2 769.9 286.5 812.75 281.5 821.45 278.05 824.45 272.05
Q 801 216.6 778.45 158.9 771.3 140.55 764.85 122.15 745.1 65.55 733.95 5.9
L 728.35 3.35
M 727.75 38.55
Q 725.7 40.75 727.75 38.35 727.8 38.45 727.75 38.55
M 709.45 194.85
L 707.4 197.1 700 199.3 682.2 266.1 632.85 266.5
Q 648.4 229.8 662.75 193.25 673.05 167.1 684.35 140.95 705.2 92.6 728.05 46.3 730.45 77.55 741.2 106.5 753.3 139 764.3 171.95 780.45 220.25 800.3 267.7
L 771.55 272.7 747.55 202.5 744 195.95 713.55 193.4 709.45 194.85
M 790.55 221.5
Q 789.75 219.7 790.95 222.1 790.7 221.8 790.55 221.5
M 796.65 237.1
Q 796.35 236.45 796.65 237
L 796.65 237.1
M 641.95 223.95
Q 640.45 229.05 641.85 224.1
L 641.95 223.95
M 715.35 106.65
Q 707.65 140.8 705.3 175.7
L 738.7 181.6 743.8 176.9 729.5 92.4 725.15 90.4
Q 717.9 95.5 715.35 106.65
M 714.95 166.8
L 723.4 124.15 730.8 167.9 714.95 166.8
M 973.7 278.45
L 978.25 264.35 982.95 69.15 938.7 68 936.8 71.95
Q 941.7 77.65 941.25 86.7 938.55 139.85 940.1 193.2 936 189.35 932.05 184.6 908.05 155.7 886.35 124.9 877.75 112.65 868.9 100.55 858.6 86.5 844.95 86.15 844.4 86.65 844.35 87.2 841.35 112.5 841.65 138.7 842.3 202.75 848.1 265.85
L 849.15 274
Q 864.1 274.3 879.6 274.35 888.2 274.4 896.65 275.9 909.3 277.8 919.45 272.4
L 919.65 267.5 891.5 188.5
Q 912.45 218.75 938.5 244.1 947.85 253.15 955.2 263.8 962.85 274.95 973.7 278.45
M 951.45 82.1
L 969.15 85.7 966 248.15 887.1 172.1 882.05 170.1
Q 877.8 178.5 880.65 188.9 890.2 223.65 901.8 257.8
L 862.6 260.45 856.35 101.7
Q 879 136.9 903.7 170.35 919.3 191.45 939.6 205.3
L 942.9 204.15
Q 948.25 205.25 948.5 199.9 948.95 190.5 950 181.35 955.55 132.15 951.45 82.1
M 1120.25 291
L 1120.5 290.8 1120.05 290.8 1120.25 291
M 1073.4 69.5
L 1057.5 65.7 1011.7 71.1 1009.3 75.3 1007.6 84.5 1009.65 88.7
Q 1008.7 125.55 1008.35 162.5 1007.8 222.4 1015.35 280.7 1021.95 283.8 1028.8 283 1039.2 282.05 1049.55 283.3 1068.9 285.2 1082.95 279.3
L 1073.4 69.5
M 1014.9 87.05
Q 1015.1 89.1 1014.9 87.5 1014.9 87.25 1014.9 87.05
M 1021 85.9
L 1063 85.1 1066 265.1 1028.6 270.1 1021 85.9
M 1328.2 267.6
Q 1325.2 272.55 1328.45 267.5
L 1328.2 267.6
M 1306.6 46.7
Q 1302.2 48.6 1298.8 52.25 1289.2 62.5 1282.55 74.95 1274.2 90.4 1265.8 105.3 1236.95 156.65 1214.1 209.6 1196.5 185.7 1181.55 158.95 1153.45 108.7 1113.2 69.7 1106.9 71 1106.55 80.25 1104.65 128.55 1107.7 177 1111 228.8 1114.2 280.7 1120.6 285.25 1129.4 287.1 1136.35 288.8 1143.45 288.95 1159.85 289.55 1176.2 289.65 1190 289.7 1197.8 280.9
L 1196 275.3 1195.6 250.1 1219.4 267.5 1239 241.1 1242.6 278.9 1322.4 270.1 1306.6 46.7
M 1297 86
L 1301 261.1 1254 267.3
Q 1250 255.75 1250.35 243.3 1250.65 231.55 1242 226.7
L 1234 232.1 1218.6 250.9 1196.2 239.5 1185 248.9 1185.4 271.7
Q 1158.35 280.05 1131.2 271.7
L 1115.8 93.3 1181.4 189.9 1213.2 226.3 1218.8 226.1 1226.5 221 1297 86 Z"/>

<path fill="#1DE2E2" stroke="none" d="
M 1634.4 104.3
Q 1653.75 104.25 1671.8 102.9
L 1675 63.3
Q 1641.1 57.7 1603.45 61.2 1569.65 64.75 1535.6 63.1 1532.75 63.55 1529.95 63.95 1526.2 64.4 1522.4 64.5
L 1517 68.3 1516.8 101.9
Q 1540.35 99.7 1567.6 100.35 1580.85 100.65 1592.65 105.65 1594.05 106.25 1594.6 107.7
L 1573.4 264.7 1640.2 258.1 1612.4 111.5
Q 1619.85 103.2 1634.4 104.3
M 707.4 197.1
L 709.45 194.85 713.55 193.4 744 195.95 747.55 202.5 771.55 272.7 800.3 267.7
Q 780.45 220.25 764.3 171.95 753.3 139 741.2 106.5 730.45 77.55 728.05 46.3 705.2 92.6 684.35 140.95 673.05 167.1 662.75 193.25 648.4 229.8 632.85 266.5
L 682.2 266.1 700 199.3 707.4 197.1
M 705.3 175.7
Q 707.65 140.8 715.35 106.65 717.9 95.5 725.15 90.4
L 729.5 92.4 743.8 176.9 738.7 181.6 705.3 175.7 Z"/>

<path fill="#42E430" stroke="none" d="
M 1433.25 78.6
L 1429.2 82.9 1352.85 260.85 1391.25 265.75 1413.4 204.05
Q 1424.4 202.35 1437.05 201 1447.2 200.35 1453.5 207
L 1450.65 212.5 1467.2 261.85 1514.75 262.7 1438.8 97.2 1433.25 78.6
M 1426.75 114.45
Q 1427.35 112.75 1429 112.75 1432.3 117.85 1435.4 125.65 1445.6 151.55 1452.95 178.1 1454.1 182.15 1452.95 186
L 1442.2 185.5 1414.95 186.5 1411.35 181.6
Q 1415.35 147.2 1426.75 114.45
M 1383.8 261.85
Q 1383.84296875 261.80703125 1383.85 261.75 1383.650390625 264.3431640625 1383.8 261.85
M 523.2 183.3
L 519.95 168.2 585.65 116.85 572.65 82.75
Q 547.85 110.05 522.6 137.5 513.4 147.5 502.1 151.65 501.5 151.9 501.1 150.75
L 496 150.3 448.9 77.1 421.3 112.1
Q 453.9 138.35 480 172.9
L 480.15 181.3 424.8 230.55 450.8 269.6 491.6 202.9 500.2 200.1 505.6 209 564.45 266.55 581.65 242.7 523.2 183.3 Z"/>

<path fill="#0B3CFF" stroke="none" d="
M 1840 86.65
L 1841.4 78.2 1843.2 47.75 1709.45 61.05 1717.2 260.2
Q 1738.85 258.6 1763.15 259.6 1791.2 260.2 1820.45 256.8 1826.2 256.3 1827.8 251.25
L 1826.2 245.9 1832.6 228.55 1751.4 229.55
Q 1748 212.35 1749.1 194.3 1749.25 191.75 1749.3 189.35 1749.4 185.5 1750.55 181.95 1751.5 179 1752.6 176.25 1780.4 162.55 1813.4 163 1820.3 163.1 1825.8 162.65
L 1830.2 137.75 1753.4 147.65 1743.4 145.9
Q 1739.35 129 1743.55 111.65 1744.2 109.05 1745.45 106.8 1746.5 104.9 1746.5 103.15 1746.5 101.85 1747.2 100.9 1790.75 82.05 1840 86.65
M 969.15 85.7
L 951.45 82.1
Q 955.55 132.15 950 181.35 948.95 190.5 948.5 199.9 948.25 205.25 942.9 204.15
L 939.6 205.3
Q 919.3 191.45 903.7 170.35 879 136.9 856.35 101.7
L 862.6 260.45 901.8 257.8
Q 890.2 223.65 880.65 188.9 877.8 178.5 882.05 170.1
L 887.1 172.1 966 248.15 969.15 85.7 Z"/>

<path fill="#FF3C63" stroke="none" d="
M 171 178.3
L 174.2 140.5
Q 125.45 137.25 76.2 145.7 67.2 147.2 60.15 141.35 57.4 139.15 55.55 136.35
L 55.4 104.3 50.65 98.35
Q 53.55 82.45 73.8 83.5 87.55 84.6 101.35 84.4 133.9 83.95 165.7 77.8 167.6 48.95 160.35 21 143.5 18.9 124.15 21.5 79.8 27.05 36.35 36.7 20.6 40.25 9.2 46.9 16.8 109.35 24.5 171.85 32.3 235 48.25 296.35 49.2 300.1 48.15 304.15 69.9 307.25 89.6 297.5
L 68.8 210.5 63.45 208.65 61.15 200.75 68.95 197.15
Q 118.35 181.5 171 178.3
M 1063 85.1
L 1021 85.9 1028.6 270.1 1066 265.1 1063 85.1 Z"/>

<path fill="#FFCC33" stroke="none" d="
M 380.7 261.7
L 384.8 245.7
Q 373.05 244.6 358.1 248.3 341.05 252.35 323.75 255.65 301.35 259.65 281.5 267.85
L 272.4 262.95
Q 264.55 248.65 263.1 231.35 261.55 212.45 260.1 193.05 256.4 143.6 255.35 93.55
L 248.35 92.75 245.75 94.65 210.3 103.85
Q 212.15 144.55 218.55 185.25 225.1 227.2 234.35 268.55 236 275.95 237.25 283.55 238.5 290.85 239.55 298.2
L 380.7 261.7
M 1301 261.1
L 1297 86 1226.5 221 1218.8 226.1 1213.2 226.3 1181.4 189.9 1115.8 93.3 1131.2 271.7
Q 1158.35 280.05 1185.4 271.7
L 1185 248.9 1196.2 239.5 1218.6 250.9 1234 232.1 1242 226.7
Q 1250.65 231.55 1250.35 243.3 1250 255.75 1254 267.3
L 1301 261.1 Z"/>
</g>
</defs>

<g transform="matrix( 0.7294464111328125, 0, 0, 0.729461669921875, 15.3,41.85) ">
<g transform="matrix( 1, 0, 0, 1, 0,0) ">
<use xlink:href="#FlxAnimateFlash_0_Layer1_0_FILL"/>
</g>

<g transform="matrix( 1, 0, 0, 1, 326.1,326.3) ">
<g transform="matrix( 1, 0, 0, 1, 0,0) ">
<use xlink:href="#Arroe_0_Layer0_0_FILL"/>
</g>
</g>

<g transform="matrix( -1, 0, 0, -1, 217,211.4) ">
<g transform="matrix( 1, 0, 0, 1, 0,0) ">
<use xlink:href="#Arroe_0_Layer0_0_FILL"/>
</g>
</g>

<g transform="matrix( 0, -1, 1, 0, 332.7,221.95) ">
<g transform="matrix( 1, 0, 0, 1, 0,0) ">
<use xlink:href="#Arroe_0_Layer0_0_FILL"/>
</g>
</g>

<g transform="matrix( 0, 1, -1, 0, 220.5,330.7) ">
<g transform="matrix( 1, 0, 0, 1, 0,0) ">
<use xlink:href="#Arroe_0_Layer0_0_FILL"/>
</g>
</g>
</g>

<g transform="matrix( 0.7294464111328125, 0, 0, 0.729461669921875, 462.45,133.3) ">
<g transform="matrix( 1, 0, 0, 1, 0,0) ">
<use xlink:href="#Label_0_Layer0_0_FILL"/>
</g>
</g>
</svg>
