<svg id="Capa_1" data-name="Capa 1" xmlns="http://www.w3.org/2000/svg" viewBox="0 0 566.929 566.929"><path d="M496.445,566.929c-.383-1.042-1.149-.541-1.721-.549-15.6-.212-31.2-.423-46.8-.545-4.19-.033-7.971-1.792-11.76-3.609-12.614-6.05-24.531-13.862-36.448-21.649-12.006-7.844-23.824-16.1-35.381-24.9-2.6-1.976-3.325-5.59-1.751-9.11a49.036,49.036,0,0,1,6.377-10.063c11.928-15.328,24.956-29.222,38.085-42.966,10.483-10.973,20.884-22.01,30.63-34,15.319-18.846,30.661-37.686,46.942-55.324,1.875-2.031,3.275-3.916,2.924-7.149-.128-1.177-.024-2.626,1.036-3.006s1.645.971,2.259,1.831c2.938,4.114,4.184,9.331,6.019,14.138,2.084,5.457,4.03,11.03,5.612,16.727,3.013,10.853,7.573,20.676,12.586,30.278,5.087,9.743,9.9,19.695,14.68,29.669a34.114,34.114,0,0,1,3.449,17.8c-2.35,31.523-.477,63.12-1.069,94.675-.028,1.449-.051,2.9.009,4.348a3.74,3.74,0,0,1-1.326,3.4ZM365.054,512.974c1.605.162,2.707.24,3.8.389,8.193,1.108,15.7,4.906,23.076,9.038,16.295,9.126,31.46,20.726,46.784,31.982,2.91,2.137,5.422,4.908,9.5,4.813,14.481-.338,28.974-.094,43.461.138,10.532.17,21.061.646,31.589,1.047,1.7.064,2.508.063,1.893-2.682a45.876,45.876,0,0,1-.77-14.788c.724-6.988,1.5-13.981,1.907-21,.609-10.575.311-21.187.2-31.777-.1-9.455.314-18.78,2.454-27.921.147-.624.574-1.38-.233-2.132-4.966-4.634-7.853-11.239-10.819-17.674-8.041-17.441-14.554-35.78-21.013-54.141-2.438-6.929-4.774-13.91-7.189-20.963-3.243,4.415-6.273,8.751-9.485,12.877-11.044,14.188-22.558,27.808-34.2,41.254-12.45,14.377-25.084,28.517-37.667,42.722-8.823,9.962-17.708,19.844-26.542,29.792C376.3,500.136,370.85,506.384,365.054,512.974Z" style="fill:#05090b"/><path d="M566.929,56.913c-1,3.384-.908,6.978-1.326,10.47-1.97,16.468-1.213,33.059-1.341,49.605-.044,5.785-.426,11.584.116,17.369.211,2.249-1.193,3.416-2.114,5.032q-5.957,10.453-11.524,21.234c-11.161,21.674-20.8,44.257-27.234,68.723a23.591,23.591,0,0,0-.643,3.413c-.52,4.634-3.681,6.891-7.332,5.274-2.77-1.227-5.011-3.473-7.218-5.741-9.457-9.723-17.63-20.991-25.936-32.1-9.048-12.1-17.356-25.093-27.368-36.039-12.893-14.1-25.357-28.717-37.561-43.676-8.221-10.077-16.482-20.118-24.137-30.853a4.293,4.293,0,0,0-2.671-1.657,2.741,2.741,0,0,1-2.024-2.214c-.347-1.542.74-1.752,1.478-2.231,8.727-5.659,17.325-11.6,25.886-17.623,14.666-10.315,29.251-20.816,44.586-29.632,3.674-2.111,7.415-4.046,11.11-6.1.925-.515,1.823-.758,2.221-2.473.346-1.485,2.1-2.242,3.5-2.246,16.948-.059,33.913-.6,50.836.179,9.741.451,19.514,1.405,29.257,2.392,1.762.178,3.538-.084,5.3.56a1.973,1.973,0,0,1,1.545,1.921c.3,3.925,2.047,7.352,2.6,11.191ZM397.37,86.933c9.994,9.087,18.124,19.91,26.264,30.713,8.8,11.674,17.383,23.66,27.675,33.421,8.169,7.747,14.951,17.039,21.752,26.378,10.744,14.752,21.109,29.938,33.307,43.017a137.079,137.079,0,0,0,10.888,10.832c.31-1.858.159-3.386.424-4.908,1.743-9.975,5.372-19.065,8.828-28.231,4.727-12.538,10.932-24.155,15.434-36.848,3.64-10.262,8.415-19.551,16.515-25.584.645-.48.7-.888.35-1.7-2.922-6.8-2.887-14.1-2.3-21.449.717-9,2.029-17.958,2.27-26.967.435-16.27-.234-32.586,1.507-48.8.129-1.2,0-1.878-1.194-1.825-9.9.445-19.7-1.471-29.548-1.865-16.85-.675-33.725-.494-50.589-.674a2.921,2.921,0,0,0-2.088.615,128.142,128.142,0,0,1-12.815,8.655c-14.083,8.966-28.911,16.18-42.009,27.468A157.192,157.192,0,0,1,397.37,86.933Z" style="fill:#120709"/><path d="M270.862,449.954c-1.714-.269-3.433-.668-3.03-3.827.137-1.076-.718-1.515-1.213-2.118q-23.09-28.142-46.2-56.258-24.924-30.484-49.739-61.1-14.343-17.656-28.621-35.392a6.935,6.935,0,0,0-1.388-1.309c-1.9-1.331-2.282-3.518-.956-5.75,7.4-12.456,16.45-23.077,25.445-33.72,19.93-23.58,39.986-47.006,60.555-69.761,13.134-14.53,26.128-29.287,40.515-42.024.7-.617.528-1.718,1.654-2.151,3.74-1.437,6.66,1.183,9.7,2.646,3.466,1.67,6.311,4.834,8.6,8.409,10.488,16.363,23.245,29.942,35.832,43.734,14.082,15.431,27.911,31.2,41.695,47.02,10.274,11.8,20.506,23.644,29.869,36.546a48.7,48.7,0,0,1,4.676,7.574,3.4,3.4,0,0,0,.958,1.434c1.983,1.419,2.321,2.76,1.208,5.345a49.145,49.145,0,0,1-4.767,8.161C385.735,312,374.772,325.389,363.9,338.9c-11.807,14.667-24.556,28.2-35.535,43.862-8.874,12.659-17.28,25.806-26.567,38.034-7.114,9.368-14.3,18.667-23.169,25.675C276.324,448.287,273.892,449.823,270.862,449.954ZM394.3,288.293a1.418,1.418,0,0,0-.667-1.18c-9.631-9.551-18.506-20.119-27.442-30.59q-19.517-22.869-38.741-46.107-27.335-32.973-54.493-66.16c-3.3-4.01-3.283-4.028-6.452.008-.411.524-.833,1.035-1.259,1.541-8.3,9.849-16.668,19.624-24.9,29.56q-20.267,24.46-41,48.334c-8.593,9.869-17.046,19.917-25.606,29.827q-14.05,16.266-28.181,32.427c-.674.775-1.688,1.293-.149,2.479,9.576,7.379,17.981,16.541,26.168,26,8.2,9.47,15.974,19.464,23.825,29.362,11.618,14.649,24.231,28.036,36.238,42.193,9.829,11.588,19.4,23.482,28.542,35.883,3.963,5.378,7.906,10.827,10.811,17.169.92,2.009,1.307,1.666,2.37.359,12.014-14.79,24.008-29.6,36.115-44.282,22.388-27.138,44.01-55.174,65.825-82.984,5.9-7.524,11.92-14.911,17.882-22.365C393.59,289.255,393.973,288.721,394.3,288.293Z" style="fill:#050a08"/><path d="M2.6,101.363c.014-.362-.09-.926.059-1.055,2.538-2.187.646-4.813.262-7A204.788,204.788,0,0,1,.008,58.594C-.052,41.577.241,24.557.414,7.539a23.207,23.207,0,0,1,.422-4.01C1.431.363,2.421-.232,5.111.07c6.572.737,13.156,1.305,19.735,1.943Q37.926,3.281,51.008,4.55c8.28.8,16.562,1.566,24.842,2.359,5.543.531,11.187.466,16.6,1.8,4.907,1.215,9.632,3.744,14.306,6.083,17.86,8.938,34.506,20.623,50.56,33.613,5,4.05,9.949,8.21,14.676,12.728,1.337,1.278,2.368,1.582,3.9.415.847-.647,2.087-2.313,3.085-.84.962,1.418.082,3.026-.8,4.36-6.16,9.326-13.124,17.751-20.011,26.244q-20.595,25.4-41.43,50.513c-11.407,13.754-23.014,27.261-34.449,40.982Q67.988,199.959,53.4,216.731a5.445,5.445,0,0,1-7.955.334,32.383,32.383,0,0,1-6.2-8.818C32.278,195.093,27.22,180.77,22.3,166.382,15.221,145.7,9.064,124.587,2.97,103.45A6.563,6.563,0,0,1,2.6,101.363Zm166.467-34.24a7.831,7.831,0,0,0-.637-.493c-10.541-6.213-20.725-13.235-30.889-20.3-14.355-9.973-28.675-20.02-43.017-30.018a5.163,5.163,0,0,0-2.457-1.17C85.7,14.6,79.335,14.009,72.973,13.413Q57.55,11.966,42.129,10.489c-10.428-1-20.848-2.126-31.282-3.017-5.236-.447-5.258-.265-5.018,6.387.425,11.834.78,23.674,1.321,35.5C7.912,66,8.254,82.634,7.912,99.29c-.026,1.3.367,2.892-.677,3.778-.971.826-.48,1.443-.16,2.25,1.356,3.412,2.725,6.818,4.027,10.26,4.928,13.02,9.187,26.428,14.818,39.035,5.808,13,11.709,25.947,17.186,39.166,2.377,5.739,4.636,11.551,7,17.452,2-3.212,3.813-6.3,5.768-9.249,12.028-18.158,25.844-34.193,40.079-49.7,7.527-8.2,15.381-15.957,22.916-24.149,9.657-10.5,18.3-22.238,27.221-33.634C153.461,85.08,160.829,75.651,169.062,67.123Z" style="fill:#0d0c08"/><path d="M96.234,541.713c-20.573-.472-41.141-.9-61.715-1.082-8.244-.071-16.489-.019-24.733-.172-2.146-.04-4.733-2.8-3.875-4.29.993-1.721.489-3.061.245-4.511-1.014-6.015-.529-12.054-.421-18.1.338-18.83-1.324-37.608-1.048-56.44.085-5.785.186-11.566.091-17.359-.065-3.983,1.569-7.65,2.739-11.332,8.451-26.581,18.092-52.454,30.691-76.572,3.316-6.348,7.405-11.92,11.432-17.562a7.793,7.793,0,0,1,2-1.619c.479-.34,1-.128.969.533-.089,1.887,1.2,2.33,2.087,3.163,7.44,6.986,13.956,15.181,20.51,23.32,16.179,20.093,31.19,41.552,48.051,60.855q15.748,18.032,31.216,36.427c7.451,8.837,14.5,18.155,21.426,27.606.6.817,1,1.744,2.138.9.76-.56,1.155.043,1.24,1.119.2,2.546-.933,3.7-2.534,5.189a156.581,156.581,0,0,1-18.731,14.553C139.7,518.819,121.038,530.458,101.541,540A14.441,14.441,0,0,1,96.234,541.713ZM51.055,339.356c-1.465,3.3-2.849,6.378-4.2,9.477C39.179,366.375,30.841,383.5,25,402.168c-3.554,11.349-7.1,22.735-12.606,32.978-1.452,2.7-3.2,5.159-1.845,8.72a4.7,4.7,0,0,1,.009,1.886,127.5,127.5,0,0,0-.484,14.281c.306,13.472.568,26.947.92,40.42.259,9.953.372,19.917.115,29.879-.088,3.415-.026,3.418,2.888,3.418q39.808,0,79.618.013c.725,0,1.69-.44,2.138.26,1.141,1.781,2.09.715,3.162.022,19.523-12.622,39.166-24.961,59.034-36.763,4.665-2.771,9.322-5.566,14.194-8.476A162.77,162.77,0,0,1,154.18,470.2c-11.641-13.6-22.908-27.658-34.05-41.866-8.621-10.994-17.334-21.88-26.039-32.776C79.492,377.283,64.584,359.362,51.055,339.356Z" style="fill:#07060a"/><path d="M392.342,391.545c8.7,6.664,15.794,15.146,22.783,23.778.9,1.108,1.522,2.592,3.118,2.745.924.089.669,1.4.688,2.264.033,1.423-.115,2.9-1.4,3.323a4.666,4.666,0,0,0-2.254,1.976c-6.521,8.9-13.082,17.762-20.871,25.1-2.28,2.149-3.349,2.038-5.143-.854-4.167-6.717-7.338-14.172-10.623-21.538-1.941-4.351-3.908-8.685-5.78-13.078-.581-1.364-.988-1.542-1.8-.292-1.588,2.453-3.962,3.864-5.473,6.577-.975,1.749-3.175.93-4.818.519-1.415-.354-.786-1.922-.81-2.952-.165-7.05-.187-14.1-.4-21.153-.157-5.325.718-10.616.284-15.968-.044-.534-.484-4.41,2.382-2.75.437.253,1.3-.672,1.993-.97,6.332-2.736,12.929-3.759,19.579-4.274,5.248-.406,10.5-.963,15.777-.334,1.475.175,1.887.742,1.879,2.452-.013,2.743-1.208,4.784-2.444,6.8A57.827,57.827,0,0,1,392.342,391.545Zm1.038,50.644a89.2,89.2,0,0,1,17.383-20.695c-2.037-2.1-4.065-4.075-5.981-6.2-5.73-6.344-10.61-13.662-15.808-20.618-2.254-3.014-2.523-4.667-.872-8.231.827-1.786,1.76-3.5,2.747-5.443a10.727,10.727,0,0,0-1.429.1c-8.387,1.794-16.724,4.064-25.3,4.137-1.4.012-1.124.916-1,1.9.464,3.75.951,7.5,1.386,11.25.375,3.244.691,6.5,1.068,10.076,1.665-1.948,2.776-4.026,4.49-5.317,1-.751,2.439-1.418,2.992-.1.9,2.154,2.607,2.8,3.92,4.148,4.539,4.645,7.425,10.736,10.131,16.986A150.645,150.645,0,0,1,393.38,442.189Z" style="fill:#0c0b0d"/><path d="M172.372,170.093c3.3-4.241,6.65-8.062,10.961-10.326,3.494-1.835,4.411-1.274,5.171,3.286,1.472,8.827,2.957,17.652,4.3,26.509a67.167,67.167,0,0,1,.424,7.835c.061,1.875-.491,3.13-2.145,3.833-6.84,2.906-13.815,5.269-20.727,7.88-4.3,1.623-8.631,3.125-12.953,4.661-3.729,1.326-4.259-.241-4.681-4.669-.707-7.414,3.036-12.108,5.575-17.632.425-.923.714-1.384-.346-2.01-9.9-5.842-18.806-13.664-27.934-21.041-1.045-.845-1.957-1.663-3.551-1.278-2.064.5-3.19-2.444-2.041-5.015a33.9,33.9,0,0,1,5.034-7.555c5.814-7.126,12-13.761,18.28-20.259a5.113,5.113,0,0,0,1.671-3.571c.09-1.816.739-2.329,2.2-1.26,1.7,1.24,3.254,2.018,3.361,5.188.07,2.083,1.76,4.067,2.673,6.13,1.194,2.7,2.331,5.433,3.5,8.145,1.436,3.32,2.787,6.578,5.253,9.178C169.282,161.159,170.505,165.752,172.372,170.093Zm10.568-1.306c-2.579,2.959-5.1,5.591-7.36,8.517-2.245,2.9-3.326,3.126-5.658.186a72.506,72.506,0,0,1-7.622-12.649,233.111,233.111,0,0,1-9.807-23.623c-.57-1.542-.913-1.959-2.036-.512-2.243,2.89-4.6,5.649-7,8.36-4.048,4.587-8.156,9.093-12.295,13.7,11.011,5.5,20.879,13.128,30.63,21.006a4.865,4.865,0,0,0,2.345,1.294c2.643.408,3.413,2.255,2.147,5.194-1.132,2.63-2.5,5.108-3.791,7.637-1.134,2.228-2.3,4.433-3.736,7.2,10.075-3.788,19.958-4.777,29.9-6.154C185.306,189.245,184.5,179.074,182.94,168.787Z" style="fill:#0d0d0e"/><path d="M133.707,373.216c-3.2-5.8-5.275-12.117-8.185-17.866a2.828,2.828,0,0,1-.142-2.333c.367-.885,1.159-.472,1.786-.36a4.957,4.957,0,0,1,1.494.426c8.871,4.785,18.368,6.992,27.671,9.989,3.567,1.149,7.159,2.23,10.787,3.025,1.836.4,2.444,1.649,2.76,3.552a121.33,121.33,0,0,1,1.31,18.865c.072,8.058-.168,16.124.02,24.176.092,3.916-1.752,4.487-4.3,3.975-2.21-.444-3.813-2.318-5.248-4.32a56.289,56.289,0,0,1-5.278-9.045c-.517-1.111-.8-1.634-1.889-.585-6.692,6.434-13.43,12.807-20.777,18.121-.923.668-.86,1.487-.876,2.459-.019,1.138.255,2.5-1.069,2.876a2.466,2.466,0,0,1-3.11-1.3c-3.545-5.8-6.573-12.012-9.761-18.095-1.914-3.652-3.724-7.387-5.7-10.989-2.169-3.961-1.714-7.5,1.6-10.387A75.5,75.5,0,0,1,133.707,373.216Zm2.265-10.7c.942,2.9,1.792,5.553,2.67,8.19.16.481.357,1.178.669,1.311,2.051.874,1.065,2.883,1.084,4.393.02,1.636-1.256,1.392-2.147,1.639a3.506,3.506,0,0,0-1.228.557c-6.2,4.8-12.356,9.691-18.862,14.148a160.954,160.954,0,0,1,9.572,17.188c.831,1.69,1.7,3.355,2.547,5.031,1.363-1.193,2.757-2.338,4.085-3.588,6.278-5.91,12.657-11.648,19.288-16.963,2.755-2.208,3.344-2.034,5.687.55,2.477,2.731,4.1,6.281,6.569,9.831a232.756,232.756,0,0,1,.48-31.1c.151-1.783-.893-1.336-1.587-1.4a34.007,34.007,0,0,1-13.932-3.97A66.777,66.777,0,0,0,135.972,362.519Z" style="fill:#0d0d0e"/><path d="M392.827,222.085c-3.725.957-7.4.025-11.109-.051-2.535-.052-3.5-1.642-2.877-4.637.377-1.8-.161-3.388-.191-5.075a140.966,140.966,0,0,1,2.69-29.276,13.143,13.143,0,0,1,1.266-2.8c.286-.673.759-.734,1.275-.171,2.61,2.842,6.192,4,8.539,7.321.642.91.822-.15,1.077-.587,6.675-11.419,15.364-20.316,24.384-28.771,1.13-1.059,1.507-1.744.9-3.418-1.1-3.037-.13-4.574,2.5-4.115a7.415,7.415,0,0,1,4.611,2.948c2.821,3.6,4.522,7.985,6.227,12.4.909,2.354,1.338,4.877,3.072,6.918,1.272,1.5-.2,3.672-1.329,5.123-5.427,6.96-11.3,13.354-17.07,19.879-1.084,1.226-2.771,2.264-3.084,3.735-.328,1.541,1.458,2.885,2.171,4.438,1.474,3.216,3.059,6.357,4.514,9.585.963,2.137-.45,5.524-2.462,5.728-3.839.389-7.691.682-11.543.8C401.872,222.186,397.348,222.085,392.827,222.085Zm28.917-59.95a8.454,8.454,0,0,0-.73.758c-8.262,11.151-16.668,22.106-26.279,31.614-1.984,1.962-3.636,1.917-5.641.8-1.382-.771-2.376-2.233-3.729-3.478,0,6.845.052,13.353-.037,19.858-.022,1.592.364,1.9,1.582,1.918,4.523.082,9.043.377,13.566.484,3.654.086,7.311.017,10.936.017-1.191-2.666-2.371-5.563-3.746-8.314-1.277-2.552-1.184-4.916.508-6.924,6.43-7.634,12.7-15.478,19.7-22.364.5-.493.861-.852.312-1.692A95.9,95.9,0,0,1,421.744,162.135Z" style="fill:#0c0b0d"/><path d="M365.054,512.974c5.8-6.59,11.248-12.838,16.745-19.028,8.834-9.948,17.719-19.83,26.542-29.792,12.583-14.2,25.217-28.345,37.667-42.722,11.644-13.446,23.158-27.066,34.2-41.254,3.212-4.126,6.242-8.462,9.485-12.877,2.415,7.053,4.751,14.034,7.189,20.963,6.459,18.361,12.972,36.7,21.013,54.141,2.966,6.435,5.853,13.04,10.819,17.674.807.752.38,1.508.233,2.132-2.14,9.141-2.551,18.466-2.454,27.921.108,10.59.406,21.2-.2,31.777-.405,7.021-1.183,14.014-1.907,21a45.876,45.876,0,0,0,.77,14.788c.615,2.745-.195,2.746-1.893,2.682-10.528-.4-21.057-.877-31.589-1.047-14.487-.232-28.98-.476-43.461-.138-4.074.1-6.586-2.676-9.5-4.813-15.324-11.256-30.489-22.856-46.784-31.982-7.378-4.132-14.883-7.93-23.076-9.038C367.761,513.214,366.659,513.136,365.054,512.974Z" style="fill:#5dc1cc"/><path d="M397.37,86.933a157.192,157.192,0,0,0,24.669-17.746c13.1-11.288,27.926-18.5,42.009-27.468a128.142,128.142,0,0,0,12.815-8.655,2.921,2.921,0,0,1,2.088-.615c16.864.18,33.739,0,50.589.674,9.847.394,19.651,2.31,29.548,1.865,1.194-.053,1.323.621,1.194,1.825-1.741,16.212-1.072,32.528-1.507,48.8-.241,9.009-1.553,17.971-2.27,26.967-.585,7.344-.62,14.652,2.3,21.449.348.808.295,1.216-.35,1.7-8.1,6.033-12.875,15.322-16.515,25.584-4.5,12.693-10.707,24.31-15.434,36.848-3.456,9.166-7.085,18.256-8.828,28.231-.265,1.522-.114,3.05-.424,4.908a137.079,137.079,0,0,1-10.888-10.832c-12.2-13.079-22.563-28.265-33.307-43.017-6.8-9.339-13.583-18.631-21.752-26.378-10.292-9.761-18.879-21.747-27.675-33.421C415.494,106.843,407.364,96.02,397.37,86.933Z" style="fill:#e94266"/><path d="M394.3,288.293c-.323.428-.706.962-1.112,1.469-5.962,7.454-11.98,14.841-17.882,22.365-21.815,27.81-43.437,55.846-65.825,82.984-12.107,14.677-24.1,29.492-36.115,44.282-1.063,1.307-1.45,1.65-2.37-.359-2.905-6.342-6.848-11.791-10.811-17.169-9.138-12.4-18.713-24.3-28.542-35.883-12.007-14.157-24.62-27.544-36.238-42.193-7.851-9.9-15.625-19.892-23.825-29.362-8.187-9.454-16.592-18.616-26.168-26-1.539-1.186-.525-1.7.149-2.479q14.1-16.206,28.181-32.427c8.56-9.91,17.013-19.958,25.606-29.827q20.758-23.841,41-48.334c8.233-9.936,16.6-19.711,24.9-29.56.426-.506.848-1.017,1.259-1.541,3.169-4.036,3.152-4.018,6.452-.008q27.231,33.1,54.493,66.16,19.242,23.212,38.741,46.107c8.936,10.471,17.811,21.039,27.442,30.59A1.418,1.418,0,0,1,394.3,288.293Z" style="fill:#6ab42e"/><path d="M169.062,67.123c-8.233,8.528-15.6,17.957-22.974,27.375-8.921,11.4-17.564,23.137-27.221,33.634-7.535,8.192-15.389,15.948-22.916,24.149-14.235,15.508-28.051,31.543-40.079,49.7-1.955,2.95-3.771,6.037-5.768,9.249-2.362-5.9-4.621-11.713-7-17.452-5.477-13.219-11.378-26.161-17.186-39.166C20.289,142.006,16.03,128.6,11.1,115.578c-1.3-3.442-2.671-6.848-4.027-10.26-.32-.807-.811-1.424.16-2.25,1.044-.886.651-2.476.677-3.778.342-16.656,0-33.295-.762-49.931-.541-11.826-.9-23.666-1.321-35.5-.24-6.652-.218-6.834,5.018-6.387,10.434.891,20.854,2.013,31.282,3.017q15.42,1.485,30.844,2.924c6.362.6,12.724,1.186,19.089,1.732a5.163,5.163,0,0,1,2.457,1.17c14.342,10,28.662,20.045,43.017,30.018,10.164,7.062,20.348,14.084,30.889,20.3A7.831,7.831,0,0,1,169.062,67.123Z" style="fill:#fecb39"/><path d="M51.055,339.356c13.529,20.006,28.437,37.927,43.036,56.2,8.705,10.9,17.418,21.782,26.039,32.776,11.142,14.208,22.409,28.264,34.05,41.866a162.77,162.77,0,0,0,17.958,18.607c-4.872,2.91-9.529,5.705-14.194,8.476-19.868,11.8-39.511,24.141-59.034,36.763-1.072.693-2.021,1.759-3.162-.022-.448-.7-1.413-.259-2.138-.26q-39.808-.022-79.618-.013c-2.914,0-2.976,0-2.888-3.418.257-9.962.144-19.926-.115-29.879-.352-13.473-.614-26.948-.92-40.42a127.5,127.5,0,0,1,.484-14.281,4.7,4.7,0,0,0-.009-1.886c-1.353-3.561.393-6.018,1.845-8.72,5.5-10.243,9.052-21.629,12.606-32.978,5.846-18.666,14.184-35.793,21.855-53.335C48.206,345.734,49.59,342.655,51.055,339.356Z" style="fill:#3052a0"/><path d="M393.38,442.189a150.645,150.645,0,0,0-6.27-18.008c-2.706-6.25-5.592-12.341-10.131-16.986-1.313-1.344-3.017-1.994-3.92-4.148-.553-1.317-2-.65-2.992.1-1.714,1.291-2.825,3.369-4.49,5.317-.377-3.578-.693-6.832-1.068-10.076-.435-3.754-.922-7.5-1.386-11.25-.122-.986-.4-1.89,1-1.9,8.571-.073,16.908-2.343,25.3-4.137a10.727,10.727,0,0,1,1.429-.1c-.987,1.944-1.92,3.657-2.747,5.443-1.651,3.564-1.382,5.217.872,8.231,5.2,6.956,10.078,14.274,15.808,20.618,1.916,2.122,3.944,4.094,5.981,6.2A89.2,89.2,0,0,0,393.38,442.189Z" style="fill:#fdfdfd"/><path d="M182.94,168.787c1.558,10.287,2.366,20.458,5.723,30.156-9.943,1.377-19.826,2.366-29.9,6.154,1.438-2.77,2.6-4.975,3.736-7.2,1.287-2.529,2.659-5.007,3.791-7.637,1.266-2.939.5-4.786-2.147-5.194a4.865,4.865,0,0,1-2.345-1.294c-9.751-7.878-19.619-15.5-30.63-21.006,4.139-4.6,8.247-9.11,12.295-13.7,2.391-2.711,4.752-5.47,7-8.36,1.123-1.447,1.466-1.03,2.036.512a233.111,233.111,0,0,0,9.807,23.623,72.506,72.506,0,0,0,7.622,12.649c2.332,2.94,3.413,2.718,5.658-.186C177.843,174.378,180.361,171.746,182.94,168.787Z" style="fill:#fdfdfd"/><path d="M135.972,362.519a66.777,66.777,0,0,1,14.895,5.814A34.007,34.007,0,0,0,164.8,372.3c.694.062,1.738-.385,1.587,1.4a232.756,232.756,0,0,0-.48,31.1c-2.473-3.55-4.092-7.1-6.569-9.831-2.343-2.584-2.932-2.758-5.687-.55-6.631,5.315-13.01,11.053-19.288,16.963-1.328,1.25-2.722,2.4-4.085,3.588-.85-1.676-1.716-3.341-2.547-5.031a160.954,160.954,0,0,0-9.572-17.188c6.506-4.457,12.662-9.344,18.862-14.148a3.506,3.506,0,0,1,1.228-.557c.891-.247,2.167,0,2.147-1.639-.019-1.51.967-3.519-1.084-4.393-.312-.133-.509-.83-.669-1.311C137.764,368.072,136.914,365.421,135.972,362.519Z" style="fill:#fdfdfd"/><path d="M421.744,162.135a95.9,95.9,0,0,0,6.441,12.676c.549.84.189,1.2-.312,1.692-7,6.886-13.269,14.73-19.7,22.364-1.692,2.008-1.785,4.372-.508,6.924,1.375,2.751,2.555,5.648,3.746,8.314-3.625,0-7.282.069-10.936-.017-4.523-.107-9.043-.4-13.566-.484-1.218-.022-1.6-.326-1.582-1.918.089-6.5.037-13.013.037-19.858,1.353,1.245,2.347,2.707,3.729,3.478,2,1.118,3.657,1.163,5.641-.8,9.611-9.508,18.017-20.463,26.279-31.614A8.454,8.454,0,0,1,421.744,162.135Z" style="fill:#fdfdfd"/></svg>
